<svg preserveAspectRatio="none" width="100%" height="100%" overflow="visible" style="display: block;" viewBox="0 0 269 30" fill="none" xmlns="http://www.w3.org/2000/svg">
<g id="&#227;&#131;&#173;&#227;&#130;&#180;&#230;&#168;&#170;" clip-path="url(#clip0_0_20)">
<path id="Vector" d="M0 29.6113L0.717333 19.9834V9.76744L0 0.199336H5.71874L5.00141 9.82724V20.0432L5.71874 29.6213H0V29.6113ZM15.054 24.9468L6.68515 14.6811V14.1927L14.2371 5.5814L16.7378 0.199336H22.9646V0.58804L11.1784 13.4252L20.165 24.6578L24.4989 29.1827V29.6711L17.6046 30.01L15.054 24.9568V24.9468Z" fill="var(--fill-0, white)"/>
<path id="Vector_2" d="M34.5516 29.6611L45.4211 3.64784L46.3876 0.289037L50.4226 0L61.6508 29.6113H55.683L54.1487 22.2658H41.5456L39.7124 29.6611H34.5615H34.5516ZM48.1311 4.96345L42.9802 18.8671H52.983L48.1311 4.96345Z" fill="var(--fill-0, white)"/>
<path id="Vector_3" d="M76.0473 29.6113L76.7646 19.9834V9.76744L76.0473 0.189369H81.766L81.0487 9.81728V20.0332L81.766 29.6113H76.0473ZM91.1013 24.9468L82.7324 14.6811V14.1927L90.2844 5.5814L92.7851 0.179402H99.0119V0.568106L87.2257 13.4053L96.2123 24.6379L100.546 29.1628V29.6512L93.6518 29.99L91.1013 24.9369V24.9468Z" fill="var(--fill-0, white)"/>
<path id="Vector_4" d="M119.177 9.81728V12.8771H124.079L128.931 12.3887L128.522 16.0365H119.177V20.0233L119.635 26.2027H126.37L131.93 25.6146L131.421 29.8904L125.862 29.6013H119.894L114.176 29.8904L114.893 19.9734V9.75747L114.176 0.179402H131.481L131.023 4.16611L125.304 3.57807H119.635L119.177 9.80731V9.81728Z" fill="var(--fill-0, white)"/>
<path id="Vector_5" d="M150.7 9.52824L150.62 8.56146C152.124 8.56146 153.2 8.31229 153.858 7.82392C154.516 7.32558 154.844 6.50831 154.844 5.35216C154.844 3.0299 153.709 1.87375 151.427 1.87375C151.068 1.87375 150.6 1.91362 150.032 1.99336L149.773 5.6412V10.8239L150.132 15.6877H147.233L147.591 10.804V4.16611L147.123 0.906977C149.265 0.55814 150.879 0.388704 151.965 0.388704C155.572 0.388704 157.375 1.96346 157.375 5.10299C157.375 6.3887 157.016 7.41528 156.299 8.20266C155.582 8.99003 154.555 9.46844 153.23 9.64784L150.69 9.52824H150.7Z" fill="var(--fill-0, white)"/>
<path id="Vector_6" d="M173.047 15.6977L173.405 10.814V5.63123L173.047 0.767442H175.946L175.587 5.65116V6.98671H183.568V5.63123L183.209 0.767442H186.108L185.749 5.65116V10.8339L186.108 15.6977H183.209L183.568 10.814V8.72093H175.587V10.8439L175.946 15.7076H173.047V15.6977Z" fill="var(--fill-0, white)"/>
<path id="Vector_7" d="M206.692 16.0664C204.39 16.0664 202.597 15.3887 201.322 14.0332C200.046 12.6777 199.409 10.7841 199.409 8.37209C199.409 5.96013 200.106 4.01661 201.501 2.57143C202.896 1.12625 204.759 0.398671 207.07 0.398671C209.382 0.398671 211.185 1.07641 212.46 2.42193C213.735 3.76744 214.373 5.65116 214.373 8.07309C214.373 10.495 213.666 12.4286 212.261 13.8837C210.856 15.3389 208.993 16.0664 206.692 16.0664ZM202.019 8.36213C202.019 10.2857 202.477 11.7807 203.394 12.8372C204.31 13.8937 205.596 14.4319 207.25 14.4319C208.236 14.4319 209.192 14.2425 210.129 13.8638C210.577 13.4352 210.966 12.6678 211.285 11.5615C211.603 10.4552 211.763 9.30897 211.763 8.14286C211.763 6.1495 211.314 4.63455 210.408 3.58804C209.501 2.54153 208.186 2.02326 206.453 2.02326C205.466 2.02326 204.54 2.21262 203.653 2.59136C203.205 3 202.816 3.77741 202.497 4.91362C202.178 6.04983 202.019 7.19601 202.019 8.37209V8.36213Z" fill="var(--fill-0, white)"/>
<path id="Vector_8" d="M228.261 2.6412L228.391 0.767442H237.328L240.147 0.468439L239.888 2.6412L237.009 2.49169H235.325L235.096 5.65116V10.8339L235.455 15.6977H232.555L232.914 10.814V5.63123L232.655 2.50166H231.101L228.251 2.65116L228.261 2.6412Z" fill="var(--fill-0, white)"/>
<path id="Vector_9" d="M261.329 16.0664C259.027 16.0664 257.234 15.3887 255.958 14.0332C254.683 12.6777 254.046 10.7841 254.046 8.37209C254.046 5.96013 254.743 4.01661 256.138 2.57143C257.533 1.12625 259.396 0.398671 261.707 0.398671C264.019 0.398671 265.822 1.07641 267.097 2.42193C268.372 3.76744 269.01 5.65116 269.01 8.07309C269.01 10.495 268.303 12.4286 266.898 13.8837C265.493 15.3389 263.63 16.0664 261.329 16.0664ZM256.646 8.36213C256.646 10.2857 257.104 11.7807 258.021 12.8372C258.937 13.8937 260.223 14.4319 261.876 14.4319C262.863 14.4319 263.819 14.2425 264.756 13.8638C265.204 13.4352 265.593 12.6678 265.911 11.5615C266.23 10.4552 266.39 9.30897 266.39 8.14286C266.39 6.1495 265.941 4.63455 265.035 3.58804C264.128 2.54153 262.813 2.02326 261.079 2.02326C260.093 2.02326 259.167 2.21262 258.28 2.59136C257.832 3 257.443 3.77741 257.124 4.91362C256.805 6.04983 256.646 7.19601 256.646 8.37209V8.36213Z" fill="var(--fill-0, white)"/>
<path id="Vector_10" d="M154.147 25.7342L146.824 25.495V29.7209L154.147 29.4817V25.7342Z" fill="var(--fill-0, white)"/>
<path id="Vector_11" d="M261.159 25.7442V29.4817L268.482 29.7209V25.495L261.159 25.7442Z" fill="var(--fill-0, white)"/>
<path id="Vector_12" d="M257.403 25.804L249.901 26.0233H165.246L157.913 25.814V29.402L165.156 29.1927H249.801L257.403 29.412V25.804Z" fill="var(--fill-0, white)"/>
</g>
<defs>
<clipPath id="clip0_0_20">
<rect width="269" height="30" fill="white"/>
</clipPath>
</defs>
</svg>
