<svg xmlns="http://www.w3.org/2000/svg" width="512" height="512" viewBox="0 0 512 512"><defs><pattern id="wv" width="6" height="6" patternUnits="userSpaceOnUse"><line x1="0" y1="3" x2="6" y2="3" stroke="#000" stroke-opacity="0.05" stroke-width="1"/><line x1="3" y1="0" x2="3" y2="6" stroke="#fff" stroke-opacity="0.04" stroke-width="1"/></pattern></defs><rect width="512" height="512" fill="#d8c8a8"/><line x1="-1112" y1="-600" x2="88" y2="600" stroke="#b5a079" stroke-width="2"/><line x1="88" y1="-600" x2="-1112" y2="600" stroke="#b5a079" stroke-width="2"/><line x1="-984" y1="-600" x2="216" y2="600" stroke="#b5a079" stroke-width="2"/><line x1="216" y1="-600" x2="-984" y2="600" stroke="#b5a079" stroke-width="2"/><line x1="-856" y1="-600" x2="344" y2="600" stroke="#b5a079" stroke-width="2"/><line x1="344" y1="-600" x2="-856" y2="600" stroke="#b5a079" stroke-width="2"/><line x1="-728" y1="-600" x2="472" y2="600" stroke="#b5a079" stroke-width="2"/><line x1="472" y1="-600" x2="-728" y2="600" stroke="#b5a079" stroke-width="2"/><line x1="-600" y1="-600" x2="600" y2="600" stroke="#b5a079" stroke-width="2"/><line x1="600" y1="-600" x2="-600" y2="600" stroke="#b5a079" stroke-width="2"/><line x1="-472" y1="-600" x2="728" y2="600" stroke="#b5a079" stroke-width="2"/><line x1="728" y1="-600" x2="-472" y2="600" stroke="#b5a079" stroke-width="2"/><line x1="-344" y1="-600" x2="856" y2="600" stroke="#b5a079" stroke-width="2"/><line x1="856" y1="-600" x2="-344" y2="600" stroke="#b5a079" stroke-width="2"/><line x1="-216" y1="-600" x2="984" y2="600" stroke="#b5a079" stroke-width="2"/><line x1="984" y1="-600" x2="-216" y2="600" stroke="#b5a079" stroke-width="2"/><line x1="-88" y1="-600" x2="1112" y2="600" stroke="#b5a079" stroke-width="2"/><line x1="1112" y1="-600" x2="-88" y2="600" stroke="#b5a079" stroke-width="2"/><line x1="40" y1="-600" x2="1240" y2="600" stroke="#b5a079" stroke-width="2"/><line x1="1240" y1="-600" x2="40" y2="600" stroke="#b5a079" stroke-width="2"/><line x1="168" y1="-600" x2="1368" y2="600" stroke="#b5a079" stroke-width="2"/><line x1="1368" y1="-600" x2="168" y2="600" stroke="#b5a079" stroke-width="2"/><line x1="296" y1="-600" x2="1496" y2="600" stroke="#b5a079" stroke-width="2"/><line x1="1496" y1="-600" x2="296" y2="600" stroke="#b5a079" stroke-width="2"/><line x1="424" y1="-600" x2="1624" y2="600" stroke="#b5a079" stroke-width="2"/><line x1="1624" y1="-600" x2="424" y2="600" stroke="#b5a079" stroke-width="2"/><ellipse cx="-64" cy="-13" rx="6" ry="13" fill="#b5a079" transform="rotate(0 -64 0)"/><ellipse cx="-64" cy="-13" rx="6" ry="13" fill="#b5a079" transform="rotate(90 -64 0)"/><ellipse cx="-64" cy="-13" rx="6" ry="13" fill="#b5a079" transform="rotate(180 -64 0)"/><ellipse cx="-64" cy="-13" rx="6" ry="13" fill="#b5a079" transform="rotate(270 -64 0)"/><circle cx="-64" cy="0" r="4" fill="#d8c8a8"/><ellipse cx="-64" cy="115" rx="6" ry="13" fill="#b5a079" transform="rotate(0 -64 128)"/><ellipse cx="-64" cy="115" rx="6" ry="13" fill="#b5a079" transform="rotate(90 -64 128)"/><ellipse cx="-64" cy="115" rx="6" ry="13" fill="#b5a079" transform="rotate(180 -64 128)"/><ellipse cx="-64" cy="115" rx="6" ry="13" fill="#b5a079" transform="rotate(270 -64 128)"/><circle cx="-64" cy="128" r="4" fill="#d8c8a8"/><ellipse cx="-64" cy="243" rx="6" ry="13" fill="#b5a079" transform="rotate(0 -64 256)"/><ellipse cx="-64" cy="243" rx="6" ry="13" fill="#b5a079" transform="rotate(90 -64 256)"/><ellipse cx="-64" cy="243" rx="6" ry="13" fill="#b5a079" transform="rotate(180 -64 256)"/><ellipse cx="-64" cy="243" rx="6" ry="13" fill="#b5a079" transform="rotate(270 -64 256)"/><circle cx="-64" cy="256" r="4" fill="#d8c8a8"/><ellipse cx="-64" cy="371" rx="6" ry="13" fill="#b5a079" transform="rotate(0 -64 384)"/><ellipse cx="-64" cy="371" rx="6" ry="13" fill="#b5a079" transform="rotate(90 -64 384)"/><ellipse cx="-64" cy="371" rx="6" ry="13" fill="#b5a079" transform="rotate(180 -64 384)"/><ellipse cx="-64" cy="371" rx="6" ry="13" fill="#b5a079" transform="rotate(270 -64 384)"/><circle cx="-64" cy="384" r="4" fill="#d8c8a8"/><ellipse cx="-64" cy="499" rx="6" ry="13" fill="#b5a079" transform="rotate(0 -64 512)"/><ellipse cx="-64" cy="499" rx="6" ry="13" fill="#b5a079" transform="rotate(90 -64 512)"/><ellipse cx="-64" cy="499" rx="6" ry="13" fill="#b5a079" transform="rotate(180 -64 512)"/><ellipse cx="-64" cy="499" rx="6" ry="13" fill="#b5a079" transform="rotate(270 -64 512)"/><circle cx="-64" cy="512" r="4" fill="#d8c8a8"/><ellipse cx="0" cy="-77" rx="6" ry="13" fill="#b5a079" transform="rotate(0 0 -64)"/><ellipse cx="0" cy="-77" rx="6" ry="13" fill="#b5a079" transform="rotate(90 0 -64)"/><ellipse cx="0" cy="-77" rx="6" ry="13" fill="#b5a079" transform="rotate(180 0 -64)"/><ellipse cx="0" cy="-77" rx="6" ry="13" fill="#b5a079" transform="rotate(270 0 -64)"/><circle cx="0" cy="-64" r="4" fill="#d8c8a8"/><ellipse cx="0" cy="51" rx="6" ry="13" fill="#b5a079" transform="rotate(0 0 64)"/><ellipse cx="0" cy="51" rx="6" ry="13" fill="#b5a079" transform="rotate(90 0 64)"/><ellipse cx="0" cy="51" rx="6" ry="13" fill="#b5a079" transform="rotate(180 0 64)"/><ellipse cx="0" cy="51" rx="6" ry="13" fill="#b5a079" transform="rotate(270 0 64)"/><circle cx="0" cy="64" r="4" fill="#d8c8a8"/><ellipse cx="0" cy="179" rx="6" ry="13" fill="#b5a079" transform="rotate(0 0 192)"/><ellipse cx="0" cy="179" rx="6" ry="13" fill="#b5a079" transform="rotate(90 0 192)"/><ellipse cx="0" cy="179" rx="6" ry="13" fill="#b5a079" transform="rotate(180 0 192)"/><ellipse cx="0" cy="179" rx="6" ry="13" fill="#b5a079" transform="rotate(270 0 192)"/><circle cx="0" cy="192" r="4" fill="#d8c8a8"/><ellipse cx="0" cy="307" rx="6" ry="13" fill="#b5a079" transform="rotate(0 0 320)"/><ellipse cx="0" cy="307" rx="6" ry="13" fill="#b5a079" transform="rotate(90 0 320)"/><ellipse cx="0" cy="307" rx="6" ry="13" fill="#b5a079" transform="rotate(180 0 320)"/><ellipse cx="0" cy="307" rx="6" ry="13" fill="#b5a079" transform="rotate(270 0 320)"/><circle cx="0" cy="320" r="4" fill="#d8c8a8"/><ellipse cx="0" cy="435" rx="6" ry="13" fill="#b5a079" transform="rotate(0 0 448)"/><ellipse cx="0" cy="435" rx="6" ry="13" fill="#b5a079" transform="rotate(90 0 448)"/><ellipse cx="0" cy="435" rx="6" ry="13" fill="#b5a079" transform="rotate(180 0 448)"/><ellipse cx="0" cy="435" rx="6" ry="13" fill="#b5a079" transform="rotate(270 0 448)"/><circle cx="0" cy="448" r="4" fill="#d8c8a8"/><ellipse cx="64" cy="-13" rx="6" ry="13" fill="#b5a079" transform="rotate(0 64 0)"/><ellipse cx="64" cy="-13" rx="6" ry="13" fill="#b5a079" transform="rotate(90 64 0)"/><ellipse cx="64" cy="-13" rx="6" ry="13" fill="#b5a079" transform="rotate(180 64 0)"/><ellipse cx="64" cy="-13" rx="6" ry="13" fill="#b5a079" transform="rotate(270 64 0)"/><circle cx="64" cy="0" r="4" fill="#d8c8a8"/><ellipse cx="64" cy="115" rx="6" ry="13" fill="#b5a079" transform="rotate(0 64 128)"/><ellipse cx="64" cy="115" rx="6" ry="13" fill="#b5a079" transform="rotate(90 64 128)"/><ellipse cx="64" cy="115" rx="6" ry="13" fill="#b5a079" transform="rotate(180 64 128)"/><ellipse cx="64" cy="115" rx="6" ry="13" fill="#b5a079" transform="rotate(270 64 128)"/><circle cx="64" cy="128" r="4" fill="#d8c8a8"/><ellipse cx="64" cy="243" rx="6" ry="13" fill="#b5a079" transform="rotate(0 64 256)"/><ellipse cx="64" cy="243" rx="6" ry="13" fill="#b5a079" transform="rotate(90 64 256)"/><ellipse cx="64" cy="243" rx="6" ry="13" fill="#b5a079" transform="rotate(180 64 256)"/><ellipse cx="64" cy="243" rx="6" ry="13" fill="#b5a079" transform="rotate(270 64 256)"/><circle cx="64" cy="256" r="4" fill="#d8c8a8"/><ellipse cx="64" cy="371" rx="6" ry="13" fill="#b5a079" transform="rotate(0 64 384)"/><ellipse cx="64" cy="371" rx="6" ry="13" fill="#b5a079" transform="rotate(90 64 384)"/><ellipse cx="64" cy="371" rx="6" ry="13" fill="#b5a079" transform="rotate(180 64 384)"/><ellipse cx="64" cy="371" rx="6" ry="13" fill="#b5a079" transform="rotate(270 64 384)"/><circle cx="64" cy="384" r="4" fill="#d8c8a8"/><ellipse cx="64" cy="499" rx="6" ry="13" fill="#b5a079" transform="rotate(0 64 512)"/><ellipse cx="64" cy="499" rx="6" ry="13" fill="#b5a079" transform="rotate(90 64 512)"/><ellipse cx="64" cy="499" rx="6" ry="13" fill="#b5a079" transform="rotate(180 64 512)"/><ellipse cx="64" cy="499" rx="6" ry="13" fill="#b5a079" transform="rotate(270 64 512)"/><circle cx="64" cy="512" r="4" fill="#d8c8a8"/><ellipse cx="128" cy="-77" rx="6" ry="13" fill="#b5a079" transform="rotate(0 128 -64)"/><ellipse cx="128" cy="-77" rx="6" ry="13" fill="#b5a079" transform="rotate(90 128 -64)"/><ellipse cx="128" cy="-77" rx="6" ry="13" fill="#b5a079" transform="rotate(180 128 -64)"/><ellipse cx="128" cy="-77" rx="6" ry="13" fill="#b5a079" transform="rotate(270 128 -64)"/><circle cx="128" cy="-64" r="4" fill="#d8c8a8"/><ellipse cx="128" cy="51" rx="6" ry="13" fill="#b5a079" transform="rotate(0 128 64)"/><ellipse cx="128" cy="51" rx="6" ry="13" fill="#b5a079" transform="rotate(90 128 64)"/><ellipse cx="128" cy="51" rx="6" ry="13" fill="#b5a079" transform="rotate(180 128 64)"/><ellipse cx="128" cy="51" rx="6" ry="13" fill="#b5a079" transform="rotate(270 128 64)"/><circle cx="128" cy="64" r="4" fill="#d8c8a8"/><ellipse cx="128" cy="179" rx="6" ry="13" fill="#b5a079" transform="rotate(0 128 192)"/><ellipse cx="128" cy="179" rx="6" ry="13" fill="#b5a079" transform="rotate(90 128 192)"/><ellipse cx="128" cy="179" rx="6" ry="13" fill="#b5a079" transform="rotate(180 128 192)"/><ellipse cx="128" cy="179" rx="6" ry="13" fill="#b5a079" transform="rotate(270 128 192)"/><circle cx="128" cy="192" r="4" fill="#d8c8a8"/><ellipse cx="128" cy="307" rx="6" ry="13" fill="#b5a079" transform="rotate(0 128 320)"/><ellipse cx="128" cy="307" rx="6" ry="13" fill="#b5a079" transform="rotate(90 128 320)"/><ellipse cx="128" cy="307" rx="6" ry="13" fill="#b5a079" transform="rotate(180 128 320)"/><ellipse cx="128" cy="307" rx="6" ry="13" fill="#b5a079" transform="rotate(270 128 320)"/><circle cx="128" cy="320" r="4" fill="#d8c8a8"/><ellipse cx="128" cy="435" rx="6" ry="13" fill="#b5a079" transform="rotate(0 128 448)"/><ellipse cx="128" cy="435" rx="6" ry="13" fill="#b5a079" transform="rotate(90 128 448)"/><ellipse cx="128" cy="435" rx="6" ry="13" fill="#b5a079" transform="rotate(180 128 448)"/><ellipse cx="128" cy="435" rx="6" ry="13" fill="#b5a079" transform="rotate(270 128 448)"/><circle cx="128" cy="448" r="4" fill="#d8c8a8"/><ellipse cx="192" cy="-13" rx="6" ry="13" fill="#b5a079" transform="rotate(0 192 0)"/><ellipse cx="192" cy="-13" rx="6" ry="13" fill="#b5a079" transform="rotate(90 192 0)"/><ellipse cx="192" cy="-13" rx="6" ry="13" fill="#b5a079" transform="rotate(180 192 0)"/><ellipse cx="192" cy="-13" rx="6" ry="13" fill="#b5a079" transform="rotate(270 192 0)"/><circle cx="192" cy="0" r="4" fill="#d8c8a8"/><ellipse cx="192" cy="115" rx="6" ry="13" fill="#b5a079" transform="rotate(0 192 128)"/><ellipse cx="192" cy="115" rx="6" ry="13" fill="#b5a079" transform="rotate(90 192 128)"/><ellipse cx="192" cy="115" rx="6" ry="13" fill="#b5a079" transform="rotate(180 192 128)"/><ellipse cx="192" cy="115" rx="6" ry="13" fill="#b5a079" transform="rotate(270 192 128)"/><circle cx="192" cy="128" r="4" fill="#d8c8a8"/><ellipse cx="192" cy="243" rx="6" ry="13" fill="#b5a079" transform="rotate(0 192 256)"/><ellipse cx="192" cy="243" rx="6" ry="13" fill="#b5a079" transform="rotate(90 192 256)"/><ellipse cx="192" cy="243" rx="6" ry="13" fill="#b5a079" transform="rotate(180 192 256)"/><ellipse cx="192" cy="243" rx="6" ry="13" fill="#b5a079" transform="rotate(270 192 256)"/><circle cx="192" cy="256" r="4" fill="#d8c8a8"/><ellipse cx="192" cy="371" rx="6" ry="13" fill="#b5a079" transform="rotate(0 192 384)"/><ellipse cx="192" cy="371" rx="6" ry="13" fill="#b5a079" transform="rotate(90 192 384)"/><ellipse cx="192" cy="371" rx="6" ry="13" fill="#b5a079" transform="rotate(180 192 384)"/><ellipse cx="192" cy="371" rx="6" ry="13" fill="#b5a079" transform="rotate(270 192 384)"/><circle cx="192" cy="384" r="4" fill="#d8c8a8"/><ellipse cx="192" cy="499" rx="6" ry="13" fill="#b5a079" transform="rotate(0 192 512)"/><ellipse cx="192" cy="499" rx="6" ry="13" fill="#b5a079" transform="rotate(90 192 512)"/><ellipse cx="192" cy="499" rx="6" ry="13" fill="#b5a079" transform="rotate(180 192 512)"/><ellipse cx="192" cy="499" rx="6" ry="13" fill="#b5a079" transform="rotate(270 192 512)"/><circle cx="192" cy="512" r="4" fill="#d8c8a8"/><ellipse cx="256" cy="-77" rx="6" ry="13" fill="#b5a079" transform="rotate(0 256 -64)"/><ellipse cx="256" cy="-77" rx="6" ry="13" fill="#b5a079" transform="rotate(90 256 -64)"/><ellipse cx="256" cy="-77" rx="6" ry="13" fill="#b5a079" transform="rotate(180 256 -64)"/><ellipse cx="256" cy="-77" rx="6" ry="13" fill="#b5a079" transform="rotate(270 256 -64)"/><circle cx="256" cy="-64" r="4" fill="#d8c8a8"/><ellipse cx="256" cy="51" rx="6" ry="13" fill="#b5a079" transform="rotate(0 256 64)"/><ellipse cx="256" cy="51" rx="6" ry="13" fill="#b5a079" transform="rotate(90 256 64)"/><ellipse cx="256" cy="51" rx="6" ry="13" fill="#b5a079" transform="rotate(180 256 64)"/><ellipse cx="256" cy="51" rx="6" ry="13" fill="#b5a079" transform="rotate(270 256 64)"/><circle cx="256" cy="64" r="4" fill="#d8c8a8"/><ellipse cx="256" cy="179" rx="6" ry="13" fill="#b5a079" transform="rotate(0 256 192)"/><ellipse cx="256" cy="179" rx="6" ry="13" fill="#b5a079" transform="rotate(90 256 192)"/><ellipse cx="256" cy="179" rx="6" ry="13" fill="#b5a079" transform="rotate(180 256 192)"/><ellipse cx="256" cy="179" rx="6" ry="13" fill="#b5a079" transform="rotate(270 256 192)"/><circle cx="256" cy="192" r="4" fill="#d8c8a8"/><ellipse cx="256" cy="307" rx="6" ry="13" fill="#b5a079" transform="rotate(0 256 320)"/><ellipse cx="256" cy="307" rx="6" ry="13" fill="#b5a079" transform="rotate(90 256 320)"/><ellipse cx="256" cy="307" rx="6" ry="13" fill="#b5a079" transform="rotate(180 256 320)"/><ellipse cx="256" cy="307" rx="6" ry="13" fill="#b5a079" transform="rotate(270 256 320)"/><circle cx="256" cy="320" r="4" fill="#d8c8a8"/><ellipse cx="256" cy="435" rx="6" ry="13" fill="#b5a079" transform="rotate(0 256 448)"/><ellipse cx="256" cy="435" rx="6" ry="13" fill="#b5a079" transform="rotate(90 256 448)"/><ellipse cx="256" cy="435" rx="6" ry="13" fill="#b5a079" transform="rotate(180 256 448)"/><ellipse cx="256" cy="435" rx="6" ry="13" fill="#b5a079" transform="rotate(270 256 448)"/><circle cx="256" cy="448" r="4" fill="#d8c8a8"/><ellipse cx="320" cy="-13" rx="6" ry="13" fill="#b5a079" transform="rotate(0 320 0)"/><ellipse cx="320" cy="-13" rx="6" ry="13" fill="#b5a079" transform="rotate(90 320 0)"/><ellipse cx="320" cy="-13" rx="6" ry="13" fill="#b5a079" transform="rotate(180 320 0)"/><ellipse cx="320" cy="-13" rx="6" ry="13" fill="#b5a079" transform="rotate(270 320 0)"/><circle cx="320" cy="0" r="4" fill="#d8c8a8"/><ellipse cx="320" cy="115" rx="6" ry="13" fill="#b5a079" transform="rotate(0 320 128)"/><ellipse cx="320" cy="115" rx="6" ry="13" fill="#b5a079" transform="rotate(90 320 128)"/><ellipse cx="320" cy="115" rx="6" ry="13" fill="#b5a079" transform="rotate(180 320 128)"/><ellipse cx="320" cy="115" rx="6" ry="13" fill="#b5a079" transform="rotate(270 320 128)"/><circle cx="320" cy="128" r="4" fill="#d8c8a8"/><ellipse cx="320" cy="243" rx="6" ry="13" fill="#b5a079" transform="rotate(0 320 256)"/><ellipse cx="320" cy="243" rx="6" ry="13" fill="#b5a079" transform="rotate(90 320 256)"/><ellipse cx="320" cy="243" rx="6" ry="13" fill="#b5a079" transform="rotate(180 320 256)"/><ellipse cx="320" cy="243" rx="6" ry="13" fill="#b5a079" transform="rotate(270 320 256)"/><circle cx="320" cy="256" r="4" fill="#d8c8a8"/><ellipse cx="320" cy="371" rx="6" ry="13" fill="#b5a079" transform="rotate(0 320 384)"/><ellipse cx="320" cy="371" rx="6" ry="13" fill="#b5a079" transform="rotate(90 320 384)"/><ellipse cx="320" cy="371" rx="6" ry="13" fill="#b5a079" transform="rotate(180 320 384)"/><ellipse cx="320" cy="371" rx="6" ry="13" fill="#b5a079" transform="rotate(270 320 384)"/><circle cx="320" cy="384" r="4" fill="#d8c8a8"/><ellipse cx="320" cy="499" rx="6" ry="13" fill="#b5a079" transform="rotate(0 320 512)"/><ellipse cx="320" cy="499" rx="6" ry="13" fill="#b5a079" transform="rotate(90 320 512)"/><ellipse cx="320" cy="499" rx="6" ry="13" fill="#b5a079" transform="rotate(180 320 512)"/><ellipse cx="320" cy="499" rx="6" ry="13" fill="#b5a079" transform="rotate(270 320 512)"/><circle cx="320" cy="512" r="4" fill="#d8c8a8"/><ellipse cx="384" cy="-77" rx="6" ry="13" fill="#b5a079" transform="rotate(0 384 -64)"/><ellipse cx="384" cy="-77" rx="6" ry="13" fill="#b5a079" transform="rotate(90 384 -64)"/><ellipse cx="384" cy="-77" rx="6" ry="13" fill="#b5a079" transform="rotate(180 384 -64)"/><ellipse cx="384" cy="-77" rx="6" ry="13" fill="#b5a079" transform="rotate(270 384 -64)"/><circle cx="384" cy="-64" r="4" fill="#d8c8a8"/><ellipse cx="384" cy="51" rx="6" ry="13" fill="#b5a079" transform="rotate(0 384 64)"/><ellipse cx="384" cy="51" rx="6" ry="13" fill="#b5a079" transform="rotate(90 384 64)"/><ellipse cx="384" cy="51" rx="6" ry="13" fill="#b5a079" transform="rotate(180 384 64)"/><ellipse cx="384" cy="51" rx="6" ry="13" fill="#b5a079" transform="rotate(270 384 64)"/><circle cx="384" cy="64" r="4" fill="#d8c8a8"/><ellipse cx="384" cy="179" rx="6" ry="13" fill="#b5a079" transform="rotate(0 384 192)"/><ellipse cx="384" cy="179" rx="6" ry="13" fill="#b5a079" transform="rotate(90 384 192)"/><ellipse cx="384" cy="179" rx="6" ry="13" fill="#b5a079" transform="rotate(180 384 192)"/><ellipse cx="384" cy="179" rx="6" ry="13" fill="#b5a079" transform="rotate(270 384 192)"/><circle cx="384" cy="192" r="4" fill="#d8c8a8"/><ellipse cx="384" cy="307" rx="6" ry="13" fill="#b5a079" transform="rotate(0 384 320)"/><ellipse cx="384" cy="307" rx="6" ry="13" fill="#b5a079" transform="rotate(90 384 320)"/><ellipse cx="384" cy="307" rx="6" ry="13" fill="#b5a079" transform="rotate(180 384 320)"/><ellipse cx="384" cy="307" rx="6" ry="13" fill="#b5a079" transform="rotate(270 384 320)"/><circle cx="384" cy="320" r="4" fill="#d8c8a8"/><ellipse cx="384" cy="435" rx="6" ry="13" fill="#b5a079" transform="rotate(0 384 448)"/><ellipse cx="384" cy="435" rx="6" ry="13" fill="#b5a079" transform="rotate(90 384 448)"/><ellipse cx="384" cy="435" rx="6" ry="13" fill="#b5a079" transform="rotate(180 384 448)"/><ellipse cx="384" cy="435" rx="6" ry="13" fill="#b5a079" transform="rotate(270 384 448)"/><circle cx="384" cy="448" r="4" fill="#d8c8a8"/><ellipse cx="448" cy="-13" rx="6" ry="13" fill="#b5a079" transform="rotate(0 448 0)"/><ellipse cx="448" cy="-13" rx="6" ry="13" fill="#b5a079" transform="rotate(90 448 0)"/><ellipse cx="448" cy="-13" rx="6" ry="13" fill="#b5a079" transform="rotate(180 448 0)"/><ellipse cx="448" cy="-13" rx="6" ry="13" fill="#b5a079" transform="rotate(270 448 0)"/><circle cx="448" cy="0" r="4" fill="#d8c8a8"/><ellipse cx="448" cy="115" rx="6" ry="13" fill="#b5a079" transform="rotate(0 448 128)"/><ellipse cx="448" cy="115" rx="6" ry="13" fill="#b5a079" transform="rotate(90 448 128)"/><ellipse cx="448" cy="115" rx="6" ry="13" fill="#b5a079" transform="rotate(180 448 128)"/><ellipse cx="448" cy="115" rx="6" ry="13" fill="#b5a079" transform="rotate(270 448 128)"/><circle cx="448" cy="128" r="4" fill="#d8c8a8"/><ellipse cx="448" cy="243" rx="6" ry="13" fill="#b5a079" transform="rotate(0 448 256)"/><ellipse cx="448" cy="243" rx="6" ry="13" fill="#b5a079" transform="rotate(90 448 256)"/><ellipse cx="448" cy="243" rx="6" ry="13" fill="#b5a079" transform="rotate(180 448 256)"/><ellipse cx="448" cy="243" rx="6" ry="13" fill="#b5a079" transform="rotate(270 448 256)"/><circle cx="448" cy="256" r="4" fill="#d8c8a8"/><ellipse cx="448" cy="371" rx="6" ry="13" fill="#b5a079" transform="rotate(0 448 384)"/><ellipse cx="448" cy="371" rx="6" ry="13" fill="#b5a079" transform="rotate(90 448 384)"/><ellipse cx="448" cy="371" rx="6" ry="13" fill="#b5a079" transform="rotate(180 448 384)"/><ellipse cx="448" cy="371" rx="6" ry="13" fill="#b5a079" transform="rotate(270 448 384)"/><circle cx="448" cy="384" r="4" fill="#d8c8a8"/><ellipse cx="448" cy="499" rx="6" ry="13" fill="#b5a079" transform="rotate(0 448 512)"/><ellipse cx="448" cy="499" rx="6" ry="13" fill="#b5a079" transform="rotate(90 448 512)"/><ellipse cx="448" cy="499" rx="6" ry="13" fill="#b5a079" transform="rotate(180 448 512)"/><ellipse cx="448" cy="499" rx="6" ry="13" fill="#b5a079" transform="rotate(270 448 512)"/><circle cx="448" cy="512" r="4" fill="#d8c8a8"/><ellipse cx="512" cy="-77" rx="6" ry="13" fill="#b5a079" transform="rotate(0 512 -64)"/><ellipse cx="512" cy="-77" rx="6" ry="13" fill="#b5a079" transform="rotate(90 512 -64)"/><ellipse cx="512" cy="-77" rx="6" ry="13" fill="#b5a079" transform="rotate(180 512 -64)"/><ellipse cx="512" cy="-77" rx="6" ry="13" fill="#b5a079" transform="rotate(270 512 -64)"/><circle cx="512" cy="-64" r="4" fill="#d8c8a8"/><ellipse cx="512" cy="51" rx="6" ry="13" fill="#b5a079" transform="rotate(0 512 64)"/><ellipse cx="512" cy="51" rx="6" ry="13" fill="#b5a079" transform="rotate(90 512 64)"/><ellipse cx="512" cy="51" rx="6" ry="13" fill="#b5a079" transform="rotate(180 512 64)"/><ellipse cx="512" cy="51" rx="6" ry="13" fill="#b5a079" transform="rotate(270 512 64)"/><circle cx="512" cy="64" r="4" fill="#d8c8a8"/><ellipse cx="512" cy="179" rx="6" ry="13" fill="#b5a079" transform="rotate(0 512 192)"/><ellipse cx="512" cy="179" rx="6" ry="13" fill="#b5a079" transform="rotate(90 512 192)"/><ellipse cx="512" cy="179" rx="6" ry="13" fill="#b5a079" transform="rotate(180 512 192)"/><ellipse cx="512" cy="179" rx="6" ry="13" fill="#b5a079" transform="rotate(270 512 192)"/><circle cx="512" cy="192" r="4" fill="#d8c8a8"/><ellipse cx="512" cy="307" rx="6" ry="13" fill="#b5a079" transform="rotate(0 512 320)"/><ellipse cx="512" cy="307" rx="6" ry="13" fill="#b5a079" transform="rotate(90 512 320)"/><ellipse cx="512" cy="307" rx="6" ry="13" fill="#b5a079" transform="rotate(180 512 320)"/><ellipse cx="512" cy="307" rx="6" ry="13" fill="#b5a079" transform="rotate(270 512 320)"/><circle cx="512" cy="320" r="4" fill="#d8c8a8"/><ellipse cx="512" cy="435" rx="6" ry="13" fill="#b5a079" transform="rotate(0 512 448)"/><ellipse cx="512" cy="435" rx="6" ry="13" fill="#b5a079" transform="rotate(90 512 448)"/><ellipse cx="512" cy="435" rx="6" ry="13" fill="#b5a079" transform="rotate(180 512 448)"/><ellipse cx="512" cy="435" rx="6" ry="13" fill="#b5a079" transform="rotate(270 512 448)"/><circle cx="512" cy="448" r="4" fill="#d8c8a8"/><rect width="512" height="512" fill="url(#wv)"/></svg>