<svg xmlns="http://www.w3.org/2000/svg" width="512" height="512" viewBox="0 0 512 512"><defs><pattern id="wv" width="6" height="6" patternUnits="userSpaceOnUse"><line x1="0" y1="3" x2="6" y2="3" stroke="#000" stroke-opacity="0.05" stroke-width="1"/><line x1="3" y1="0" x2="3" y2="6" stroke="#fff" stroke-opacity="0.04" stroke-width="1"/></pattern></defs><rect width="512" height="512" fill="#95845c"/><circle cx="-128" cy="-128" r="64" fill="none" stroke="#7d6c46" stroke-width="3"/><circle cx="-64" cy="-64" r="64" fill="none" stroke="#7d6c46" stroke-width="3"/><circle cx="-128" cy="0" r="64" fill="none" stroke="#7d6c46" stroke-width="3"/><circle cx="-64" cy="64" r="64" fill="none" stroke="#7d6c46" stroke-width="3"/><circle cx="-128" cy="128" r="64" fill="none" stroke="#7d6c46" stroke-width="3"/><circle cx="-64" cy="192" r="64" fill="none" stroke="#7d6c46" stroke-width="3"/><circle cx="-128" cy="256" r="64" fill="none" stroke="#7d6c46" stroke-width="3"/><circle cx="-64" cy="320" r="64" fill="none" stroke="#7d6c46" stroke-width="3"/><circle cx="-128" cy="384" r="64" fill="none" stroke="#7d6c46" stroke-width="3"/><circle cx="-64" cy="448" r="64" fill="none" stroke="#7d6c46" stroke-width="3"/><circle cx="-128" cy="512" r="64" fill="none" stroke="#7d6c46" stroke-width="3"/><circle cx="-64" cy="576" r="64" fill="none" stroke="#7d6c46" stroke-width="3"/><circle cx="-128" cy="640" r="64" fill="none" stroke="#7d6c46" stroke-width="3"/><circle cx="-64" cy="704" r="64" fill="none" stroke="#7d6c46" stroke-width="3"/><circle cx="0" cy="-128" r="64" fill="none" stroke="#7d6c46" stroke-width="3"/><circle cx="64" cy="-64" r="64" fill="none" stroke="#7d6c46" stroke-width="3"/><circle cx="0" cy="0" r="64" fill="none" stroke="#7d6c46" stroke-width="3"/><circle cx="64" cy="64" r="64" fill="none" stroke="#7d6c46" stroke-width="3"/><circle cx="0" cy="128" r="64" fill="none" stroke="#7d6c46" stroke-width="3"/><circle cx="64" cy="192" r="64" fill="none" stroke="#7d6c46" stroke-width="3"/><circle cx="0" cy="256" r="64" fill="none" stroke="#7d6c46" stroke-width="3"/><circle cx="64" cy="320" r="64" fill="none" stroke="#7d6c46" stroke-width="3"/><circle cx="0" cy="384" r="64" fill="none" stroke="#7d6c46" stroke-width="3"/><circle cx="64" cy="448" r="64" fill="none" stroke="#7d6c46" stroke-width="3"/><circle cx="0" cy="512" r="64" fill="none" stroke="#7d6c46" stroke-width="3"/><circle cx="64" cy="576" r="64" fill="none" stroke="#7d6c46" stroke-width="3"/><circle cx="0" cy="640" r="64" fill="none" stroke="#7d6c46" stroke-width="3"/><circle cx="64" cy="704" r="64" fill="none" stroke="#7d6c46" stroke-width="3"/><circle cx="128" cy="-128" r="64" fill="none" stroke="#7d6c46" stroke-width="3"/><circle cx="192" cy="-64" r="64" fill="none" stroke="#7d6c46" stroke-width="3"/><circle cx="128" cy="0" r="64" fill="none" stroke="#7d6c46" stroke-width="3"/><circle cx="192" cy="64" r="64" fill="none" stroke="#7d6c46" stroke-width="3"/><circle cx="128" cy="128" r="64" fill="none" stroke="#7d6c46" stroke-width="3"/><circle cx="192" cy="192" r="64" fill="none" stroke="#7d6c46" stroke-width="3"/><circle cx="128" cy="256" r="64" fill="none" stroke="#7d6c46" stroke-width="3"/><circle cx="192" cy="320" r="64" fill="none" stroke="#7d6c46" stroke-width="3"/><circle cx="128" cy="384" r="64" fill="none" stroke="#7d6c46" stroke-width="3"/><circle cx="192" cy="448" r="64" fill="none" stroke="#7d6c46" stroke-width="3"/><circle cx="128" cy="512" r="64" fill="none" stroke="#7d6c46" stroke-width="3"/><circle cx="192" cy="576" r="64" fill="none" stroke="#7d6c46" stroke-width="3"/><circle cx="128" cy="640" r="64" fill="none" stroke="#7d6c46" stroke-width="3"/><circle cx="192" cy="704" r="64" fill="none" stroke="#7d6c46" stroke-width="3"/><circle cx="256" cy="-128" r="64" fill="none" stroke="#7d6c46" stroke-width="3"/><circle cx="320" cy="-64" r="64" fill="none" stroke="#7d6c46" stroke-width="3"/><circle cx="256" cy="0" r="64" fill="none" stroke="#7d6c46" stroke-width="3"/><circle cx="320" cy="64" r="64" fill="none" stroke="#7d6c46" stroke-width="3"/><circle cx="256" cy="128" r="64" fill="none" stroke="#7d6c46" stroke-width="3"/><circle cx="320" cy="192" r="64" fill="none" stroke="#7d6c46" stroke-width="3"/><circle cx="256" cy="256" r="64" fill="none" stroke="#7d6c46" stroke-width="3"/><circle cx="320" cy="320" r="64" fill="none" stroke="#7d6c46" stroke-width="3"/><circle cx="256" cy="384" r="64" fill="none" stroke="#7d6c46" stroke-width="3"/><circle cx="320" cy="448" r="64" fill="none" stroke="#7d6c46" stroke-width="3"/><circle cx="256" cy="512" r="64" fill="none" stroke="#7d6c46" stroke-width="3"/><circle cx="320" cy="576" r="64" fill="none" stroke="#7d6c46" stroke-width="3"/><circle cx="256" cy="640" r="64" fill="none" stroke="#7d6c46" stroke-width="3"/><circle cx="320" cy="704" r="64" fill="none" stroke="#7d6c46" stroke-width="3"/><circle cx="384" cy="-128" r="64" fill="none" stroke="#7d6c46" stroke-width="3"/><circle cx="448" cy="-64" r="64" fill="none" stroke="#7d6c46" stroke-width="3"/><circle cx="384" cy="0" r="64" fill="none" stroke="#7d6c46" stroke-width="3"/><circle cx="448" cy="64" r="64" fill="none" stroke="#7d6c46" stroke-width="3"/><circle cx="384" cy="128" r="64" fill="none" stroke="#7d6c46" stroke-width="3"/><circle cx="448" cy="192" r="64" fill="none" stroke="#7d6c46" stroke-width="3"/><circle cx="384" cy="256" r="64" fill="none" stroke="#7d6c46" stroke-width="3"/><circle cx="448" cy="320" r="64" fill="none" stroke="#7d6c46" stroke-width="3"/><circle cx="384" cy="384" r="64" fill="none" stroke="#7d6c46" stroke-width="3"/><circle cx="448" cy="448" r="64" fill="none" stroke="#7d6c46" stroke-width="3"/><circle cx="384" cy="512" r="64" fill="none" stroke="#7d6c46" stroke-width="3"/><circle cx="448" cy="576" r="64" fill="none" stroke="#7d6c46" stroke-width="3"/><circle cx="384" cy="640" r="64" fill="none" stroke="#7d6c46" stroke-width="3"/><circle cx="448" cy="704" r="64" fill="none" stroke="#7d6c46" stroke-width="3"/><circle cx="512" cy="-128" r="64" fill="none" stroke="#7d6c46" stroke-width="3"/><circle cx="576" cy="-64" r="64" fill="none" stroke="#7d6c46" stroke-width="3"/><circle cx="512" cy="0" r="64" fill="none" stroke="#7d6c46" stroke-width="3"/><circle cx="576" cy="64" r="64" fill="none" stroke="#7d6c46" stroke-width="3"/><circle cx="512" cy="128" r="64" fill="none" stroke="#7d6c46" stroke-width="3"/><circle cx="576" cy="192" r="64" fill="none" stroke="#7d6c46" stroke-width="3"/><circle cx="512" cy="256" r="64" fill="none" stroke="#7d6c46" stroke-width="3"/><circle cx="576" cy="320" r="64" fill="none" stroke="#7d6c46" stroke-width="3"/><circle cx="512" cy="384" r="64" fill="none" stroke="#7d6c46" stroke-width="3"/><circle cx="576" cy="448" r="64" fill="none" stroke="#7d6c46" stroke-width="3"/><circle cx="512" cy="512" r="64" fill="none" stroke="#7d6c46" stroke-width="3"/><circle cx="576" cy="576" r="64" fill="none" stroke="#7d6c46" stroke-width="3"/><circle cx="512" cy="640" r="64" fill="none" stroke="#7d6c46" stroke-width="3"/><circle cx="576" cy="704" r="64" fill="none" stroke="#7d6c46" stroke-width="3"/><circle cx="640" cy="-128" r="64" fill="none" stroke="#7d6c46" stroke-width="3"/><circle cx="704" cy="-64" r="64" fill="none" stroke="#7d6c46" stroke-width="3"/><circle cx="640" cy="0" r="64" fill="none" stroke="#7d6c46" stroke-width="3"/><circle cx="704" cy="64" r="64" fill="none" stroke="#7d6c46" stroke-width="3"/><circle cx="640" cy="128" r="64" fill="none" stroke="#7d6c46" stroke-width="3"/><circle cx="704" cy="192" r="64" fill="none" stroke="#7d6c46" stroke-width="3"/><circle cx="640" cy="256" r="64" fill="none" stroke="#7d6c46" stroke-width="3"/><circle cx="704" cy="320" r="64" fill="none" stroke="#7d6c46" stroke-width="3"/><circle cx="640" cy="384" r="64" fill="none" stroke="#7d6c46" stroke-width="3"/><circle cx="704" cy="448" r="64" fill="none" stroke="#7d6c46" stroke-width="3"/><circle cx="640" cy="512" r="64" fill="none" stroke="#7d6c46" stroke-width="3"/><circle cx="704" cy="576" r="64" fill="none" stroke="#7d6c46" stroke-width="3"/><circle cx="640" cy="640" r="64" fill="none" stroke="#7d6c46" stroke-width="3"/><circle cx="704" cy="704" r="64" fill="none" stroke="#7d6c46" stroke-width="3"/><rect width="512" height="512" fill="url(#wv)"/></svg>