<svg xmlns="http://www.w3.org/2000/svg" width="512" height="480" viewBox="0 0 512 480"><defs><pattern id="wv" width="6" height="6" patternUnits="userSpaceOnUse"><line x1="0" y1="3" x2="6" y2="3" stroke="#000" stroke-opacity="0.05" stroke-width="1"/><line x1="3" y1="0" x2="3" y2="6" stroke="#fff" stroke-opacity="0.04" stroke-width="1"/></pattern></defs><rect width="512" height="480" fill="#b88a33"/><polygon points="0,-80 32,-64 32,-32 0,-16 -32,-32 -32,-64" fill="none" stroke="#8a6520" stroke-width="4"/><polygon points="0,-70 22,-59 22,-37 0,-26 -22,-37 -22,-59" fill="none" stroke="#8a6520" stroke-width="1.5"/><circle cx="0" cy="-48" r="4" fill="#8a6520"/><polygon points="64,-80 96,-64 96,-32 64,-16 32,-32 32,-64" fill="none" stroke="#8a6520" stroke-width="4"/><polygon points="64,-70 86,-59 86,-37 64,-26 42,-37 42,-59" fill="none" stroke="#8a6520" stroke-width="1.5"/><circle cx="64" cy="-48" r="4" fill="#8a6520"/><polygon points="128,-80 160,-64 160,-32 128,-16 96,-32 96,-64" fill="none" stroke="#8a6520" stroke-width="4"/><polygon points="128,-70 150,-59 150,-37 128,-26 106,-37 106,-59" fill="none" stroke="#8a6520" stroke-width="1.5"/><circle cx="128" cy="-48" r="4" fill="#8a6520"/><polygon points="192,-80 224,-64 224,-32 192,-16 160,-32 160,-64" fill="none" stroke="#8a6520" stroke-width="4"/><polygon points="192,-70 214,-59 214,-37 192,-26 170,-37 170,-59" fill="none" stroke="#8a6520" stroke-width="1.5"/><circle cx="192" cy="-48" r="4" fill="#8a6520"/><polygon points="256,-80 288,-64 288,-32 256,-16 224,-32 224,-64" fill="none" stroke="#8a6520" stroke-width="4"/><polygon points="256,-70 278,-59 278,-37 256,-26 234,-37 234,-59" fill="none" stroke="#8a6520" stroke-width="1.5"/><circle cx="256" cy="-48" r="4" fill="#8a6520"/><polygon points="320,-80 352,-64 352,-32 320,-16 288,-32 288,-64" fill="none" stroke="#8a6520" stroke-width="4"/><polygon points="320,-70 342,-59 342,-37 320,-26 298,-37 298,-59" fill="none" stroke="#8a6520" stroke-width="1.5"/><circle cx="320" cy="-48" r="4" fill="#8a6520"/><polygon points="384,-80 416,-64 416,-32 384,-16 352,-32 352,-64" fill="none" stroke="#8a6520" stroke-width="4"/><polygon points="384,-70 406,-59 406,-37 384,-26 362,-37 362,-59" fill="none" stroke="#8a6520" stroke-width="1.5"/><circle cx="384" cy="-48" r="4" fill="#8a6520"/><polygon points="448,-80 480,-64 480,-32 448,-16 416,-32 416,-64" fill="none" stroke="#8a6520" stroke-width="4"/><polygon points="448,-70 470,-59 470,-37 448,-26 426,-37 426,-59" fill="none" stroke="#8a6520" stroke-width="1.5"/><circle cx="448" cy="-48" r="4" fill="#8a6520"/><polygon points="512,-80 544,-64 544,-32 512,-16 480,-32 480,-64" fill="none" stroke="#8a6520" stroke-width="4"/><polygon points="512,-70 534,-59 534,-37 512,-26 490,-37 490,-59" fill="none" stroke="#8a6520" stroke-width="1.5"/><circle cx="512" cy="-48" r="4" fill="#8a6520"/><polygon points="576,-80 608,-64 608,-32 576,-16 544,-32 544,-64" fill="none" stroke="#8a6520" stroke-width="4"/><polygon points="576,-70 598,-59 598,-37 576,-26 554,-37 554,-59" fill="none" stroke="#8a6520" stroke-width="1.5"/><circle cx="576" cy="-48" r="4" fill="#8a6520"/><polygon points="640,-80 672,-64 672,-32 640,-16 608,-32 608,-64" fill="none" stroke="#8a6520" stroke-width="4"/><polygon points="640,-70 662,-59 662,-37 640,-26 618,-37 618,-59" fill="none" stroke="#8a6520" stroke-width="1.5"/><circle cx="640" cy="-48" r="4" fill="#8a6520"/><polygon points="-32,-32 0,-16 0,16 -32,32 -64,16 -64,-16" fill="none" stroke="#8a6520" stroke-width="4"/><polygon points="-32,-22 -10,-11 -10,11 -32,22 -54,11 -54,-11" fill="none" stroke="#8a6520" stroke-width="1.5"/><circle cx="-32" cy="0" r="4" fill="#8a6520"/><polygon points="32,-32 64,-16 64,16 32,32 0,16 0,-16" fill="none" stroke="#8a6520" stroke-width="4"/><polygon points="32,-22 54,-11 54,11 32,22 10,11 10,-11" fill="none" stroke="#8a6520" stroke-width="1.5"/><circle cx="32" cy="0" r="4" fill="#8a6520"/><polygon points="96,-32 128,-16 128,16 96,32 64,16 64,-16" fill="none" stroke="#8a6520" stroke-width="4"/><polygon points="96,-22 118,-11 118,11 96,22 74,11 74,-11" fill="none" stroke="#8a6520" stroke-width="1.5"/><circle cx="96" cy="0" r="4" fill="#8a6520"/><polygon points="160,-32 192,-16 192,16 160,32 128,16 128,-16" fill="none" stroke="#8a6520" stroke-width="4"/><polygon points="160,-22 182,-11 182,11 160,22 138,11 138,-11" fill="none" stroke="#8a6520" stroke-width="1.5"/><circle cx="160" cy="0" r="4" fill="#8a6520"/><polygon points="224,-32 256,-16 256,16 224,32 192,16 192,-16" fill="none" stroke="#8a6520" stroke-width="4"/><polygon points="224,-22 246,-11 246,11 224,22 202,11 202,-11" fill="none" stroke="#8a6520" stroke-width="1.5"/><circle cx="224" cy="0" r="4" fill="#8a6520"/><polygon points="288,-32 320,-16 320,16 288,32 256,16 256,-16" fill="none" stroke="#8a6520" stroke-width="4"/><polygon points="288,-22 310,-11 310,11 288,22 266,11 266,-11" fill="none" stroke="#8a6520" stroke-width="1.5"/><circle cx="288" cy="0" r="4" fill="#8a6520"/><polygon points="352,-32 384,-16 384,16 352,32 320,16 320,-16" fill="none" stroke="#8a6520" stroke-width="4"/><polygon points="352,-22 374,-11 374,11 352,22 330,11 330,-11" fill="none" stroke="#8a6520" stroke-width="1.5"/><circle cx="352" cy="0" r="4" fill="#8a6520"/><polygon points="416,-32 448,-16 448,16 416,32 384,16 384,-16" fill="none" stroke="#8a6520" stroke-width="4"/><polygon points="416,-22 438,-11 438,11 416,22 394,11 394,-11" fill="none" stroke="#8a6520" stroke-width="1.5"/><circle cx="416" cy="0" r="4" fill="#8a6520"/><polygon points="480,-32 512,-16 512,16 480,32 448,16 448,-16" fill="none" stroke="#8a6520" stroke-width="4"/><polygon points="480,-22 502,-11 502,11 480,22 458,11 458,-11" fill="none" stroke="#8a6520" stroke-width="1.5"/><circle cx="480" cy="0" r="4" fill="#8a6520"/><polygon points="544,-32 576,-16 576,16 544,32 512,16 512,-16" fill="none" stroke="#8a6520" stroke-width="4"/><polygon points="544,-22 566,-11 566,11 544,22 522,11 522,-11" fill="none" stroke="#8a6520" stroke-width="1.5"/><circle cx="544" cy="0" r="4" fill="#8a6520"/><polygon points="608,-32 640,-16 640,16 608,32 576,16 576,-16" fill="none" stroke="#8a6520" stroke-width="4"/><polygon points="608,-22 630,-11 630,11 608,22 586,11 586,-11" fill="none" stroke="#8a6520" stroke-width="1.5"/><circle cx="608" cy="0" r="4" fill="#8a6520"/><polygon points="0,16 32,32 32,64 0,80 -32,64 -32,32" fill="none" stroke="#8a6520" stroke-width="4"/><polygon points="0,26 22,37 22,59 0,70 -22,59 -22,37" fill="none" stroke="#8a6520" stroke-width="1.5"/><circle cx="0" cy="48" r="4" fill="#8a6520"/><polygon points="64,16 96,32 96,64 64,80 32,64 32,32" fill="none" stroke="#8a6520" stroke-width="4"/><polygon points="64,26 86,37 86,59 64,70 42,59 42,37" fill="none" stroke="#8a6520" stroke-width="1.5"/><circle cx="64" cy="48" r="4" fill="#8a6520"/><polygon points="128,16 160,32 160,64 128,80 96,64 96,32" fill="none" stroke="#8a6520" stroke-width="4"/><polygon points="128,26 150,37 150,59 128,70 106,59 106,37" fill="none" stroke="#8a6520" stroke-width="1.5"/><circle cx="128" cy="48" r="4" fill="#8a6520"/><polygon points="192,16 224,32 224,64 192,80 160,64 160,32" fill="none" stroke="#8a6520" stroke-width="4"/><polygon points="192,26 214,37 214,59 192,70 170,59 170,37" fill="none" stroke="#8a6520" stroke-width="1.5"/><circle cx="192" cy="48" r="4" fill="#8a6520"/><polygon points="256,16 288,32 288,64 256,80 224,64 224,32" fill="none" stroke="#8a6520" stroke-width="4"/><polygon points="256,26 278,37 278,59 256,70 234,59 234,37" fill="none" stroke="#8a6520" stroke-width="1.5"/><circle cx="256" cy="48" r="4" fill="#8a6520"/><polygon points="320,16 352,32 352,64 320,80 288,64 288,32" fill="none" stroke="#8a6520" stroke-width="4"/><polygon points="320,26 342,37 342,59 320,70 298,59 298,37" fill="none" stroke="#8a6520" stroke-width="1.5"/><circle cx="320" cy="48" r="4" fill="#8a6520"/><polygon points="384,16 416,32 416,64 384,80 352,64 352,32" fill="none" stroke="#8a6520" stroke-width="4"/><polygon points="384,26 406,37 406,59 384,70 362,59 362,37" fill="none" stroke="#8a6520" stroke-width="1.5"/><circle cx="384" cy="48" r="4" fill="#8a6520"/><polygon points="448,16 480,32 480,64 448,80 416,64 416,32" fill="none" stroke="#8a6520" stroke-width="4"/><polygon points="448,26 470,37 470,59 448,70 426,59 426,37" fill="none" stroke="#8a6520" stroke-width="1.5"/><circle cx="448" cy="48" r="4" fill="#8a6520"/><polygon points="512,16 544,32 544,64 512,80 480,64 480,32" fill="none" stroke="#8a6520" stroke-width="4"/><polygon points="512,26 534,37 534,59 512,70 490,59 490,37" fill="none" stroke="#8a6520" stroke-width="1.5"/><circle cx="512" cy="48" r="4" fill="#8a6520"/><polygon points="576,16 608,32 608,64 576,80 544,64 544,32" fill="none" stroke="#8a6520" stroke-width="4"/><polygon points="576,26 598,37 598,59 576,70 554,59 554,37" fill="none" stroke="#8a6520" stroke-width="1.5"/><circle cx="576" cy="48" r="4" fill="#8a6520"/><polygon points="640,16 672,32 672,64 640,80 608,64 608,32" fill="none" stroke="#8a6520" stroke-width="4"/><polygon points="640,26 662,37 662,59 640,70 618,59 618,37" fill="none" stroke="#8a6520" stroke-width="1.5"/><circle cx="640" cy="48" r="4" fill="#8a6520"/><polygon points="-32,64 0,80 0,112 -32,128 -64,112 -64,80" fill="none" stroke="#8a6520" stroke-width="4"/><polygon points="-32,74 -10,85 -10,107 -32,118 -54,107 -54,85" fill="none" stroke="#8a6520" stroke-width="1.5"/><circle cx="-32" cy="96" r="4" fill="#8a6520"/><polygon points="32,64 64,80 64,112 32,128 0,112 0,80" fill="none" stroke="#8a6520" stroke-width="4"/><polygon points="32,74 54,85 54,107 32,118 10,107 10,85" fill="none" stroke="#8a6520" stroke-width="1.5"/><circle cx="32" cy="96" r="4" fill="#8a6520"/><polygon points="96,64 128,80 128,112 96,128 64,112 64,80" fill="none" stroke="#8a6520" stroke-width="4"/><polygon points="96,74 118,85 118,107 96,118 74,107 74,85" fill="none" stroke="#8a6520" stroke-width="1.5"/><circle cx="96" cy="96" r="4" fill="#8a6520"/><polygon points="160,64 192,80 192,112 160,128 128,112 128,80" fill="none" stroke="#8a6520" stroke-width="4"/><polygon points="160,74 182,85 182,107 160,118 138,107 138,85" fill="none" stroke="#8a6520" stroke-width="1.5"/><circle cx="160" cy="96" r="4" fill="#8a6520"/><polygon points="224,64 256,80 256,112 224,128 192,112 192,80" fill="none" stroke="#8a6520" stroke-width="4"/><polygon points="224,74 246,85 246,107 224,118 202,107 202,85" fill="none" stroke="#8a6520" stroke-width="1.5"/><circle cx="224" cy="96" r="4" fill="#8a6520"/><polygon points="288,64 320,80 320,112 288,128 256,112 256,80" fill="none" stroke="#8a6520" stroke-width="4"/><polygon points="288,74 310,85 310,107 288,118 266,107 266,85" fill="none" stroke="#8a6520" stroke-width="1.5"/><circle cx="288" cy="96" r="4" fill="#8a6520"/><polygon points="352,64 384,80 384,112 352,128 320,112 320,80" fill="none" stroke="#8a6520" stroke-width="4"/><polygon points="352,74 374,85 374,107 352,118 330,107 330,85" fill="none" stroke="#8a6520" stroke-width="1.5"/><circle cx="352" cy="96" r="4" fill="#8a6520"/><polygon points="416,64 448,80 448,112 416,128 384,112 384,80" fill="none" stroke="#8a6520" stroke-width="4"/><polygon points="416,74 438,85 438,107 416,118 394,107 394,85" fill="none" stroke="#8a6520" stroke-width="1.5"/><circle cx="416" cy="96" r="4" fill="#8a6520"/><polygon points="480,64 512,80 512,112 480,128 448,112 448,80" fill="none" stroke="#8a6520" stroke-width="4"/><polygon points="480,74 502,85 502,107 480,118 458,107 458,85" fill="none" stroke="#8a6520" stroke-width="1.5"/><circle cx="480" cy="96" r="4" fill="#8a6520"/><polygon points="544,64 576,80 576,112 544,128 512,112 512,80" fill="none" stroke="#8a6520" stroke-width="4"/><polygon points="544,74 566,85 566,107 544,118 522,107 522,85" fill="none" stroke="#8a6520" stroke-width="1.5"/><circle cx="544" cy="96" r="4" fill="#8a6520"/><polygon points="608,64 640,80 640,112 608,128 576,112 576,80" fill="none" stroke="#8a6520" stroke-width="4"/><polygon points="608,74 630,85 630,107 608,118 586,107 586,85" fill="none" stroke="#8a6520" stroke-width="1.5"/><circle cx="608" cy="96" r="4" fill="#8a6520"/><polygon points="0,112 32,128 32,160 0,176 -32,160 -32,128" fill="none" stroke="#8a6520" stroke-width="4"/><polygon points="0,122 22,133 22,155 0,166 -22,155 -22,133" fill="none" stroke="#8a6520" stroke-width="1.5"/><circle cx="0" cy="144" r="4" fill="#8a6520"/><polygon points="64,112 96,128 96,160 64,176 32,160 32,128" fill="none" stroke="#8a6520" stroke-width="4"/><polygon points="64,122 86,133 86,155 64,166 42,155 42,133" fill="none" stroke="#8a6520" stroke-width="1.5"/><circle cx="64" cy="144" r="4" fill="#8a6520"/><polygon points="128,112 160,128 160,160 128,176 96,160 96,128" fill="none" stroke="#8a6520" stroke-width="4"/><polygon points="128,122 150,133 150,155 128,166 106,155 106,133" fill="none" stroke="#8a6520" stroke-width="1.5"/><circle cx="128" cy="144" r="4" fill="#8a6520"/><polygon points="192,112 224,128 224,160 192,176 160,160 160,128" fill="none" stroke="#8a6520" stroke-width="4"/><polygon points="192,122 214,133 214,155 192,166 170,155 170,133" fill="none" stroke="#8a6520" stroke-width="1.5"/><circle cx="192" cy="144" r="4" fill="#8a6520"/><polygon points="256,112 288,128 288,160 256,176 224,160 224,128" fill="none" stroke="#8a6520" stroke-width="4"/><polygon points="256,122 278,133 278,155 256,166 234,155 234,133" fill="none" stroke="#8a6520" stroke-width="1.5"/><circle cx="256" cy="144" r="4" fill="#8a6520"/><polygon points="320,112 352,128 352,160 320,176 288,160 288,128" fill="none" stroke="#8a6520" stroke-width="4"/><polygon points="320,122 342,133 342,155 320,166 298,155 298,133" fill="none" stroke="#8a6520" stroke-width="1.5"/><circle cx="320" cy="144" r="4" fill="#8a6520"/><polygon points="384,112 416,128 416,160 384,176 352,160 352,128" fill="none" stroke="#8a6520" stroke-width="4"/><polygon points="384,122 406,133 406,155 384,166 362,155 362,133" fill="none" stroke="#8a6520" stroke-width="1.5"/><circle cx="384" cy="144" r="4" fill="#8a6520"/><polygon points="448,112 480,128 480,160 448,176 416,160 416,128" fill="none" stroke="#8a6520" stroke-width="4"/><polygon points="448,122 470,133 470,155 448,166 426,155 426,133" fill="none" stroke="#8a6520" stroke-width="1.5"/><circle cx="448" cy="144" r="4" fill="#8a6520"/><polygon points="512,112 544,128 544,160 512,176 480,160 480,128" fill="none" stroke="#8a6520" stroke-width="4"/><polygon points="512,122 534,133 534,155 512,166 490,155 490,133" fill="none" stroke="#8a6520" stroke-width="1.5"/><circle cx="512" cy="144" r="4" fill="#8a6520"/><polygon points="576,112 608,128 608,160 576,176 544,160 544,128" fill="none" stroke="#8a6520" stroke-width="4"/><polygon points="576,122 598,133 598,155 576,166 554,155 554,133" fill="none" stroke="#8a6520" stroke-width="1.5"/><circle cx="576" cy="144" r="4" fill="#8a6520"/><polygon points="640,112 672,128 672,160 640,176 608,160 608,128" fill="none" stroke="#8a6520" stroke-width="4"/><polygon points="640,122 662,133 662,155 640,166 618,155 618,133" fill="none" stroke="#8a6520" stroke-width="1.5"/><circle cx="640" cy="144" r="4" fill="#8a6520"/><polygon points="-32,160 0,176 0,208 -32,224 -64,208 -64,176" fill="none" stroke="#8a6520" stroke-width="4"/><polygon points="-32,170 -10,181 -10,203 -32,214 -54,203 -54,181" fill="none" stroke="#8a6520" stroke-width="1.5"/><circle cx="-32" cy="192" r="4" fill="#8a6520"/><polygon points="32,160 64,176 64,208 32,224 0,208 0,176" fill="none" stroke="#8a6520" stroke-width="4"/><polygon points="32,170 54,181 54,203 32,214 10,203 10,181" fill="none" stroke="#8a6520" stroke-width="1.5"/><circle cx="32" cy="192" r="4" fill="#8a6520"/><polygon points="96,160 128,176 128,208 96,224 64,208 64,176" fill="none" stroke="#8a6520" stroke-width="4"/><polygon points="96,170 118,181 118,203 96,214 74,203 74,181" fill="none" stroke="#8a6520" stroke-width="1.5"/><circle cx="96" cy="192" r="4" fill="#8a6520"/><polygon points="160,160 192,176 192,208 160,224 128,208 128,176" fill="none" stroke="#8a6520" stroke-width="4"/><polygon points="160,170 182,181 182,203 160,214 138,203 138,181" fill="none" stroke="#8a6520" stroke-width="1.5"/><circle cx="160" cy="192" r="4" fill="#8a6520"/><polygon points="224,160 256,176 256,208 224,224 192,208 192,176" fill="none" stroke="#8a6520" stroke-width="4"/><polygon points="224,170 246,181 246,203 224,214 202,203 202,181" fill="none" stroke="#8a6520" stroke-width="1.5"/><circle cx="224" cy="192" r="4" fill="#8a6520"/><polygon points="288,160 320,176 320,208 288,224 256,208 256,176" fill="none" stroke="#8a6520" stroke-width="4"/><polygon points="288,170 310,181 310,203 288,214 266,203 266,181" fill="none" stroke="#8a6520" stroke-width="1.5"/><circle cx="288" cy="192" r="4" fill="#8a6520"/><polygon points="352,160 384,176 384,208 352,224 320,208 320,176" fill="none" stroke="#8a6520" stroke-width="4"/><polygon points="352,170 374,181 374,203 352,214 330,203 330,181" fill="none" stroke="#8a6520" stroke-width="1.5"/><circle cx="352" cy="192" r="4" fill="#8a6520"/><polygon points="416,160 448,176 448,208 416,224 384,208 384,176" fill="none" stroke="#8a6520" stroke-width="4"/><polygon points="416,170 438,181 438,203 416,214 394,203 394,181" fill="none" stroke="#8a6520" stroke-width="1.5"/><circle cx="416" cy="192" r="4" fill="#8a6520"/><polygon points="480,160 512,176 512,208 480,224 448,208 448,176" fill="none" stroke="#8a6520" stroke-width="4"/><polygon points="480,170 502,181 502,203 480,214 458,203 458,181" fill="none" stroke="#8a6520" stroke-width="1.5"/><circle cx="480" cy="192" r="4" fill="#8a6520"/><polygon points="544,160 576,176 576,208 544,224 512,208 512,176" fill="none" stroke="#8a6520" stroke-width="4"/><polygon points="544,170 566,181 566,203 544,214 522,203 522,181" fill="none" stroke="#8a6520" stroke-width="1.5"/><circle cx="544" cy="192" r="4" fill="#8a6520"/><polygon points="608,160 640,176 640,208 608,224 576,208 576,176" fill="none" stroke="#8a6520" stroke-width="4"/><polygon points="608,170 630,181 630,203 608,214 586,203 586,181" fill="none" stroke="#8a6520" stroke-width="1.5"/><circle cx="608" cy="192" r="4" fill="#8a6520"/><polygon points="0,208 32,224 32,256 0,272 -32,256 -32,224" fill="none" stroke="#8a6520" stroke-width="4"/><polygon points="0,218 22,229 22,251 0,262 -22,251 -22,229" fill="none" stroke="#8a6520" stroke-width="1.5"/><circle cx="0" cy="240" r="4" fill="#8a6520"/><polygon points="64,208 96,224 96,256 64,272 32,256 32,224" fill="none" stroke="#8a6520" stroke-width="4"/><polygon points="64,218 86,229 86,251 64,262 42,251 42,229" fill="none" stroke="#8a6520" stroke-width="1.5"/><circle cx="64" cy="240" r="4" fill="#8a6520"/><polygon points="128,208 160,224 160,256 128,272 96,256 96,224" fill="none" stroke="#8a6520" stroke-width="4"/><polygon points="128,218 150,229 150,251 128,262 106,251 106,229" fill="none" stroke="#8a6520" stroke-width="1.5"/><circle cx="128" cy="240" r="4" fill="#8a6520"/><polygon points="192,208 224,224 224,256 192,272 160,256 160,224" fill="none" stroke="#8a6520" stroke-width="4"/><polygon points="192,218 214,229 214,251 192,262 170,251 170,229" fill="none" stroke="#8a6520" stroke-width="1.5"/><circle cx="192" cy="240" r="4" fill="#8a6520"/><polygon points="256,208 288,224 288,256 256,272 224,256 224,224" fill="none" stroke="#8a6520" stroke-width="4"/><polygon points="256,218 278,229 278,251 256,262 234,251 234,229" fill="none" stroke="#8a6520" stroke-width="1.5"/><circle cx="256" cy="240" r="4" fill="#8a6520"/><polygon points="320,208 352,224 352,256 320,272 288,256 288,224" fill="none" stroke="#8a6520" stroke-width="4"/><polygon points="320,218 342,229 342,251 320,262 298,251 298,229" fill="none" stroke="#8a6520" stroke-width="1.5"/><circle cx="320" cy="240" r="4" fill="#8a6520"/><polygon points="384,208 416,224 416,256 384,272 352,256 352,224" fill="none" stroke="#8a6520" stroke-width="4"/><polygon points="384,218 406,229 406,251 384,262 362,251 362,229" fill="none" stroke="#8a6520" stroke-width="1.5"/><circle cx="384" cy="240" r="4" fill="#8a6520"/><polygon points="448,208 480,224 480,256 448,272 416,256 416,224" fill="none" stroke="#8a6520" stroke-width="4"/><polygon points="448,218 470,229 470,251 448,262 426,251 426,229" fill="none" stroke="#8a6520" stroke-width="1.5"/><circle cx="448" cy="240" r="4" fill="#8a6520"/><polygon points="512,208 544,224 544,256 512,272 480,256 480,224" fill="none" stroke="#8a6520" stroke-width="4"/><polygon points="512,218 534,229 534,251 512,262 490,251 490,229" fill="none" stroke="#8a6520" stroke-width="1.5"/><circle cx="512" cy="240" r="4" fill="#8a6520"/><polygon points="576,208 608,224 608,256 576,272 544,256 544,224" fill="none" stroke="#8a6520" stroke-width="4"/><polygon points="576,218 598,229 598,251 576,262 554,251 554,229" fill="none" stroke="#8a6520" stroke-width="1.5"/><circle cx="576" cy="240" r="4" fill="#8a6520"/><polygon points="640,208 672,224 672,256 640,272 608,256 608,224" fill="none" stroke="#8a6520" stroke-width="4"/><polygon points="640,218 662,229 662,251 640,262 618,251 618,229" fill="none" stroke="#8a6520" stroke-width="1.5"/><circle cx="640" cy="240" r="4" fill="#8a6520"/><polygon points="-32,256 0,272 0,304 -32,320 -64,304 -64,272" fill="none" stroke="#8a6520" stroke-width="4"/><polygon points="-32,266 -10,277 -10,299 -32,310 -54,299 -54,277" fill="none" stroke="#8a6520" stroke-width="1.5"/><circle cx="-32" cy="288" r="4" fill="#8a6520"/><polygon points="32,256 64,272 64,304 32,320 0,304 0,272" fill="none" stroke="#8a6520" stroke-width="4"/><polygon points="32,266 54,277 54,299 32,310 10,299 10,277" fill="none" stroke="#8a6520" stroke-width="1.5"/><circle cx="32" cy="288" r="4" fill="#8a6520"/><polygon points="96,256 128,272 128,304 96,320 64,304 64,272" fill="none" stroke="#8a6520" stroke-width="4"/><polygon points="96,266 118,277 118,299 96,310 74,299 74,277" fill="none" stroke="#8a6520" stroke-width="1.5"/><circle cx="96" cy="288" r="4" fill="#8a6520"/><polygon points="160,256 192,272 192,304 160,320 128,304 128,272" fill="none" stroke="#8a6520" stroke-width="4"/><polygon points="160,266 182,277 182,299 160,310 138,299 138,277" fill="none" stroke="#8a6520" stroke-width="1.5"/><circle cx="160" cy="288" r="4" fill="#8a6520"/><polygon points="224,256 256,272 256,304 224,320 192,304 192,272" fill="none" stroke="#8a6520" stroke-width="4"/><polygon points="224,266 246,277 246,299 224,310 202,299 202,277" fill="none" stroke="#8a6520" stroke-width="1.5"/><circle cx="224" cy="288" r="4" fill="#8a6520"/><polygon points="288,256 320,272 320,304 288,320 256,304 256,272" fill="none" stroke="#8a6520" stroke-width="4"/><polygon points="288,266 310,277 310,299 288,310 266,299 266,277" fill="none" stroke="#8a6520" stroke-width="1.5"/><circle cx="288" cy="288" r="4" fill="#8a6520"/><polygon points="352,256 384,272 384,304 352,320 320,304 320,272" fill="none" stroke="#8a6520" stroke-width="4"/><polygon points="352,266 374,277 374,299 352,310 330,299 330,277" fill="none" stroke="#8a6520" stroke-width="1.5"/><circle cx="352" cy="288" r="4" fill="#8a6520"/><polygon points="416,256 448,272 448,304 416,320 384,304 384,272" fill="none" stroke="#8a6520" stroke-width="4"/><polygon points="416,266 438,277 438,299 416,310 394,299 394,277" fill="none" stroke="#8a6520" stroke-width="1.5"/><circle cx="416" cy="288" r="4" fill="#8a6520"/><polygon points="480,256 512,272 512,304 480,320 448,304 448,272" fill="none" stroke="#8a6520" stroke-width="4"/><polygon points="480,266 502,277 502,299 480,310 458,299 458,277" fill="none" stroke="#8a6520" stroke-width="1.5"/><circle cx="480" cy="288" r="4" fill="#8a6520"/><polygon points="544,256 576,272 576,304 544,320 512,304 512,272" fill="none" stroke="#8a6520" stroke-width="4"/><polygon points="544,266 566,277 566,299 544,310 522,299 522,277" fill="none" stroke="#8a6520" stroke-width="1.5"/><circle cx="544" cy="288" r="4" fill="#8a6520"/><polygon points="608,256 640,272 640,304 608,320 576,304 576,272" fill="none" stroke="#8a6520" stroke-width="4"/><polygon points="608,266 630,277 630,299 608,310 586,299 586,277" fill="none" stroke="#8a6520" stroke-width="1.5"/><circle cx="608" cy="288" r="4" fill="#8a6520"/><polygon points="0,304 32,320 32,352 0,368 -32,352 -32,320" fill="none" stroke="#8a6520" stroke-width="4"/><polygon points="0,314 22,325 22,347 0,358 -22,347 -22,325" fill="none" stroke="#8a6520" stroke-width="1.5"/><circle cx="0" cy="336" r="4" fill="#8a6520"/><polygon points="64,304 96,320 96,352 64,368 32,352 32,320" fill="none" stroke="#8a6520" stroke-width="4"/><polygon points="64,314 86,325 86,347 64,358 42,347 42,325" fill="none" stroke="#8a6520" stroke-width="1.5"/><circle cx="64" cy="336" r="4" fill="#8a6520"/><polygon points="128,304 160,320 160,352 128,368 96,352 96,320" fill="none" stroke="#8a6520" stroke-width="4"/><polygon points="128,314 150,325 150,347 128,358 106,347 106,325" fill="none" stroke="#8a6520" stroke-width="1.5"/><circle cx="128" cy="336" r="4" fill="#8a6520"/><polygon points="192,304 224,320 224,352 192,368 160,352 160,320" fill="none" stroke="#8a6520" stroke-width="4"/><polygon points="192,314 214,325 214,347 192,358 170,347 170,325" fill="none" stroke="#8a6520" stroke-width="1.5"/><circle cx="192" cy="336" r="4" fill="#8a6520"/><polygon points="256,304 288,320 288,352 256,368 224,352 224,320" fill="none" stroke="#8a6520" stroke-width="4"/><polygon points="256,314 278,325 278,347 256,358 234,347 234,325" fill="none" stroke="#8a6520" stroke-width="1.5"/><circle cx="256" cy="336" r="4" fill="#8a6520"/><polygon points="320,304 352,320 352,352 320,368 288,352 288,320" fill="none" stroke="#8a6520" stroke-width="4"/><polygon points="320,314 342,325 342,347 320,358 298,347 298,325" fill="none" stroke="#8a6520" stroke-width="1.5"/><circle cx="320" cy="336" r="4" fill="#8a6520"/><polygon points="384,304 416,320 416,352 384,368 352,352 352,320" fill="none" stroke="#8a6520" stroke-width="4"/><polygon points="384,314 406,325 406,347 384,358 362,347 362,325" fill="none" stroke="#8a6520" stroke-width="1.5"/><circle cx="384" cy="336" r="4" fill="#8a6520"/><polygon points="448,304 480,320 480,352 448,368 416,352 416,320" fill="none" stroke="#8a6520" stroke-width="4"/><polygon points="448,314 470,325 470,347 448,358 426,347 426,325" fill="none" stroke="#8a6520" stroke-width="1.5"/><circle cx="448" cy="336" r="4" fill="#8a6520"/><polygon points="512,304 544,320 544,352 512,368 480,352 480,320" fill="none" stroke="#8a6520" stroke-width="4"/><polygon points="512,314 534,325 534,347 512,358 490,347 490,325" fill="none" stroke="#8a6520" stroke-width="1.5"/><circle cx="512" cy="336" r="4" fill="#8a6520"/><polygon points="576,304 608,320 608,352 576,368 544,352 544,320" fill="none" stroke="#8a6520" stroke-width="4"/><polygon points="576,314 598,325 598,347 576,358 554,347 554,325" fill="none" stroke="#8a6520" stroke-width="1.5"/><circle cx="576" cy="336" r="4" fill="#8a6520"/><polygon points="640,304 672,320 672,352 640,368 608,352 608,320" fill="none" stroke="#8a6520" stroke-width="4"/><polygon points="640,314 662,325 662,347 640,358 618,347 618,325" fill="none" stroke="#8a6520" stroke-width="1.5"/><circle cx="640" cy="336" r="4" fill="#8a6520"/><polygon points="-32,352 0,368 0,400 -32,416 -64,400 -64,368" fill="none" stroke="#8a6520" stroke-width="4"/><polygon points="-32,362 -10,373 -10,395 -32,406 -54,395 -54,373" fill="none" stroke="#8a6520" stroke-width="1.5"/><circle cx="-32" cy="384" r="4" fill="#8a6520"/><polygon points="32,352 64,368 64,400 32,416 0,400 0,368" fill="none" stroke="#8a6520" stroke-width="4"/><polygon points="32,362 54,373 54,395 32,406 10,395 10,373" fill="none" stroke="#8a6520" stroke-width="1.5"/><circle cx="32" cy="384" r="4" fill="#8a6520"/><polygon points="96,352 128,368 128,400 96,416 64,400 64,368" fill="none" stroke="#8a6520" stroke-width="4"/><polygon points="96,362 118,373 118,395 96,406 74,395 74,373" fill="none" stroke="#8a6520" stroke-width="1.5"/><circle cx="96" cy="384" r="4" fill="#8a6520"/><polygon points="160,352 192,368 192,400 160,416 128,400 128,368" fill="none" stroke="#8a6520" stroke-width="4"/><polygon points="160,362 182,373 182,395 160,406 138,395 138,373" fill="none" stroke="#8a6520" stroke-width="1.5"/><circle cx="160" cy="384" r="4" fill="#8a6520"/><polygon points="224,352 256,368 256,400 224,416 192,400 192,368" fill="none" stroke="#8a6520" stroke-width="4"/><polygon points="224,362 246,373 246,395 224,406 202,395 202,373" fill="none" stroke="#8a6520" stroke-width="1.5"/><circle cx="224" cy="384" r="4" fill="#8a6520"/><polygon points="288,352 320,368 320,400 288,416 256,400 256,368" fill="none" stroke="#8a6520" stroke-width="4"/><polygon points="288,362 310,373 310,395 288,406 266,395 266,373" fill="none" stroke="#8a6520" stroke-width="1.5"/><circle cx="288" cy="384" r="4" fill="#8a6520"/><polygon points="352,352 384,368 384,400 352,416 320,400 320,368" fill="none" stroke="#8a6520" stroke-width="4"/><polygon points="352,362 374,373 374,395 352,406 330,395 330,373" fill="none" stroke="#8a6520" stroke-width="1.5"/><circle cx="352" cy="384" r="4" fill="#8a6520"/><polygon points="416,352 448,368 448,400 416,416 384,400 384,368" fill="none" stroke="#8a6520" stroke-width="4"/><polygon points="416,362 438,373 438,395 416,406 394,395 394,373" fill="none" stroke="#8a6520" stroke-width="1.5"/><circle cx="416" cy="384" r="4" fill="#8a6520"/><polygon points="480,352 512,368 512,400 480,416 448,400 448,368" fill="none" stroke="#8a6520" stroke-width="4"/><polygon points="480,362 502,373 502,395 480,406 458,395 458,373" fill="none" stroke="#8a6520" stroke-width="1.5"/><circle cx="480" cy="384" r="4" fill="#8a6520"/><polygon points="544,352 576,368 576,400 544,416 512,400 512,368" fill="none" stroke="#8a6520" stroke-width="4"/><polygon points="544,362 566,373 566,395 544,406 522,395 522,373" fill="none" stroke="#8a6520" stroke-width="1.5"/><circle cx="544" cy="384" r="4" fill="#8a6520"/><polygon points="608,352 640,368 640,400 608,416 576,400 576,368" fill="none" stroke="#8a6520" stroke-width="4"/><polygon points="608,362 630,373 630,395 608,406 586,395 586,373" fill="none" stroke="#8a6520" stroke-width="1.5"/><circle cx="608" cy="384" r="4" fill="#8a6520"/><polygon points="0,400 32,416 32,448 0,464 -32,448 -32,416" fill="none" stroke="#8a6520" stroke-width="4"/><polygon points="0,410 22,421 22,443 0,454 -22,443 -22,421" fill="none" stroke="#8a6520" stroke-width="1.5"/><circle cx="0" cy="432" r="4" fill="#8a6520"/><polygon points="64,400 96,416 96,448 64,464 32,448 32,416" fill="none" stroke="#8a6520" stroke-width="4"/><polygon points="64,410 86,421 86,443 64,454 42,443 42,421" fill="none" stroke="#8a6520" stroke-width="1.5"/><circle cx="64" cy="432" r="4" fill="#8a6520"/><polygon points="128,400 160,416 160,448 128,464 96,448 96,416" fill="none" stroke="#8a6520" stroke-width="4"/><polygon points="128,410 150,421 150,443 128,454 106,443 106,421" fill="none" stroke="#8a6520" stroke-width="1.5"/><circle cx="128" cy="432" r="4" fill="#8a6520"/><polygon points="192,400 224,416 224,448 192,464 160,448 160,416" fill="none" stroke="#8a6520" stroke-width="4"/><polygon points="192,410 214,421 214,443 192,454 170,443 170,421" fill="none" stroke="#8a6520" stroke-width="1.5"/><circle cx="192" cy="432" r="4" fill="#8a6520"/><polygon points="256,400 288,416 288,448 256,464 224,448 224,416" fill="none" stroke="#8a6520" stroke-width="4"/><polygon points="256,410 278,421 278,443 256,454 234,443 234,421" fill="none" stroke="#8a6520" stroke-width="1.5"/><circle cx="256" cy="432" r="4" fill="#8a6520"/><polygon points="320,400 352,416 352,448 320,464 288,448 288,416" fill="none" stroke="#8a6520" stroke-width="4"/><polygon points="320,410 342,421 342,443 320,454 298,443 298,421" fill="none" stroke="#8a6520" stroke-width="1.5"/><circle cx="320" cy="432" r="4" fill="#8a6520"/><polygon points="384,400 416,416 416,448 384,464 352,448 352,416" fill="none" stroke="#8a6520" stroke-width="4"/><polygon points="384,410 406,421 406,443 384,454 362,443 362,421" fill="none" stroke="#8a6520" stroke-width="1.5"/><circle cx="384" cy="432" r="4" fill="#8a6520"/><polygon points="448,400 480,416 480,448 448,464 416,448 416,416" fill="none" stroke="#8a6520" stroke-width="4"/><polygon points="448,410 470,421 470,443 448,454 426,443 426,421" fill="none" stroke="#8a6520" stroke-width="1.5"/><circle cx="448" cy="432" r="4" fill="#8a6520"/><polygon points="512,400 544,416 544,448 512,464 480,448 480,416" fill="none" stroke="#8a6520" stroke-width="4"/><polygon points="512,410 534,421 534,443 512,454 490,443 490,421" fill="none" stroke="#8a6520" stroke-width="1.5"/><circle cx="512" cy="432" r="4" fill="#8a6520"/><polygon points="576,400 608,416 608,448 576,464 544,448 544,416" fill="none" stroke="#8a6520" stroke-width="4"/><polygon points="576,410 598,421 598,443 576,454 554,443 554,421" fill="none" stroke="#8a6520" stroke-width="1.5"/><circle cx="576" cy="432" r="4" fill="#8a6520"/><polygon points="640,400 672,416 672,448 640,464 608,448 608,416" fill="none" stroke="#8a6520" stroke-width="4"/><polygon points="640,410 662,421 662,443 640,454 618,443 618,421" fill="none" stroke="#8a6520" stroke-width="1.5"/><circle cx="640" cy="432" r="4" fill="#8a6520"/><polygon points="-32,448 0,464 0,496 -32,512 -64,496 -64,464" fill="none" stroke="#8a6520" stroke-width="4"/><polygon points="-32,458 -10,469 -10,491 -32,502 -54,491 -54,469" fill="none" stroke="#8a6520" stroke-width="1.5"/><circle cx="-32" cy="480" r="4" fill="#8a6520"/><polygon points="32,448 64,464 64,496 32,512 0,496 0,464" fill="none" stroke="#8a6520" stroke-width="4"/><polygon points="32,458 54,469 54,491 32,502 10,491 10,469" fill="none" stroke="#8a6520" stroke-width="1.5"/><circle cx="32" cy="480" r="4" fill="#8a6520"/><polygon points="96,448 128,464 128,496 96,512 64,496 64,464" fill="none" stroke="#8a6520" stroke-width="4"/><polygon points="96,458 118,469 118,491 96,502 74,491 74,469" fill="none" stroke="#8a6520" stroke-width="1.5"/><circle cx="96" cy="480" r="4" fill="#8a6520"/><polygon points="160,448 192,464 192,496 160,512 128,496 128,464" fill="none" stroke="#8a6520" stroke-width="4"/><polygon points="160,458 182,469 182,491 160,502 138,491 138,469" fill="none" stroke="#8a6520" stroke-width="1.5"/><circle cx="160" cy="480" r="4" fill="#8a6520"/><polygon points="224,448 256,464 256,496 224,512 192,496 192,464" fill="none" stroke="#8a6520" stroke-width="4"/><polygon points="224,458 246,469 246,491 224,502 202,491 202,469" fill="none" stroke="#8a6520" stroke-width="1.5"/><circle cx="224" cy="480" r="4" fill="#8a6520"/><polygon points="288,448 320,464 320,496 288,512 256,496 256,464" fill="none" stroke="#8a6520" stroke-width="4"/><polygon points="288,458 310,469 310,491 288,502 266,491 266,469" fill="none" stroke="#8a6520" stroke-width="1.5"/><circle cx="288" cy="480" r="4" fill="#8a6520"/><polygon points="352,448 384,464 384,496 352,512 320,496 320,464" fill="none" stroke="#8a6520" stroke-width="4"/><polygon points="352,458 374,469 374,491 352,502 330,491 330,469" fill="none" stroke="#8a6520" stroke-width="1.5"/><circle cx="352" cy="480" r="4" fill="#8a6520"/><polygon points="416,448 448,464 448,496 416,512 384,496 384,464" fill="none" stroke="#8a6520" stroke-width="4"/><polygon points="416,458 438,469 438,491 416,502 394,491 394,469" fill="none" stroke="#8a6520" stroke-width="1.5"/><circle cx="416" cy="480" r="4" fill="#8a6520"/><polygon points="480,448 512,464 512,496 480,512 448,496 448,464" fill="none" stroke="#8a6520" stroke-width="4"/><polygon points="480,458 502,469 502,491 480,502 458,491 458,469" fill="none" stroke="#8a6520" stroke-width="1.5"/><circle cx="480" cy="480" r="4" fill="#8a6520"/><polygon points="544,448 576,464 576,496 544,512 512,496 512,464" fill="none" stroke="#8a6520" stroke-width="4"/><polygon points="544,458 566,469 566,491 544,502 522,491 522,469" fill="none" stroke="#8a6520" stroke-width="1.5"/><circle cx="544" cy="480" r="4" fill="#8a6520"/><polygon points="608,448 640,464 640,496 608,512 576,496 576,464" fill="none" stroke="#8a6520" stroke-width="4"/><polygon points="608,458 630,469 630,491 608,502 586,491 586,469" fill="none" stroke="#8a6520" stroke-width="1.5"/><circle cx="608" cy="480" r="4" fill="#8a6520"/><polygon points="0,496 32,512 32,544 0,560 -32,544 -32,512" fill="none" stroke="#8a6520" stroke-width="4"/><polygon points="0,506 22,517 22,539 0,550 -22,539 -22,517" fill="none" stroke="#8a6520" stroke-width="1.5"/><circle cx="0" cy="528" r="4" fill="#8a6520"/><polygon points="64,496 96,512 96,544 64,560 32,544 32,512" fill="none" stroke="#8a6520" stroke-width="4"/><polygon points="64,506 86,517 86,539 64,550 42,539 42,517" fill="none" stroke="#8a6520" stroke-width="1.5"/><circle cx="64" cy="528" r="4" fill="#8a6520"/><polygon points="128,496 160,512 160,544 128,560 96,544 96,512" fill="none" stroke="#8a6520" stroke-width="4"/><polygon points="128,506 150,517 150,539 128,550 106,539 106,517" fill="none" stroke="#8a6520" stroke-width="1.5"/><circle cx="128" cy="528" r="4" fill="#8a6520"/><polygon points="192,496 224,512 224,544 192,560 160,544 160,512" fill="none" stroke="#8a6520" stroke-width="4"/><polygon points="192,506 214,517 214,539 192,550 170,539 170,517" fill="none" stroke="#8a6520" stroke-width="1.5"/><circle cx="192" cy="528" r="4" fill="#8a6520"/><polygon points="256,496 288,512 288,544 256,560 224,544 224,512" fill="none" stroke="#8a6520" stroke-width="4"/><polygon points="256,506 278,517 278,539 256,550 234,539 234,517" fill="none" stroke="#8a6520" stroke-width="1.5"/><circle cx="256" cy="528" r="4" fill="#8a6520"/><polygon points="320,496 352,512 352,544 320,560 288,544 288,512" fill="none" stroke="#8a6520" stroke-width="4"/><polygon points="320,506 342,517 342,539 320,550 298,539 298,517" fill="none" stroke="#8a6520" stroke-width="1.5"/><circle cx="320" cy="528" r="4" fill="#8a6520"/><polygon points="384,496 416,512 416,544 384,560 352,544 352,512" fill="none" stroke="#8a6520" stroke-width="4"/><polygon points="384,506 406,517 406,539 384,550 362,539 362,517" fill="none" stroke="#8a6520" stroke-width="1.5"/><circle cx="384" cy="528" r="4" fill="#8a6520"/><polygon points="448,496 480,512 480,544 448,560 416,544 416,512" fill="none" stroke="#8a6520" stroke-width="4"/><polygon points="448,506 470,517 470,539 448,550 426,539 426,517" fill="none" stroke="#8a6520" stroke-width="1.5"/><circle cx="448" cy="528" r="4" fill="#8a6520"/><polygon points="512,496 544,512 544,544 512,560 480,544 480,512" fill="none" stroke="#8a6520" stroke-width="4"/><polygon points="512,506 534,517 534,539 512,550 490,539 490,517" fill="none" stroke="#8a6520" stroke-width="1.5"/><circle cx="512" cy="528" r="4" fill="#8a6520"/><polygon points="576,496 608,512 608,544 576,560 544,544 544,512" fill="none" stroke="#8a6520" stroke-width="4"/><polygon points="576,506 598,517 598,539 576,550 554,539 554,517" fill="none" stroke="#8a6520" stroke-width="1.5"/><circle cx="576" cy="528" r="4" fill="#8a6520"/><polygon points="640,496 672,512 672,544 640,560 608,544 608,512" fill="none" stroke="#8a6520" stroke-width="4"/><polygon points="640,506 662,517 662,539 640,550 618,539 618,517" fill="none" stroke="#8a6520" stroke-width="1.5"/><circle cx="640" cy="528" r="4" fill="#8a6520"/><rect width="512" height="480" fill="url(#wv)"/></svg>