<svg xmlns="http://www.w3.org/2000/svg" width="512" height="512" viewBox="0 0 512 512"><defs><pattern id="wv" width="6" height="6" patternUnits="userSpaceOnUse"><line x1="0" y1="3" x2="6" y2="3" stroke="#000" stroke-opacity="0.05" stroke-width="1"/><line x1="3" y1="0" x2="3" y2="6" stroke="#fff" stroke-opacity="0.04" stroke-width="1"/></pattern></defs><rect width="512" height="512" fill="#c8d8c4"/><path d="M -61.27 -8 L -64 0 L -66.73 8 L -69.36 16 L -71.78 24 L -73.9 32 L -75.64 40 L -76.93 48 L -77.73 56 L -78 64 L -77.73 72 L -76.93 80 L -75.64 88 L -73.9 96 L -71.78 104 L -69.36 112 L -66.73 120 L -64 128 L -61.27 136 L -58.64 144 L -56.22 152 L -54.1 160 L -52.36 168 L -51.07 176 L -50.27 184 L -50 192 L -50.27 200 L -51.07 208 L -52.36 216 L -54.1 224 L -56.22 232 L -58.64 240 L -61.27 248 L -64 256 L -66.73 264 L -69.36 272 L -71.78 280 L -73.9 288 L -75.64 296 L -76.93 304 L -77.73 312 L -78 320 L -77.73 328 L -76.93 336 L -75.64 344 L -73.9 352 L -71.78 360 L -69.36 368 L -66.73 376 L -64 384 L -61.27 392 L -58.64 400 L -56.22 408 L -54.1 416 L -52.36 424 L -51.07 432 L -50.27 440 L -50 448 L -50.27 456 L -51.07 464 L -52.36 472 L -54.1 480 L -56.22 488 L -58.64 496 L -61.27 504 L -64 512 L -66.73 520" fill="none" stroke="#8fa98a" stroke-width="5"/><path d="M -61.27 -8 L -64 0 L -66.73 8 L -69.36 16 L -71.78 24 L -73.9 32 L -75.64 40 L -76.93 48 L -77.73 56 L -78 64 L -77.73 72 L -76.93 80 L -75.64 88 L -73.9 96 L -71.78 104 L -69.36 112 L -66.73 120 L -64 128 L -61.27 136 L -58.64 144 L -56.22 152 L -54.1 160 L -52.36 168 L -51.07 176 L -50.27 184 L -50 192 L -50.27 200 L -51.07 208 L -52.36 216 L -54.1 224 L -56.22 232 L -58.64 240 L -61.27 248 L -64 256 L -66.73 264 L -69.36 272 L -71.78 280 L -73.9 288 L -75.64 296 L -76.93 304 L -77.73 312 L -78 320 L -77.73 328 L -76.93 336 L -75.64 344 L -73.9 352 L -71.78 360 L -69.36 368 L -66.73 376 L -64 384 L -61.27 392 L -58.64 400 L -56.22 408 L -54.1 416 L -52.36 424 L -51.07 432 L -50.27 440 L -50 448 L -50.27 456 L -51.07 464 L -52.36 472 L -54.1 480 L -56.22 488 L -58.64 496 L -61.27 504 L -64 512 L -66.73 520" fill="none" stroke="#c8d8c4" stroke-width="1.5" opacity="0.7"/><path d="M -2.73 -8 L 0 0 L 2.73 8 L 5.36 16 L 7.78 24 L 9.9 32 L 11.64 40 L 12.93 48 L 13.73 56 L 14 64 L 13.73 72 L 12.93 80 L 11.64 88 L 9.9 96 L 7.78 104 L 5.36 112 L 2.73 120 L 0 128 L -2.73 136 L -5.36 144 L -7.78 152 L -9.9 160 L -11.64 168 L -12.93 176 L -13.73 184 L -14 192 L -13.73 200 L -12.93 208 L -11.64 216 L -9.9 224 L -7.78 232 L -5.36 240 L -2.73 248 L -0 256 L 2.73 264 L 5.36 272 L 7.78 280 L 9.9 288 L 11.64 296 L 12.93 304 L 13.73 312 L 14 320 L 13.73 328 L 12.93 336 L 11.64 344 L 9.9 352 L 7.78 360 L 5.36 368 L 2.73 376 L 0 384 L -2.73 392 L -5.36 400 L -7.78 408 L -9.9 416 L -11.64 424 L -12.93 432 L -13.73 440 L -14 448 L -13.73 456 L -12.93 464 L -11.64 472 L -9.9 480 L -7.78 488 L -5.36 496 L -2.73 504 L -0 512 L 2.73 520" fill="none" stroke="#8fa98a" stroke-width="5"/><path d="M -2.73 -8 L 0 0 L 2.73 8 L 5.36 16 L 7.78 24 L 9.9 32 L 11.64 40 L 12.93 48 L 13.73 56 L 14 64 L 13.73 72 L 12.93 80 L 11.64 88 L 9.9 96 L 7.78 104 L 5.36 112 L 2.73 120 L 0 128 L -2.73 136 L -5.36 144 L -7.78 152 L -9.9 160 L -11.64 168 L -12.93 176 L -13.73 184 L -14 192 L -13.73 200 L -12.93 208 L -11.64 216 L -9.9 224 L -7.78 232 L -5.36 240 L -2.73 248 L -0 256 L 2.73 264 L 5.36 272 L 7.78 280 L 9.9 288 L 11.64 296 L 12.93 304 L 13.73 312 L 14 320 L 13.73 328 L 12.93 336 L 11.64 344 L 9.9 352 L 7.78 360 L 5.36 368 L 2.73 376 L 0 384 L -2.73 392 L -5.36 400 L -7.78 408 L -9.9 416 L -11.64 424 L -12.93 432 L -13.73 440 L -14 448 L -13.73 456 L -12.93 464 L -11.64 472 L -9.9 480 L -7.78 488 L -5.36 496 L -2.73 504 L -0 512 L 2.73 520" fill="none" stroke="#c8d8c4" stroke-width="1.5" opacity="0.7"/><path d="M 66.73 -8 L 64 0 L 61.27 8 L 58.64 16 L 56.22 24 L 54.1 32 L 52.36 40 L 51.07 48 L 50.27 56 L 50 64 L 50.27 72 L 51.07 80 L 52.36 88 L 54.1 96 L 56.22 104 L 58.64 112 L 61.27 120 L 64 128 L 66.73 136 L 69.36 144 L 71.78 152 L 73.9 160 L 75.64 168 L 76.93 176 L 77.73 184 L 78 192 L 77.73 200 L 76.93 208 L 75.64 216 L 73.9 224 L 71.78 232 L 69.36 240 L 66.73 248 L 64 256 L 61.27 264 L 58.64 272 L 56.22 280 L 54.1 288 L 52.36 296 L 51.07 304 L 50.27 312 L 50 320 L 50.27 328 L 51.07 336 L 52.36 344 L 54.1 352 L 56.22 360 L 58.64 368 L 61.27 376 L 64 384 L 66.73 392 L 69.36 400 L 71.78 408 L 73.9 416 L 75.64 424 L 76.93 432 L 77.73 440 L 78 448 L 77.73 456 L 76.93 464 L 75.64 472 L 73.9 480 L 71.78 488 L 69.36 496 L 66.73 504 L 64 512 L 61.27 520" fill="none" stroke="#8fa98a" stroke-width="5"/><path d="M 66.73 -8 L 64 0 L 61.27 8 L 58.64 16 L 56.22 24 L 54.1 32 L 52.36 40 L 51.07 48 L 50.27 56 L 50 64 L 50.27 72 L 51.07 80 L 52.36 88 L 54.1 96 L 56.22 104 L 58.64 112 L 61.27 120 L 64 128 L 66.73 136 L 69.36 144 L 71.78 152 L 73.9 160 L 75.64 168 L 76.93 176 L 77.73 184 L 78 192 L 77.73 200 L 76.93 208 L 75.64 216 L 73.9 224 L 71.78 232 L 69.36 240 L 66.73 248 L 64 256 L 61.27 264 L 58.64 272 L 56.22 280 L 54.1 288 L 52.36 296 L 51.07 304 L 50.27 312 L 50 320 L 50.27 328 L 51.07 336 L 52.36 344 L 54.1 352 L 56.22 360 L 58.64 368 L 61.27 376 L 64 384 L 66.73 392 L 69.36 400 L 71.78 408 L 73.9 416 L 75.64 424 L 76.93 432 L 77.73 440 L 78 448 L 77.73 456 L 76.93 464 L 75.64 472 L 73.9 480 L 71.78 488 L 69.36 496 L 66.73 504 L 64 512 L 61.27 520" fill="none" stroke="#c8d8c4" stroke-width="1.5" opacity="0.7"/><path d="M 125.27 -8 L 128 0 L 130.73 8 L 133.36 16 L 135.78 24 L 137.9 32 L 139.64 40 L 140.93 48 L 141.73 56 L 142 64 L 141.73 72 L 140.93 80 L 139.64 88 L 137.9 96 L 135.78 104 L 133.36 112 L 130.73 120 L 128 128 L 125.27 136 L 122.64 144 L 120.22 152 L 118.1 160 L 116.36 168 L 115.07 176 L 114.27 184 L 114 192 L 114.27 200 L 115.07 208 L 116.36 216 L 118.1 224 L 120.22 232 L 122.64 240 L 125.27 248 L 128 256 L 130.73 264 L 133.36 272 L 135.78 280 L 137.9 288 L 139.64 296 L 140.93 304 L 141.73 312 L 142 320 L 141.73 328 L 140.93 336 L 139.64 344 L 137.9 352 L 135.78 360 L 133.36 368 L 130.73 376 L 128 384 L 125.27 392 L 122.64 400 L 120.22 408 L 118.1 416 L 116.36 424 L 115.07 432 L 114.27 440 L 114 448 L 114.27 456 L 115.07 464 L 116.36 472 L 118.1 480 L 120.22 488 L 122.64 496 L 125.27 504 L 128 512 L 130.73 520" fill="none" stroke="#8fa98a" stroke-width="5"/><path d="M 125.27 -8 L 128 0 L 130.73 8 L 133.36 16 L 135.78 24 L 137.9 32 L 139.64 40 L 140.93 48 L 141.73 56 L 142 64 L 141.73 72 L 140.93 80 L 139.64 88 L 137.9 96 L 135.78 104 L 133.36 112 L 130.73 120 L 128 128 L 125.27 136 L 122.64 144 L 120.22 152 L 118.1 160 L 116.36 168 L 115.07 176 L 114.27 184 L 114 192 L 114.27 200 L 115.07 208 L 116.36 216 L 118.1 224 L 120.22 232 L 122.64 240 L 125.27 248 L 128 256 L 130.73 264 L 133.36 272 L 135.78 280 L 137.9 288 L 139.64 296 L 140.93 304 L 141.73 312 L 142 320 L 141.73 328 L 140.93 336 L 139.64 344 L 137.9 352 L 135.78 360 L 133.36 368 L 130.73 376 L 128 384 L 125.27 392 L 122.64 400 L 120.22 408 L 118.1 416 L 116.36 424 L 115.07 432 L 114.27 440 L 114 448 L 114.27 456 L 115.07 464 L 116.36 472 L 118.1 480 L 120.22 488 L 122.64 496 L 125.27 504 L 128 512 L 130.73 520" fill="none" stroke="#c8d8c4" stroke-width="1.5" opacity="0.7"/><path d="M 194.73 -8 L 192 0 L 189.27 8 L 186.64 16 L 184.22 24 L 182.1 32 L 180.36 40 L 179.07 48 L 178.27 56 L 178 64 L 178.27 72 L 179.07 80 L 180.36 88 L 182.1 96 L 184.22 104 L 186.64 112 L 189.27 120 L 192 128 L 194.73 136 L 197.36 144 L 199.78 152 L 201.9 160 L 203.64 168 L 204.93 176 L 205.73 184 L 206 192 L 205.73 200 L 204.93 208 L 203.64 216 L 201.9 224 L 199.78 232 L 197.36 240 L 194.73 248 L 192 256 L 189.27 264 L 186.64 272 L 184.22 280 L 182.1 288 L 180.36 296 L 179.07 304 L 178.27 312 L 178 320 L 178.27 328 L 179.07 336 L 180.36 344 L 182.1 352 L 184.22 360 L 186.64 368 L 189.27 376 L 192 384 L 194.73 392 L 197.36 400 L 199.78 408 L 201.9 416 L 203.64 424 L 204.93 432 L 205.73 440 L 206 448 L 205.73 456 L 204.93 464 L 203.64 472 L 201.9 480 L 199.78 488 L 197.36 496 L 194.73 504 L 192 512 L 189.27 520" fill="none" stroke="#8fa98a" stroke-width="5"/><path d="M 194.73 -8 L 192 0 L 189.27 8 L 186.64 16 L 184.22 24 L 182.1 32 L 180.36 40 L 179.07 48 L 178.27 56 L 178 64 L 178.27 72 L 179.07 80 L 180.36 88 L 182.1 96 L 184.22 104 L 186.64 112 L 189.27 120 L 192 128 L 194.73 136 L 197.36 144 L 199.78 152 L 201.9 160 L 203.64 168 L 204.93 176 L 205.73 184 L 206 192 L 205.73 200 L 204.93 208 L 203.64 216 L 201.9 224 L 199.78 232 L 197.36 240 L 194.73 248 L 192 256 L 189.27 264 L 186.64 272 L 184.22 280 L 182.1 288 L 180.36 296 L 179.07 304 L 178.27 312 L 178 320 L 178.27 328 L 179.07 336 L 180.36 344 L 182.1 352 L 184.22 360 L 186.64 368 L 189.27 376 L 192 384 L 194.73 392 L 197.36 400 L 199.78 408 L 201.9 416 L 203.64 424 L 204.93 432 L 205.73 440 L 206 448 L 205.73 456 L 204.93 464 L 203.64 472 L 201.9 480 L 199.78 488 L 197.36 496 L 194.73 504 L 192 512 L 189.27 520" fill="none" stroke="#c8d8c4" stroke-width="1.5" opacity="0.7"/><path d="M 253.27 -8 L 256 0 L 258.73 8 L 261.36 16 L 263.78 24 L 265.9 32 L 267.64 40 L 268.93 48 L 269.73 56 L 270 64 L 269.73 72 L 268.93 80 L 267.64 88 L 265.9 96 L 263.78 104 L 261.36 112 L 258.73 120 L 256 128 L 253.27 136 L 250.64 144 L 248.22 152 L 246.1 160 L 244.36 168 L 243.07 176 L 242.27 184 L 242 192 L 242.27 200 L 243.07 208 L 244.36 216 L 246.1 224 L 248.22 232 L 250.64 240 L 253.27 248 L 256 256 L 258.73 264 L 261.36 272 L 263.78 280 L 265.9 288 L 267.64 296 L 268.93 304 L 269.73 312 L 270 320 L 269.73 328 L 268.93 336 L 267.64 344 L 265.9 352 L 263.78 360 L 261.36 368 L 258.73 376 L 256 384 L 253.27 392 L 250.64 400 L 248.22 408 L 246.1 416 L 244.36 424 L 243.07 432 L 242.27 440 L 242 448 L 242.27 456 L 243.07 464 L 244.36 472 L 246.1 480 L 248.22 488 L 250.64 496 L 253.27 504 L 256 512 L 258.73 520" fill="none" stroke="#8fa98a" stroke-width="5"/><path d="M 253.27 -8 L 256 0 L 258.73 8 L 261.36 16 L 263.78 24 L 265.9 32 L 267.64 40 L 268.93 48 L 269.73 56 L 270 64 L 269.73 72 L 268.93 80 L 267.64 88 L 265.9 96 L 263.78 104 L 261.36 112 L 258.73 120 L 256 128 L 253.27 136 L 250.64 144 L 248.22 152 L 246.1 160 L 244.36 168 L 243.07 176 L 242.27 184 L 242 192 L 242.27 200 L 243.07 208 L 244.36 216 L 246.1 224 L 248.22 232 L 250.64 240 L 253.27 248 L 256 256 L 258.73 264 L 261.36 272 L 263.78 280 L 265.9 288 L 267.64 296 L 268.93 304 L 269.73 312 L 270 320 L 269.73 328 L 268.93 336 L 267.64 344 L 265.9 352 L 263.78 360 L 261.36 368 L 258.73 376 L 256 384 L 253.27 392 L 250.64 400 L 248.22 408 L 246.1 416 L 244.36 424 L 243.07 432 L 242.27 440 L 242 448 L 242.27 456 L 243.07 464 L 244.36 472 L 246.1 480 L 248.22 488 L 250.64 496 L 253.27 504 L 256 512 L 258.73 520" fill="none" stroke="#c8d8c4" stroke-width="1.5" opacity="0.7"/><path d="M 322.73 -8 L 320 0 L 317.27 8 L 314.64 16 L 312.22 24 L 310.1 32 L 308.36 40 L 307.07 48 L 306.27 56 L 306 64 L 306.27 72 L 307.07 80 L 308.36 88 L 310.1 96 L 312.22 104 L 314.64 112 L 317.27 120 L 320 128 L 322.73 136 L 325.36 144 L 327.78 152 L 329.9 160 L 331.64 168 L 332.93 176 L 333.73 184 L 334 192 L 333.73 200 L 332.93 208 L 331.64 216 L 329.9 224 L 327.78 232 L 325.36 240 L 322.73 248 L 320 256 L 317.27 264 L 314.64 272 L 312.22 280 L 310.1 288 L 308.36 296 L 307.07 304 L 306.27 312 L 306 320 L 306.27 328 L 307.07 336 L 308.36 344 L 310.1 352 L 312.22 360 L 314.64 368 L 317.27 376 L 320 384 L 322.73 392 L 325.36 400 L 327.78 408 L 329.9 416 L 331.64 424 L 332.93 432 L 333.73 440 L 334 448 L 333.73 456 L 332.93 464 L 331.64 472 L 329.9 480 L 327.78 488 L 325.36 496 L 322.73 504 L 320 512 L 317.27 520" fill="none" stroke="#8fa98a" stroke-width="5"/><path d="M 322.73 -8 L 320 0 L 317.27 8 L 314.64 16 L 312.22 24 L 310.1 32 L 308.36 40 L 307.07 48 L 306.27 56 L 306 64 L 306.27 72 L 307.07 80 L 308.36 88 L 310.1 96 L 312.22 104 L 314.64 112 L 317.27 120 L 320 128 L 322.73 136 L 325.36 144 L 327.78 152 L 329.9 160 L 331.64 168 L 332.93 176 L 333.73 184 L 334 192 L 333.73 200 L 332.93 208 L 331.64 216 L 329.9 224 L 327.78 232 L 325.36 240 L 322.73 248 L 320 256 L 317.27 264 L 314.64 272 L 312.22 280 L 310.1 288 L 308.36 296 L 307.07 304 L 306.27 312 L 306 320 L 306.27 328 L 307.07 336 L 308.36 344 L 310.1 352 L 312.22 360 L 314.64 368 L 317.27 376 L 320 384 L 322.73 392 L 325.36 400 L 327.78 408 L 329.9 416 L 331.64 424 L 332.93 432 L 333.73 440 L 334 448 L 333.73 456 L 332.93 464 L 331.64 472 L 329.9 480 L 327.78 488 L 325.36 496 L 322.73 504 L 320 512 L 317.27 520" fill="none" stroke="#c8d8c4" stroke-width="1.5" opacity="0.7"/><path d="M 381.27 -8 L 384 0 L 386.73 8 L 389.36 16 L 391.78 24 L 393.9 32 L 395.64 40 L 396.93 48 L 397.73 56 L 398 64 L 397.73 72 L 396.93 80 L 395.64 88 L 393.9 96 L 391.78 104 L 389.36 112 L 386.73 120 L 384 128 L 381.27 136 L 378.64 144 L 376.22 152 L 374.1 160 L 372.36 168 L 371.07 176 L 370.27 184 L 370 192 L 370.27 200 L 371.07 208 L 372.36 216 L 374.1 224 L 376.22 232 L 378.64 240 L 381.27 248 L 384 256 L 386.73 264 L 389.36 272 L 391.78 280 L 393.9 288 L 395.64 296 L 396.93 304 L 397.73 312 L 398 320 L 397.73 328 L 396.93 336 L 395.64 344 L 393.9 352 L 391.78 360 L 389.36 368 L 386.73 376 L 384 384 L 381.27 392 L 378.64 400 L 376.22 408 L 374.1 416 L 372.36 424 L 371.07 432 L 370.27 440 L 370 448 L 370.27 456 L 371.07 464 L 372.36 472 L 374.1 480 L 376.22 488 L 378.64 496 L 381.27 504 L 384 512 L 386.73 520" fill="none" stroke="#8fa98a" stroke-width="5"/><path d="M 381.27 -8 L 384 0 L 386.73 8 L 389.36 16 L 391.78 24 L 393.9 32 L 395.64 40 L 396.93 48 L 397.73 56 L 398 64 L 397.73 72 L 396.93 80 L 395.64 88 L 393.9 96 L 391.78 104 L 389.36 112 L 386.73 120 L 384 128 L 381.27 136 L 378.64 144 L 376.22 152 L 374.1 160 L 372.36 168 L 371.07 176 L 370.27 184 L 370 192 L 370.27 200 L 371.07 208 L 372.36 216 L 374.1 224 L 376.22 232 L 378.64 240 L 381.27 248 L 384 256 L 386.73 264 L 389.36 272 L 391.78 280 L 393.9 288 L 395.64 296 L 396.93 304 L 397.73 312 L 398 320 L 397.73 328 L 396.93 336 L 395.64 344 L 393.9 352 L 391.78 360 L 389.36 368 L 386.73 376 L 384 384 L 381.27 392 L 378.64 400 L 376.22 408 L 374.1 416 L 372.36 424 L 371.07 432 L 370.27 440 L 370 448 L 370.27 456 L 371.07 464 L 372.36 472 L 374.1 480 L 376.22 488 L 378.64 496 L 381.27 504 L 384 512 L 386.73 520" fill="none" stroke="#c8d8c4" stroke-width="1.5" opacity="0.7"/><path d="M 450.73 -8 L 448 0 L 445.27 8 L 442.64 16 L 440.22 24 L 438.1 32 L 436.36 40 L 435.07 48 L 434.27 56 L 434 64 L 434.27 72 L 435.07 80 L 436.36 88 L 438.1 96 L 440.22 104 L 442.64 112 L 445.27 120 L 448 128 L 450.73 136 L 453.36 144 L 455.78 152 L 457.9 160 L 459.64 168 L 460.93 176 L 461.73 184 L 462 192 L 461.73 200 L 460.93 208 L 459.64 216 L 457.9 224 L 455.78 232 L 453.36 240 L 450.73 248 L 448 256 L 445.27 264 L 442.64 272 L 440.22 280 L 438.1 288 L 436.36 296 L 435.07 304 L 434.27 312 L 434 320 L 434.27 328 L 435.07 336 L 436.36 344 L 438.1 352 L 440.22 360 L 442.64 368 L 445.27 376 L 448 384 L 450.73 392 L 453.36 400 L 455.78 408 L 457.9 416 L 459.64 424 L 460.93 432 L 461.73 440 L 462 448 L 461.73 456 L 460.93 464 L 459.64 472 L 457.9 480 L 455.78 488 L 453.36 496 L 450.73 504 L 448 512 L 445.27 520" fill="none" stroke="#8fa98a" stroke-width="5"/><path d="M 450.73 -8 L 448 0 L 445.27 8 L 442.64 16 L 440.22 24 L 438.1 32 L 436.36 40 L 435.07 48 L 434.27 56 L 434 64 L 434.27 72 L 435.07 80 L 436.36 88 L 438.1 96 L 440.22 104 L 442.64 112 L 445.27 120 L 448 128 L 450.73 136 L 453.36 144 L 455.78 152 L 457.9 160 L 459.64 168 L 460.93 176 L 461.73 184 L 462 192 L 461.73 200 L 460.93 208 L 459.64 216 L 457.9 224 L 455.78 232 L 453.36 240 L 450.73 248 L 448 256 L 445.27 264 L 442.64 272 L 440.22 280 L 438.1 288 L 436.36 296 L 435.07 304 L 434.27 312 L 434 320 L 434.27 328 L 435.07 336 L 436.36 344 L 438.1 352 L 440.22 360 L 442.64 368 L 445.27 376 L 448 384 L 450.73 392 L 453.36 400 L 455.78 408 L 457.9 416 L 459.64 424 L 460.93 432 L 461.73 440 L 462 448 L 461.73 456 L 460.93 464 L 459.64 472 L 457.9 480 L 455.78 488 L 453.36 496 L 450.73 504 L 448 512 L 445.27 520" fill="none" stroke="#c8d8c4" stroke-width="1.5" opacity="0.7"/><path d="M 509.27 -8 L 512 0 L 514.73 8 L 517.36 16 L 519.78 24 L 521.9 32 L 523.64 40 L 524.93 48 L 525.73 56 L 526 64 L 525.73 72 L 524.93 80 L 523.64 88 L 521.9 96 L 519.78 104 L 517.36 112 L 514.73 120 L 512 128 L 509.27 136 L 506.64 144 L 504.22 152 L 502.1 160 L 500.36 168 L 499.07 176 L 498.27 184 L 498 192 L 498.27 200 L 499.07 208 L 500.36 216 L 502.1 224 L 504.22 232 L 506.64 240 L 509.27 248 L 512 256 L 514.73 264 L 517.36 272 L 519.78 280 L 521.9 288 L 523.64 296 L 524.93 304 L 525.73 312 L 526 320 L 525.73 328 L 524.93 336 L 523.64 344 L 521.9 352 L 519.78 360 L 517.36 368 L 514.73 376 L 512 384 L 509.27 392 L 506.64 400 L 504.22 408 L 502.1 416 L 500.36 424 L 499.07 432 L 498.27 440 L 498 448 L 498.27 456 L 499.07 464 L 500.36 472 L 502.1 480 L 504.22 488 L 506.64 496 L 509.27 504 L 512 512 L 514.73 520" fill="none" stroke="#8fa98a" stroke-width="5"/><path d="M 509.27 -8 L 512 0 L 514.73 8 L 517.36 16 L 519.78 24 L 521.9 32 L 523.64 40 L 524.93 48 L 525.73 56 L 526 64 L 525.73 72 L 524.93 80 L 523.64 88 L 521.9 96 L 519.78 104 L 517.36 112 L 514.73 120 L 512 128 L 509.27 136 L 506.64 144 L 504.22 152 L 502.1 160 L 500.36 168 L 499.07 176 L 498.27 184 L 498 192 L 498.27 200 L 499.07 208 L 500.36 216 L 502.1 224 L 504.22 232 L 506.64 240 L 509.27 248 L 512 256 L 514.73 264 L 517.36 272 L 519.78 280 L 521.9 288 L 523.64 296 L 524.93 304 L 525.73 312 L 526 320 L 525.73 328 L 524.93 336 L 523.64 344 L 521.9 352 L 519.78 360 L 517.36 368 L 514.73 376 L 512 384 L 509.27 392 L 506.64 400 L 504.22 408 L 502.1 416 L 500.36 424 L 499.07 432 L 498.27 440 L 498 448 L 498.27 456 L 499.07 464 L 500.36 472 L 502.1 480 L 504.22 488 L 506.64 496 L 509.27 504 L 512 512 L 514.73 520" fill="none" stroke="#c8d8c4" stroke-width="1.5" opacity="0.7"/><rect width="512" height="512" fill="url(#wv)"/></svg>