<svg xmlns="http://www.w3.org/2000/svg" width="512" height="512" viewBox="0 0 512 512"><defs><pattern id="wv" width="6" height="6" patternUnits="userSpaceOnUse"><line x1="0" y1="3" x2="6" y2="3" stroke="#000" stroke-opacity="0.05" stroke-width="1"/><line x1="3" y1="0" x2="3" y2="6" stroke="#fff" stroke-opacity="0.04" stroke-width="1"/></pattern></defs><rect width="512" height="512" fill="#4a5564"/><line x1="-1024" y1="-1024" x2="0" y2="1024" stroke="#76829a" stroke-width="2.5"/><line x1="0" y1="-1024" x2="-1024" y2="1024" stroke="#76829a" stroke-width="2.5"/><line x1="-960" y1="-1024" x2="64" y2="1024" stroke="#76829a" stroke-width="2.5"/><line x1="64" y1="-1024" x2="-960" y2="1024" stroke="#76829a" stroke-width="2.5"/><line x1="-896" y1="-1024" x2="128" y2="1024" stroke="#76829a" stroke-width="2.5"/><line x1="128" y1="-1024" x2="-896" y2="1024" stroke="#76829a" stroke-width="2.5"/><line x1="-832" y1="-1024" x2="192" y2="1024" stroke="#76829a" stroke-width="2.5"/><line x1="192" y1="-1024" x2="-832" y2="1024" stroke="#76829a" stroke-width="2.5"/><line x1="-768" y1="-1024" x2="256" y2="1024" stroke="#76829a" stroke-width="2.5"/><line x1="256" y1="-1024" x2="-768" y2="1024" stroke="#76829a" stroke-width="2.5"/><line x1="-704" y1="-1024" x2="320" y2="1024" stroke="#76829a" stroke-width="2.5"/><line x1="320" y1="-1024" x2="-704" y2="1024" stroke="#76829a" stroke-width="2.5"/><line x1="-640" y1="-1024" x2="384" y2="1024" stroke="#76829a" stroke-width="2.5"/><line x1="384" y1="-1024" x2="-640" y2="1024" stroke="#76829a" stroke-width="2.5"/><line x1="-576" y1="-1024" x2="448" y2="1024" stroke="#76829a" stroke-width="2.5"/><line x1="448" y1="-1024" x2="-576" y2="1024" stroke="#76829a" stroke-width="2.5"/><line x1="-512" y1="-1024" x2="512" y2="1024" stroke="#76829a" stroke-width="2.5"/><line x1="512" y1="-1024" x2="-512" y2="1024" stroke="#76829a" stroke-width="2.5"/><line x1="-448" y1="-1024" x2="576" y2="1024" stroke="#76829a" stroke-width="2.5"/><line x1="576" y1="-1024" x2="-448" y2="1024" stroke="#76829a" stroke-width="2.5"/><line x1="-384" y1="-1024" x2="640" y2="1024" stroke="#76829a" stroke-width="2.5"/><line x1="640" y1="-1024" x2="-384" y2="1024" stroke="#76829a" stroke-width="2.5"/><line x1="-320" y1="-1024" x2="704" y2="1024" stroke="#76829a" stroke-width="2.5"/><line x1="704" y1="-1024" x2="-320" y2="1024" stroke="#76829a" stroke-width="2.5"/><line x1="-256" y1="-1024" x2="768" y2="1024" stroke="#76829a" stroke-width="2.5"/><line x1="768" y1="-1024" x2="-256" y2="1024" stroke="#76829a" stroke-width="2.5"/><line x1="-192" y1="-1024" x2="832" y2="1024" stroke="#76829a" stroke-width="2.5"/><line x1="832" y1="-1024" x2="-192" y2="1024" stroke="#76829a" stroke-width="2.5"/><line x1="-128" y1="-1024" x2="896" y2="1024" stroke="#76829a" stroke-width="2.5"/><line x1="896" y1="-1024" x2="-128" y2="1024" stroke="#76829a" stroke-width="2.5"/><line x1="-64" y1="-1024" x2="960" y2="1024" stroke="#76829a" stroke-width="2.5"/><line x1="960" y1="-1024" x2="-64" y2="1024" stroke="#76829a" stroke-width="2.5"/><line x1="0" y1="-1024" x2="1024" y2="1024" stroke="#76829a" stroke-width="2.5"/><line x1="1024" y1="-1024" x2="0" y2="1024" stroke="#76829a" stroke-width="2.5"/><line x1="64" y1="-1024" x2="1088" y2="1024" stroke="#76829a" stroke-width="2.5"/><line x1="1088" y1="-1024" x2="64" y2="1024" stroke="#76829a" stroke-width="2.5"/><line x1="128" y1="-1024" x2="1152" y2="1024" stroke="#76829a" stroke-width="2.5"/><line x1="1152" y1="-1024" x2="128" y2="1024" stroke="#76829a" stroke-width="2.5"/><line x1="192" y1="-1024" x2="1216" y2="1024" stroke="#76829a" stroke-width="2.5"/><line x1="1216" y1="-1024" x2="192" y2="1024" stroke="#76829a" stroke-width="2.5"/><line x1="256" y1="-1024" x2="1280" y2="1024" stroke="#76829a" stroke-width="2.5"/><line x1="1280" y1="-1024" x2="256" y2="1024" stroke="#76829a" stroke-width="2.5"/><line x1="320" y1="-1024" x2="1344" y2="1024" stroke="#76829a" stroke-width="2.5"/><line x1="1344" y1="-1024" x2="320" y2="1024" stroke="#76829a" stroke-width="2.5"/><line x1="384" y1="-1024" x2="1408" y2="1024" stroke="#76829a" stroke-width="2.5"/><line x1="1408" y1="-1024" x2="384" y2="1024" stroke="#76829a" stroke-width="2.5"/><line x1="448" y1="-1024" x2="1472" y2="1024" stroke="#76829a" stroke-width="2.5"/><line x1="1472" y1="-1024" x2="448" y2="1024" stroke="#76829a" stroke-width="2.5"/><line x1="512" y1="-1024" x2="1536" y2="1024" stroke="#76829a" stroke-width="2.5"/><line x1="1536" y1="-1024" x2="512" y2="1024" stroke="#76829a" stroke-width="2.5"/><circle cx="-64" cy="-64" r="3.5" fill="#76829a"/><circle cx="-64" cy="192" r="3.5" fill="#76829a"/><circle cx="-64" cy="448" r="3.5" fill="#76829a"/><circle cx="0" cy="64" r="3.5" fill="#76829a"/><circle cx="0" cy="320" r="3.5" fill="#76829a"/><circle cx="0" cy="576" r="3.5" fill="#76829a"/><circle cx="64" cy="-64" r="3.5" fill="#76829a"/><circle cx="64" cy="192" r="3.5" fill="#76829a"/><circle cx="64" cy="448" r="3.5" fill="#76829a"/><circle cx="128" cy="64" r="3.5" fill="#76829a"/><circle cx="128" cy="320" r="3.5" fill="#76829a"/><circle cx="128" cy="576" r="3.5" fill="#76829a"/><circle cx="192" cy="-64" r="3.5" fill="#76829a"/><circle cx="192" cy="192" r="3.5" fill="#76829a"/><circle cx="192" cy="448" r="3.5" fill="#76829a"/><circle cx="256" cy="64" r="3.5" fill="#76829a"/><circle cx="256" cy="320" r="3.5" fill="#76829a"/><circle cx="256" cy="576" r="3.5" fill="#76829a"/><circle cx="320" cy="-64" r="3.5" fill="#76829a"/><circle cx="320" cy="192" r="3.5" fill="#76829a"/><circle cx="320" cy="448" r="3.5" fill="#76829a"/><circle cx="384" cy="64" r="3.5" fill="#76829a"/><circle cx="384" cy="320" r="3.5" fill="#76829a"/><circle cx="384" cy="576" r="3.5" fill="#76829a"/><circle cx="448" cy="-64" r="3.5" fill="#76829a"/><circle cx="448" cy="192" r="3.5" fill="#76829a"/><circle cx="448" cy="448" r="3.5" fill="#76829a"/><circle cx="512" cy="64" r="3.5" fill="#76829a"/><circle cx="512" cy="320" r="3.5" fill="#76829a"/><circle cx="512" cy="576" r="3.5" fill="#76829a"/><rect width="512" height="512" fill="url(#wv)"/></svg>