<svg xmlns="http://www.w3.org/2000/svg" width="512" height="512" viewBox="0 0 512 512"><defs><pattern id="wv" width="6" height="6" patternUnits="userSpaceOnUse"><line x1="0" y1="3" x2="6" y2="3" stroke="#000" stroke-opacity="0.05" stroke-width="1"/><line x1="3" y1="0" x2="3" y2="6" stroke="#fff" stroke-opacity="0.04" stroke-width="1"/></pattern></defs><rect width="512" height="512" fill="#4a463e"/><rect x="0" y="64" width="64" height="64" fill="#36332d"/><rect x="0" y="192" width="64" height="64" fill="#36332d"/><rect x="0" y="320" width="64" height="64" fill="#36332d"/><rect x="0" y="448" width="64" height="64" fill="#36332d"/><rect x="64" y="0" width="64" height="64" fill="#36332d"/><rect x="64" y="128" width="64" height="64" fill="#36332d"/><rect x="64" y="256" width="64" height="64" fill="#36332d"/><rect x="64" y="384" width="64" height="64" fill="#36332d"/><rect x="128" y="64" width="64" height="64" fill="#36332d"/><rect x="128" y="192" width="64" height="64" fill="#36332d"/><rect x="128" y="320" width="64" height="64" fill="#36332d"/><rect x="128" y="448" width="64" height="64" fill="#36332d"/><rect x="192" y="0" width="64" height="64" fill="#36332d"/><rect x="192" y="128" width="64" height="64" fill="#36332d"/><rect x="192" y="256" width="64" height="64" fill="#36332d"/><rect x="192" y="384" width="64" height="64" fill="#36332d"/><rect x="256" y="64" width="64" height="64" fill="#36332d"/><rect x="256" y="192" width="64" height="64" fill="#36332d"/><rect x="256" y="320" width="64" height="64" fill="#36332d"/><rect x="256" y="448" width="64" height="64" fill="#36332d"/><rect x="320" y="0" width="64" height="64" fill="#36332d"/><rect x="320" y="128" width="64" height="64" fill="#36332d"/><rect x="320" y="256" width="64" height="64" fill="#36332d"/><rect x="320" y="384" width="64" height="64" fill="#36332d"/><rect x="384" y="64" width="64" height="64" fill="#36332d"/><rect x="384" y="192" width="64" height="64" fill="#36332d"/><rect x="384" y="320" width="64" height="64" fill="#36332d"/><rect x="384" y="448" width="64" height="64" fill="#36332d"/><rect x="448" y="0" width="64" height="64" fill="#36332d"/><rect x="448" y="128" width="64" height="64" fill="#36332d"/><rect x="448" y="256" width="64" height="64" fill="#36332d"/><rect x="448" y="384" width="64" height="64" fill="#36332d"/><rect width="512" height="512" fill="url(#wv)"/></svg>