<svg xmlns="http://www.w3.org/2000/svg" width="512" height="512" viewBox="0 0 512 512"><defs><pattern id="wv" width="6" height="6" patternUnits="userSpaceOnUse"><line x1="0" y1="3" x2="6" y2="3" stroke="#000" stroke-opacity="0.05" stroke-width="1"/><line x1="3" y1="0" x2="3" y2="6" stroke="#fff" stroke-opacity="0.04" stroke-width="1"/></pattern></defs><rect width="512" height="512" fill="#6e4030"/><rect x="0" y="0" width="20" height="512" fill="#6e4030"/><rect x="20" y="0" width="4" height="512" fill="#c9a24b"/><rect x="24" y="0" width="14" height="512" fill="#37445e"/><rect x="38" y="0" width="2" height="512" fill="#d8c8a8"/><rect x="40" y="0" width="14" height="512" fill="#37445e"/><rect x="54" y="0" width="4" height="512" fill="#c9a24b"/><rect x="58" y="0" width="6" height="512" fill="#6e4030"/><rect x="64" y="0" width="20" height="512" fill="#6e4030"/><rect x="84" y="0" width="4" height="512" fill="#c9a24b"/><rect x="88" y="0" width="14" height="512" fill="#37445e"/><rect x="102" y="0" width="2" height="512" fill="#d8c8a8"/><rect x="104" y="0" width="14" height="512" fill="#37445e"/><rect x="118" y="0" width="4" height="512" fill="#c9a24b"/><rect x="122" y="0" width="6" height="512" fill="#6e4030"/><rect x="128" y="0" width="20" height="512" fill="#6e4030"/><rect x="148" y="0" width="4" height="512" fill="#c9a24b"/><rect x="152" y="0" width="14" height="512" fill="#37445e"/><rect x="166" y="0" width="2" height="512" fill="#d8c8a8"/><rect x="168" y="0" width="14" height="512" fill="#37445e"/><rect x="182" y="0" width="4" height="512" fill="#c9a24b"/><rect x="186" y="0" width="6" height="512" fill="#6e4030"/><rect x="192" y="0" width="20" height="512" fill="#6e4030"/><rect x="212" y="0" width="4" height="512" fill="#c9a24b"/><rect x="216" y="0" width="14" height="512" fill="#37445e"/><rect x="230" y="0" width="2" height="512" fill="#d8c8a8"/><rect x="232" y="0" width="14" height="512" fill="#37445e"/><rect x="246" y="0" width="4" height="512" fill="#c9a24b"/><rect x="250" y="0" width="6" height="512" fill="#6e4030"/><rect x="256" y="0" width="20" height="512" fill="#6e4030"/><rect x="276" y="0" width="4" height="512" fill="#c9a24b"/><rect x="280" y="0" width="14" height="512" fill="#37445e"/><rect x="294" y="0" width="2" height="512" fill="#d8c8a8"/><rect x="296" y="0" width="14" height="512" fill="#37445e"/><rect x="310" y="0" width="4" height="512" fill="#c9a24b"/><rect x="314" y="0" width="6" height="512" fill="#6e4030"/><rect x="320" y="0" width="20" height="512" fill="#6e4030"/><rect x="340" y="0" width="4" height="512" fill="#c9a24b"/><rect x="344" y="0" width="14" height="512" fill="#37445e"/><rect x="358" y="0" width="2" height="512" fill="#d8c8a8"/><rect x="360" y="0" width="14" height="512" fill="#37445e"/><rect x="374" y="0" width="4" height="512" fill="#c9a24b"/><rect x="378" y="0" width="6" height="512" fill="#6e4030"/><rect x="384" y="0" width="20" height="512" fill="#6e4030"/><rect x="404" y="0" width="4" height="512" fill="#c9a24b"/><rect x="408" y="0" width="14" height="512" fill="#37445e"/><rect x="422" y="0" width="2" height="512" fill="#d8c8a8"/><rect x="424" y="0" width="14" height="512" fill="#37445e"/><rect x="438" y="0" width="4" height="512" fill="#c9a24b"/><rect x="442" y="0" width="6" height="512" fill="#6e4030"/><rect x="448" y="0" width="20" height="512" fill="#6e4030"/><rect x="468" y="0" width="4" height="512" fill="#c9a24b"/><rect x="472" y="0" width="14" height="512" fill="#37445e"/><rect x="486" y="0" width="2" height="512" fill="#d8c8a8"/><rect x="488" y="0" width="14" height="512" fill="#37445e"/><rect x="502" y="0" width="4" height="512" fill="#c9a24b"/><rect x="506" y="0" width="6" height="512" fill="#6e4030"/><rect width="512" height="512" fill="url(#wv)"/></svg>