<svg xmlns="http://www.w3.org/2000/svg" width="512" height="512" viewBox="0 0 512 512"><defs><pattern id="wv" width="6" height="6" patternUnits="userSpaceOnUse"><line x1="0" y1="3" x2="6" y2="3" stroke="#000" stroke-opacity="0.05" stroke-width="1"/><line x1="3" y1="0" x2="3" y2="6" stroke="#fff" stroke-opacity="0.04" stroke-width="1"/></pattern></defs><rect width="512" height="512" fill="#c9a85c"/><rect x="0" y="0" width="6" height="512" fill="#b08e44" opacity="0.49"/><rect x="8" y="0" width="5" height="512" fill="#d9bd78" opacity="0.41"/><rect x="16" y="0" width="3" height="512" fill="#d9bd78" opacity="0.25"/><rect x="24" y="0" width="6" height="512" fill="#b08e44" opacity="0.49"/><rect x="32" y="0" width="5" height="512" fill="#d9bd78" opacity="0.41"/><rect x="40" y="0" width="3" height="512" fill="#d9bd78" opacity="0.25"/><rect x="48" y="0" width="6" height="512" fill="#b08e44" opacity="0.49"/><rect x="56" y="0" width="5" height="512" fill="#d9bd78" opacity="0.41"/><rect x="64" y="0" width="3" height="512" fill="#d9bd78" opacity="0.25"/><rect x="72" y="0" width="6" height="512" fill="#b08e44" opacity="0.49"/><rect x="80" y="0" width="5" height="512" fill="#d9bd78" opacity="0.41"/><rect x="88" y="0" width="3" height="512" fill="#d9bd78" opacity="0.25"/><rect x="96" y="0" width="6" height="512" fill="#b08e44" opacity="0.49"/><rect x="104" y="0" width="5" height="512" fill="#d9bd78" opacity="0.41"/><rect x="112" y="0" width="3" height="512" fill="#d9bd78" opacity="0.25"/><rect x="120" y="0" width="6" height="512" fill="#b08e44" opacity="0.49"/><rect x="128" y="0" width="5" height="512" fill="#d9bd78" opacity="0.41"/><rect x="136" y="0" width="3" height="512" fill="#d9bd78" opacity="0.25"/><rect x="144" y="0" width="6" height="512" fill="#b08e44" opacity="0.49"/><rect x="152" y="0" width="5" height="512" fill="#d9bd78" opacity="0.41"/><rect x="160" y="0" width="3" height="512" fill="#d9bd78" opacity="0.25"/><rect x="168" y="0" width="6" height="512" fill="#b08e44" opacity="0.49"/><rect x="176" y="0" width="4" height="512" fill="#b08e44" opacity="0.33"/><rect x="184" y="0" width="3" height="512" fill="#d9bd78" opacity="0.25"/><rect x="192" y="0" width="6" height="512" fill="#b08e44" opacity="0.49"/><rect x="200" y="0" width="4" height="512" fill="#b08e44" opacity="0.33"/><rect x="208" y="0" width="3" height="512" fill="#d9bd78" opacity="0.25"/><rect x="216" y="0" width="6" height="512" fill="#b08e44" opacity="0.49"/><rect x="224" y="0" width="4" height="512" fill="#b08e44" opacity="0.33"/><rect x="232" y="0" width="3" height="512" fill="#d9bd78" opacity="0.25"/><rect x="240" y="0" width="6" height="512" fill="#b08e44" opacity="0.49"/><rect x="248" y="0" width="4" height="512" fill="#b08e44" opacity="0.33"/><rect x="256" y="0" width="3" height="512" fill="#d9bd78" opacity="0.25"/><rect x="264" y="0" width="6" height="512" fill="#b08e44" opacity="0.49"/><rect x="272" y="0" width="4" height="512" fill="#b08e44" opacity="0.33"/><rect x="280" y="0" width="3" height="512" fill="#d9bd78" opacity="0.25"/><rect x="288" y="0" width="6" height="512" fill="#b08e44" opacity="0.49"/><rect x="296" y="0" width="4" height="512" fill="#b08e44" opacity="0.33"/><rect x="304" y="0" width="3" height="512" fill="#d9bd78" opacity="0.25"/><rect x="312" y="0" width="6" height="512" fill="#b08e44" opacity="0.49"/><rect x="320" y="0" width="4" height="512" fill="#b08e44" opacity="0.33"/><rect x="328" y="0" width="3" height="512" fill="#d9bd78" opacity="0.25"/><rect x="336" y="0" width="6" height="512" fill="#b08e44" opacity="0.49"/><rect x="344" y="0" width="4" height="512" fill="#b08e44" opacity="0.33"/><rect x="352" y="0" width="3" height="512" fill="#d9bd78" opacity="0.25"/><rect x="360" y="0" width="5" height="512" fill="#d9bd78" opacity="0.41"/><rect x="368" y="0" width="4" height="512" fill="#b08e44" opacity="0.33"/><rect x="376" y="0" width="3" height="512" fill="#d9bd78" opacity="0.25"/><rect x="384" y="0" width="5" height="512" fill="#d9bd78" opacity="0.41"/><rect x="392" y="0" width="4" height="512" fill="#b08e44" opacity="0.33"/><rect x="400" y="0" width="3" height="512" fill="#d9bd78" opacity="0.25"/><rect x="408" y="0" width="5" height="512" fill="#d9bd78" opacity="0.41"/><rect x="416" y="0" width="4" height="512" fill="#b08e44" opacity="0.33"/><rect x="424" y="0" width="3" height="512" fill="#d9bd78" opacity="0.25"/><rect x="432" y="0" width="5" height="512" fill="#d9bd78" opacity="0.41"/><rect x="440" y="0" width="4" height="512" fill="#b08e44" opacity="0.33"/><rect x="448" y="0" width="3" height="512" fill="#d9bd78" opacity="0.25"/><rect x="456" y="0" width="5" height="512" fill="#d9bd78" opacity="0.41"/><rect x="464" y="0" width="4" height="512" fill="#b08e44" opacity="0.33"/><rect x="472" y="0" width="3" height="512" fill="#d9bd78" opacity="0.25"/><rect x="480" y="0" width="5" height="512" fill="#d9bd78" opacity="0.41"/><rect x="488" y="0" width="4" height="512" fill="#b08e44" opacity="0.33"/><rect x="496" y="0" width="3" height="512" fill="#d9bd78" opacity="0.25"/><rect x="504" y="0" width="5" height="512" fill="#d9bd78" opacity="0.41"/><line x1="0" y1="0" x2="512" y2="0" stroke="#a8853c" stroke-opacity="0.35" stroke-width="1.5"/><line x1="0" y1="128" x2="512" y2="128" stroke="#a8853c" stroke-opacity="0.35" stroke-width="1.5"/><line x1="0" y1="256" x2="512" y2="256" stroke="#a8853c" stroke-opacity="0.35" stroke-width="1.5"/><line x1="0" y1="384" x2="512" y2="384" stroke="#a8853c" stroke-opacity="0.35" stroke-width="1.5"/><rect width="512" height="512" fill="url(#wv)"/></svg>