<svg xmlns="http://www.w3.org/2000/svg" width="512" height="384" viewBox="0 0 512 384"><defs><pattern id="wv" width="6" height="6" patternUnits="userSpaceOnUse"><line x1="0" y1="3" x2="6" y2="3" stroke="#000" stroke-opacity="0.05" stroke-width="1"/><line x1="3" y1="0" x2="3" y2="6" stroke="#fff" stroke-opacity="0.04" stroke-width="1"/></pattern></defs><rect width="512" height="384" fill="#6f5436"/><rect x="-36" y="-54" width="72" height="12" rx="6" fill="#c9a24b" stroke="#8a6e2f" stroke-width="1"/><rect x="-24" y="-66" width="48" height="12" rx="6" fill="#c9a24b" stroke="#8a6e2f" stroke-width="1"/><rect x="-13" y="-78" width="26" height="12" rx="6" fill="#c9a24b" stroke="#8a6e2f" stroke-width="1"/><rect x="-20" y="-42" width="40" height="12" rx="6" fill="#c9a24b" stroke="#8a6e2f" stroke-width="1"/><rect x="92" y="-54" width="72" height="12" rx="6" fill="#c9a24b" stroke="#8a6e2f" stroke-width="1"/><rect x="104" y="-66" width="48" height="12" rx="6" fill="#c9a24b" stroke="#8a6e2f" stroke-width="1"/><rect x="115" y="-78" width="26" height="12" rx="6" fill="#c9a24b" stroke="#8a6e2f" stroke-width="1"/><rect x="108" y="-42" width="40" height="12" rx="6" fill="#c9a24b" stroke="#8a6e2f" stroke-width="1"/><rect x="220" y="-54" width="72" height="12" rx="6" fill="#c9a24b" stroke="#8a6e2f" stroke-width="1"/><rect x="232" y="-66" width="48" height="12" rx="6" fill="#c9a24b" stroke="#8a6e2f" stroke-width="1"/><rect x="243" y="-78" width="26" height="12" rx="6" fill="#c9a24b" stroke="#8a6e2f" stroke-width="1"/><rect x="236" y="-42" width="40" height="12" rx="6" fill="#c9a24b" stroke="#8a6e2f" stroke-width="1"/><rect x="348" y="-54" width="72" height="12" rx="6" fill="#c9a24b" stroke="#8a6e2f" stroke-width="1"/><rect x="360" y="-66" width="48" height="12" rx="6" fill="#c9a24b" stroke="#8a6e2f" stroke-width="1"/><rect x="371" y="-78" width="26" height="12" rx="6" fill="#c9a24b" stroke="#8a6e2f" stroke-width="1"/><rect x="364" y="-42" width="40" height="12" rx="6" fill="#c9a24b" stroke="#8a6e2f" stroke-width="1"/><rect x="476" y="-54" width="72" height="12" rx="6" fill="#c9a24b" stroke="#8a6e2f" stroke-width="1"/><rect x="488" y="-66" width="48" height="12" rx="6" fill="#c9a24b" stroke="#8a6e2f" stroke-width="1"/><rect x="499" y="-78" width="26" height="12" rx="6" fill="#c9a24b" stroke="#8a6e2f" stroke-width="1"/><rect x="492" y="-42" width="40" height="12" rx="6" fill="#c9a24b" stroke="#8a6e2f" stroke-width="1"/><rect x="604" y="-54" width="72" height="12" rx="6" fill="#c9a24b" stroke="#8a6e2f" stroke-width="1"/><rect x="616" y="-66" width="48" height="12" rx="6" fill="#c9a24b" stroke="#8a6e2f" stroke-width="1"/><rect x="627" y="-78" width="26" height="12" rx="6" fill="#c9a24b" stroke="#8a6e2f" stroke-width="1"/><rect x="620" y="-42" width="40" height="12" rx="6" fill="#c9a24b" stroke="#8a6e2f" stroke-width="1"/><rect x="-100" y="42" width="72" height="12" rx="6" fill="#c9a24b" stroke="#8a6e2f" stroke-width="1"/><rect x="-88" y="30" width="48" height="12" rx="6" fill="#c9a24b" stroke="#8a6e2f" stroke-width="1"/><rect x="-77" y="18" width="26" height="12" rx="6" fill="#c9a24b" stroke="#8a6e2f" stroke-width="1"/><rect x="-84" y="54" width="40" height="12" rx="6" fill="#c9a24b" stroke="#8a6e2f" stroke-width="1"/><rect x="28" y="42" width="72" height="12" rx="6" fill="#c9a24b" stroke="#8a6e2f" stroke-width="1"/><rect x="40" y="30" width="48" height="12" rx="6" fill="#c9a24b" stroke="#8a6e2f" stroke-width="1"/><rect x="51" y="18" width="26" height="12" rx="6" fill="#c9a24b" stroke="#8a6e2f" stroke-width="1"/><rect x="44" y="54" width="40" height="12" rx="6" fill="#c9a24b" stroke="#8a6e2f" stroke-width="1"/><rect x="156" y="42" width="72" height="12" rx="6" fill="#c9a24b" stroke="#8a6e2f" stroke-width="1"/><rect x="168" y="30" width="48" height="12" rx="6" fill="#c9a24b" stroke="#8a6e2f" stroke-width="1"/><rect x="179" y="18" width="26" height="12" rx="6" fill="#c9a24b" stroke="#8a6e2f" stroke-width="1"/><rect x="172" y="54" width="40" height="12" rx="6" fill="#c9a24b" stroke="#8a6e2f" stroke-width="1"/><rect x="284" y="42" width="72" height="12" rx="6" fill="#c9a24b" stroke="#8a6e2f" stroke-width="1"/><rect x="296" y="30" width="48" height="12" rx="6" fill="#c9a24b" stroke="#8a6e2f" stroke-width="1"/><rect x="307" y="18" width="26" height="12" rx="6" fill="#c9a24b" stroke="#8a6e2f" stroke-width="1"/><rect x="300" y="54" width="40" height="12" rx="6" fill="#c9a24b" stroke="#8a6e2f" stroke-width="1"/><rect x="412" y="42" width="72" height="12" rx="6" fill="#c9a24b" stroke="#8a6e2f" stroke-width="1"/><rect x="424" y="30" width="48" height="12" rx="6" fill="#c9a24b" stroke="#8a6e2f" stroke-width="1"/><rect x="435" y="18" width="26" height="12" rx="6" fill="#c9a24b" stroke="#8a6e2f" stroke-width="1"/><rect x="428" y="54" width="40" height="12" rx="6" fill="#c9a24b" stroke="#8a6e2f" stroke-width="1"/><rect x="540" y="42" width="72" height="12" rx="6" fill="#c9a24b" stroke="#8a6e2f" stroke-width="1"/><rect x="552" y="30" width="48" height="12" rx="6" fill="#c9a24b" stroke="#8a6e2f" stroke-width="1"/><rect x="563" y="18" width="26" height="12" rx="6" fill="#c9a24b" stroke="#8a6e2f" stroke-width="1"/><rect x="556" y="54" width="40" height="12" rx="6" fill="#c9a24b" stroke="#8a6e2f" stroke-width="1"/><rect x="-36" y="138" width="72" height="12" rx="6" fill="#c9a24b" stroke="#8a6e2f" stroke-width="1"/><rect x="-24" y="126" width="48" height="12" rx="6" fill="#c9a24b" stroke="#8a6e2f" stroke-width="1"/><rect x="-13" y="114" width="26" height="12" rx="6" fill="#c9a24b" stroke="#8a6e2f" stroke-width="1"/><rect x="-20" y="150" width="40" height="12" rx="6" fill="#c9a24b" stroke="#8a6e2f" stroke-width="1"/><rect x="92" y="138" width="72" height="12" rx="6" fill="#c9a24b" stroke="#8a6e2f" stroke-width="1"/><rect x="104" y="126" width="48" height="12" rx="6" fill="#c9a24b" stroke="#8a6e2f" stroke-width="1"/><rect x="115" y="114" width="26" height="12" rx="6" fill="#c9a24b" stroke="#8a6e2f" stroke-width="1"/><rect x="108" y="150" width="40" height="12" rx="6" fill="#c9a24b" stroke="#8a6e2f" stroke-width="1"/><rect x="220" y="138" width="72" height="12" rx="6" fill="#c9a24b" stroke="#8a6e2f" stroke-width="1"/><rect x="232" y="126" width="48" height="12" rx="6" fill="#c9a24b" stroke="#8a6e2f" stroke-width="1"/><rect x="243" y="114" width="26" height="12" rx="6" fill="#c9a24b" stroke="#8a6e2f" stroke-width="1"/><rect x="236" y="150" width="40" height="12" rx="6" fill="#c9a24b" stroke="#8a6e2f" stroke-width="1"/><rect x="348" y="138" width="72" height="12" rx="6" fill="#c9a24b" stroke="#8a6e2f" stroke-width="1"/><rect x="360" y="126" width="48" height="12" rx="6" fill="#c9a24b" stroke="#8a6e2f" stroke-width="1"/><rect x="371" y="114" width="26" height="12" rx="6" fill="#c9a24b" stroke="#8a6e2f" stroke-width="1"/><rect x="364" y="150" width="40" height="12" rx="6" fill="#c9a24b" stroke="#8a6e2f" stroke-width="1"/><rect x="476" y="138" width="72" height="12" rx="6" fill="#c9a24b" stroke="#8a6e2f" stroke-width="1"/><rect x="488" y="126" width="48" height="12" rx="6" fill="#c9a24b" stroke="#8a6e2f" stroke-width="1"/><rect x="499" y="114" width="26" height="12" rx="6" fill="#c9a24b" stroke="#8a6e2f" stroke-width="1"/><rect x="492" y="150" width="40" height="12" rx="6" fill="#c9a24b" stroke="#8a6e2f" stroke-width="1"/><rect x="604" y="138" width="72" height="12" rx="6" fill="#c9a24b" stroke="#8a6e2f" stroke-width="1"/><rect x="616" y="126" width="48" height="12" rx="6" fill="#c9a24b" stroke="#8a6e2f" stroke-width="1"/><rect x="627" y="114" width="26" height="12" rx="6" fill="#c9a24b" stroke="#8a6e2f" stroke-width="1"/><rect x="620" y="150" width="40" height="12" rx="6" fill="#c9a24b" stroke="#8a6e2f" stroke-width="1"/><rect x="-100" y="234" width="72" height="12" rx="6" fill="#c9a24b" stroke="#8a6e2f" stroke-width="1"/><rect x="-88" y="222" width="48" height="12" rx="6" fill="#c9a24b" stroke="#8a6e2f" stroke-width="1"/><rect x="-77" y="210" width="26" height="12" rx="6" fill="#c9a24b" stroke="#8a6e2f" stroke-width="1"/><rect x="-84" y="246" width="40" height="12" rx="6" fill="#c9a24b" stroke="#8a6e2f" stroke-width="1"/><rect x="28" y="234" width="72" height="12" rx="6" fill="#c9a24b" stroke="#8a6e2f" stroke-width="1"/><rect x="40" y="222" width="48" height="12" rx="6" fill="#c9a24b" stroke="#8a6e2f" stroke-width="1"/><rect x="51" y="210" width="26" height="12" rx="6" fill="#c9a24b" stroke="#8a6e2f" stroke-width="1"/><rect x="44" y="246" width="40" height="12" rx="6" fill="#c9a24b" stroke="#8a6e2f" stroke-width="1"/><rect x="156" y="234" width="72" height="12" rx="6" fill="#c9a24b" stroke="#8a6e2f" stroke-width="1"/><rect x="168" y="222" width="48" height="12" rx="6" fill="#c9a24b" stroke="#8a6e2f" stroke-width="1"/><rect x="179" y="210" width="26" height="12" rx="6" fill="#c9a24b" stroke="#8a6e2f" stroke-width="1"/><rect x="172" y="246" width="40" height="12" rx="6" fill="#c9a24b" stroke="#8a6e2f" stroke-width="1"/><rect x="284" y="234" width="72" height="12" rx="6" fill="#c9a24b" stroke="#8a6e2f" stroke-width="1"/><rect x="296" y="222" width="48" height="12" rx="6" fill="#c9a24b" stroke="#8a6e2f" stroke-width="1"/><rect x="307" y="210" width="26" height="12" rx="6" fill="#c9a24b" stroke="#8a6e2f" stroke-width="1"/><rect x="300" y="246" width="40" height="12" rx="6" fill="#c9a24b" stroke="#8a6e2f" stroke-width="1"/><rect x="412" y="234" width="72" height="12" rx="6" fill="#c9a24b" stroke="#8a6e2f" stroke-width="1"/><rect x="424" y="222" width="48" height="12" rx="6" fill="#c9a24b" stroke="#8a6e2f" stroke-width="1"/><rect x="435" y="210" width="26" height="12" rx="6" fill="#c9a24b" stroke="#8a6e2f" stroke-width="1"/><rect x="428" y="246" width="40" height="12" rx="6" fill="#c9a24b" stroke="#8a6e2f" stroke-width="1"/><rect x="540" y="234" width="72" height="12" rx="6" fill="#c9a24b" stroke="#8a6e2f" stroke-width="1"/><rect x="552" y="222" width="48" height="12" rx="6" fill="#c9a24b" stroke="#8a6e2f" stroke-width="1"/><rect x="563" y="210" width="26" height="12" rx="6" fill="#c9a24b" stroke="#8a6e2f" stroke-width="1"/><rect x="556" y="246" width="40" height="12" rx="6" fill="#c9a24b" stroke="#8a6e2f" stroke-width="1"/><rect x="-36" y="330" width="72" height="12" rx="6" fill="#c9a24b" stroke="#8a6e2f" stroke-width="1"/><rect x="-24" y="318" width="48" height="12" rx="6" fill="#c9a24b" stroke="#8a6e2f" stroke-width="1"/><rect x="-13" y="306" width="26" height="12" rx="6" fill="#c9a24b" stroke="#8a6e2f" stroke-width="1"/><rect x="-20" y="342" width="40" height="12" rx="6" fill="#c9a24b" stroke="#8a6e2f" stroke-width="1"/><rect x="92" y="330" width="72" height="12" rx="6" fill="#c9a24b" stroke="#8a6e2f" stroke-width="1"/><rect x="104" y="318" width="48" height="12" rx="6" fill="#c9a24b" stroke="#8a6e2f" stroke-width="1"/><rect x="115" y="306" width="26" height="12" rx="6" fill="#c9a24b" stroke="#8a6e2f" stroke-width="1"/><rect x="108" y="342" width="40" height="12" rx="6" fill="#c9a24b" stroke="#8a6e2f" stroke-width="1"/><rect x="220" y="330" width="72" height="12" rx="6" fill="#c9a24b" stroke="#8a6e2f" stroke-width="1"/><rect x="232" y="318" width="48" height="12" rx="6" fill="#c9a24b" stroke="#8a6e2f" stroke-width="1"/><rect x="243" y="306" width="26" height="12" rx="6" fill="#c9a24b" stroke="#8a6e2f" stroke-width="1"/><rect x="236" y="342" width="40" height="12" rx="6" fill="#c9a24b" stroke="#8a6e2f" stroke-width="1"/><rect x="348" y="330" width="72" height="12" rx="6" fill="#c9a24b" stroke="#8a6e2f" stroke-width="1"/><rect x="360" y="318" width="48" height="12" rx="6" fill="#c9a24b" stroke="#8a6e2f" stroke-width="1"/><rect x="371" y="306" width="26" height="12" rx="6" fill="#c9a24b" stroke="#8a6e2f" stroke-width="1"/><rect x="364" y="342" width="40" height="12" rx="6" fill="#c9a24b" stroke="#8a6e2f" stroke-width="1"/><rect x="476" y="330" width="72" height="12" rx="6" fill="#c9a24b" stroke="#8a6e2f" stroke-width="1"/><rect x="488" y="318" width="48" height="12" rx="6" fill="#c9a24b" stroke="#8a6e2f" stroke-width="1"/><rect x="499" y="306" width="26" height="12" rx="6" fill="#c9a24b" stroke="#8a6e2f" stroke-width="1"/><rect x="492" y="342" width="40" height="12" rx="6" fill="#c9a24b" stroke="#8a6e2f" stroke-width="1"/><rect x="604" y="330" width="72" height="12" rx="6" fill="#c9a24b" stroke="#8a6e2f" stroke-width="1"/><rect x="616" y="318" width="48" height="12" rx="6" fill="#c9a24b" stroke="#8a6e2f" stroke-width="1"/><rect x="627" y="306" width="26" height="12" rx="6" fill="#c9a24b" stroke="#8a6e2f" stroke-width="1"/><rect x="620" y="342" width="40" height="12" rx="6" fill="#c9a24b" stroke="#8a6e2f" stroke-width="1"/><rect x="-100" y="426" width="72" height="12" rx="6" fill="#c9a24b" stroke="#8a6e2f" stroke-width="1"/><rect x="-88" y="414" width="48" height="12" rx="6" fill="#c9a24b" stroke="#8a6e2f" stroke-width="1"/><rect x="-77" y="402" width="26" height="12" rx="6" fill="#c9a24b" stroke="#8a6e2f" stroke-width="1"/><rect x="-84" y="438" width="40" height="12" rx="6" fill="#c9a24b" stroke="#8a6e2f" stroke-width="1"/><rect x="28" y="426" width="72" height="12" rx="6" fill="#c9a24b" stroke="#8a6e2f" stroke-width="1"/><rect x="40" y="414" width="48" height="12" rx="6" fill="#c9a24b" stroke="#8a6e2f" stroke-width="1"/><rect x="51" y="402" width="26" height="12" rx="6" fill="#c9a24b" stroke="#8a6e2f" stroke-width="1"/><rect x="44" y="438" width="40" height="12" rx="6" fill="#c9a24b" stroke="#8a6e2f" stroke-width="1"/><rect x="156" y="426" width="72" height="12" rx="6" fill="#c9a24b" stroke="#8a6e2f" stroke-width="1"/><rect x="168" y="414" width="48" height="12" rx="6" fill="#c9a24b" stroke="#8a6e2f" stroke-width="1"/><rect x="179" y="402" width="26" height="12" rx="6" fill="#c9a24b" stroke="#8a6e2f" stroke-width="1"/><rect x="172" y="438" width="40" height="12" rx="6" fill="#c9a24b" stroke="#8a6e2f" stroke-width="1"/><rect x="284" y="426" width="72" height="12" rx="6" fill="#c9a24b" stroke="#8a6e2f" stroke-width="1"/><rect x="296" y="414" width="48" height="12" rx="6" fill="#c9a24b" stroke="#8a6e2f" stroke-width="1"/><rect x="307" y="402" width="26" height="12" rx="6" fill="#c9a24b" stroke="#8a6e2f" stroke-width="1"/><rect x="300" y="438" width="40" height="12" rx="6" fill="#c9a24b" stroke="#8a6e2f" stroke-width="1"/><rect x="412" y="426" width="72" height="12" rx="6" fill="#c9a24b" stroke="#8a6e2f" stroke-width="1"/><rect x="424" y="414" width="48" height="12" rx="6" fill="#c9a24b" stroke="#8a6e2f" stroke-width="1"/><rect x="435" y="402" width="26" height="12" rx="6" fill="#c9a24b" stroke="#8a6e2f" stroke-width="1"/><rect x="428" y="438" width="40" height="12" rx="6" fill="#c9a24b" stroke="#8a6e2f" stroke-width="1"/><rect x="540" y="426" width="72" height="12" rx="6" fill="#c9a24b" stroke="#8a6e2f" stroke-width="1"/><rect x="552" y="414" width="48" height="12" rx="6" fill="#c9a24b" stroke="#8a6e2f" stroke-width="1"/><rect x="563" y="402" width="26" height="12" rx="6" fill="#c9a24b" stroke="#8a6e2f" stroke-width="1"/><rect x="556" y="438" width="40" height="12" rx="6" fill="#c9a24b" stroke="#8a6e2f" stroke-width="1"/><rect width="512" height="384" fill="url(#wv)"/></svg>