<svg xmlns="http://www.w3.org/2000/svg" width="512" height="512" viewBox="0 0 512 512"><defs><pattern id="wv" width="6" height="6" patternUnits="userSpaceOnUse"><line x1="0" y1="3" x2="6" y2="3" stroke="#000" stroke-opacity="0.05" stroke-width="1"/><line x1="3" y1="0" x2="3" y2="6" stroke="#fff" stroke-opacity="0.04" stroke-width="1"/></pattern></defs><rect width="512" height="512" fill="#6b3a35"/><circle cx="0" cy="-45" r="6" fill="#c9a24b"/><circle cx="12.36" cy="-36.02" r="6" fill="#c9a24b"/><circle cx="7.64" cy="-21.48" r="6" fill="#c9a24b"/><circle cx="-7.64" cy="-21.48" r="6" fill="#c9a24b"/><circle cx="-12.36" cy="-36.02" r="6" fill="#c9a24b"/><circle cx="0" cy="-32" r="5" fill="#8a6e2f"/><circle cx="0" cy="-32" r="2.5" fill="#e3c87e"/><circle cx="64" cy="-45" r="6" fill="#c9a24b"/><circle cx="76.36" cy="-36.02" r="6" fill="#c9a24b"/><circle cx="71.64" cy="-21.48" r="6" fill="#c9a24b"/><circle cx="56.36" cy="-21.48" r="6" fill="#c9a24b"/><circle cx="51.64" cy="-36.02" r="6" fill="#c9a24b"/><circle cx="64" cy="-32" r="5" fill="#8a6e2f"/><circle cx="64" cy="-32" r="2.5" fill="#e3c87e"/><circle cx="128" cy="-45" r="6" fill="#c9a24b"/><circle cx="140.36" cy="-36.02" r="6" fill="#c9a24b"/><circle cx="135.64" cy="-21.48" r="6" fill="#c9a24b"/><circle cx="120.36" cy="-21.48" r="6" fill="#c9a24b"/><circle cx="115.64" cy="-36.02" r="6" fill="#c9a24b"/><circle cx="128" cy="-32" r="5" fill="#8a6e2f"/><circle cx="128" cy="-32" r="2.5" fill="#e3c87e"/><circle cx="192" cy="-45" r="6" fill="#c9a24b"/><circle cx="204.36" cy="-36.02" r="6" fill="#c9a24b"/><circle cx="199.64" cy="-21.48" r="6" fill="#c9a24b"/><circle cx="184.36" cy="-21.48" r="6" fill="#c9a24b"/><circle cx="179.64" cy="-36.02" r="6" fill="#c9a24b"/><circle cx="192" cy="-32" r="5" fill="#8a6e2f"/><circle cx="192" cy="-32" r="2.5" fill="#e3c87e"/><circle cx="256" cy="-45" r="6" fill="#c9a24b"/><circle cx="268.36" cy="-36.02" r="6" fill="#c9a24b"/><circle cx="263.64" cy="-21.48" r="6" fill="#c9a24b"/><circle cx="248.36" cy="-21.48" r="6" fill="#c9a24b"/><circle cx="243.64" cy="-36.02" r="6" fill="#c9a24b"/><circle cx="256" cy="-32" r="5" fill="#8a6e2f"/><circle cx="256" cy="-32" r="2.5" fill="#e3c87e"/><circle cx="320" cy="-45" r="6" fill="#c9a24b"/><circle cx="332.36" cy="-36.02" r="6" fill="#c9a24b"/><circle cx="327.64" cy="-21.48" r="6" fill="#c9a24b"/><circle cx="312.36" cy="-21.48" r="6" fill="#c9a24b"/><circle cx="307.64" cy="-36.02" r="6" fill="#c9a24b"/><circle cx="320" cy="-32" r="5" fill="#8a6e2f"/><circle cx="320" cy="-32" r="2.5" fill="#e3c87e"/><circle cx="384" cy="-45" r="6" fill="#c9a24b"/><circle cx="396.36" cy="-36.02" r="6" fill="#c9a24b"/><circle cx="391.64" cy="-21.48" r="6" fill="#c9a24b"/><circle cx="376.36" cy="-21.48" r="6" fill="#c9a24b"/><circle cx="371.64" cy="-36.02" r="6" fill="#c9a24b"/><circle cx="384" cy="-32" r="5" fill="#8a6e2f"/><circle cx="384" cy="-32" r="2.5" fill="#e3c87e"/><circle cx="448" cy="-45" r="6" fill="#c9a24b"/><circle cx="460.36" cy="-36.02" r="6" fill="#c9a24b"/><circle cx="455.64" cy="-21.48" r="6" fill="#c9a24b"/><circle cx="440.36" cy="-21.48" r="6" fill="#c9a24b"/><circle cx="435.64" cy="-36.02" r="6" fill="#c9a24b"/><circle cx="448" cy="-32" r="5" fill="#8a6e2f"/><circle cx="448" cy="-32" r="2.5" fill="#e3c87e"/><circle cx="512" cy="-45" r="6" fill="#c9a24b"/><circle cx="524.36" cy="-36.02" r="6" fill="#c9a24b"/><circle cx="519.64" cy="-21.48" r="6" fill="#c9a24b"/><circle cx="504.36" cy="-21.48" r="6" fill="#c9a24b"/><circle cx="499.64" cy="-36.02" r="6" fill="#c9a24b"/><circle cx="512" cy="-32" r="5" fill="#8a6e2f"/><circle cx="512" cy="-32" r="2.5" fill="#e3c87e"/><circle cx="576" cy="-45" r="6" fill="#c9a24b"/><circle cx="588.36" cy="-36.02" r="6" fill="#c9a24b"/><circle cx="583.64" cy="-21.48" r="6" fill="#c9a24b"/><circle cx="568.36" cy="-21.48" r="6" fill="#c9a24b"/><circle cx="563.64" cy="-36.02" r="6" fill="#c9a24b"/><circle cx="576" cy="-32" r="5" fill="#8a6e2f"/><circle cx="576" cy="-32" r="2.5" fill="#e3c87e"/><circle cx="-32" cy="19" r="6" fill="#c9a24b"/><circle cx="-19.64" cy="27.98" r="6" fill="#c9a24b"/><circle cx="-24.36" cy="42.52" r="6" fill="#c9a24b"/><circle cx="-39.64" cy="42.52" r="6" fill="#c9a24b"/><circle cx="-44.36" cy="27.98" r="6" fill="#c9a24b"/><circle cx="-32" cy="32" r="5" fill="#8a6e2f"/><circle cx="-32" cy="32" r="2.5" fill="#e3c87e"/><circle cx="32" cy="19" r="6" fill="#c9a24b"/><circle cx="44.36" cy="27.98" r="6" fill="#c9a24b"/><circle cx="39.64" cy="42.52" r="6" fill="#c9a24b"/><circle cx="24.36" cy="42.52" r="6" fill="#c9a24b"/><circle cx="19.64" cy="27.98" r="6" fill="#c9a24b"/><circle cx="32" cy="32" r="5" fill="#8a6e2f"/><circle cx="32" cy="32" r="2.5" fill="#e3c87e"/><circle cx="96" cy="19" r="6" fill="#c9a24b"/><circle cx="108.36" cy="27.98" r="6" fill="#c9a24b"/><circle cx="103.64" cy="42.52" r="6" fill="#c9a24b"/><circle cx="88.36" cy="42.52" r="6" fill="#c9a24b"/><circle cx="83.64" cy="27.98" r="6" fill="#c9a24b"/><circle cx="96" cy="32" r="5" fill="#8a6e2f"/><circle cx="96" cy="32" r="2.5" fill="#e3c87e"/><circle cx="160" cy="19" r="6" fill="#c9a24b"/><circle cx="172.36" cy="27.98" r="6" fill="#c9a24b"/><circle cx="167.64" cy="42.52" r="6" fill="#c9a24b"/><circle cx="152.36" cy="42.52" r="6" fill="#c9a24b"/><circle cx="147.64" cy="27.98" r="6" fill="#c9a24b"/><circle cx="160" cy="32" r="5" fill="#8a6e2f"/><circle cx="160" cy="32" r="2.5" fill="#e3c87e"/><circle cx="224" cy="19" r="6" fill="#c9a24b"/><circle cx="236.36" cy="27.98" r="6" fill="#c9a24b"/><circle cx="231.64" cy="42.52" r="6" fill="#c9a24b"/><circle cx="216.36" cy="42.52" r="6" fill="#c9a24b"/><circle cx="211.64" cy="27.98" r="6" fill="#c9a24b"/><circle cx="224" cy="32" r="5" fill="#8a6e2f"/><circle cx="224" cy="32" r="2.5" fill="#e3c87e"/><circle cx="288" cy="19" r="6" fill="#c9a24b"/><circle cx="300.36" cy="27.98" r="6" fill="#c9a24b"/><circle cx="295.64" cy="42.52" r="6" fill="#c9a24b"/><circle cx="280.36" cy="42.52" r="6" fill="#c9a24b"/><circle cx="275.64" cy="27.98" r="6" fill="#c9a24b"/><circle cx="288" cy="32" r="5" fill="#8a6e2f"/><circle cx="288" cy="32" r="2.5" fill="#e3c87e"/><circle cx="352" cy="19" r="6" fill="#c9a24b"/><circle cx="364.36" cy="27.98" r="6" fill="#c9a24b"/><circle cx="359.64" cy="42.52" r="6" fill="#c9a24b"/><circle cx="344.36" cy="42.52" r="6" fill="#c9a24b"/><circle cx="339.64" cy="27.98" r="6" fill="#c9a24b"/><circle cx="352" cy="32" r="5" fill="#8a6e2f"/><circle cx="352" cy="32" r="2.5" fill="#e3c87e"/><circle cx="416" cy="19" r="6" fill="#c9a24b"/><circle cx="428.36" cy="27.98" r="6" fill="#c9a24b"/><circle cx="423.64" cy="42.52" r="6" fill="#c9a24b"/><circle cx="408.36" cy="42.52" r="6" fill="#c9a24b"/><circle cx="403.64" cy="27.98" r="6" fill="#c9a24b"/><circle cx="416" cy="32" r="5" fill="#8a6e2f"/><circle cx="416" cy="32" r="2.5" fill="#e3c87e"/><circle cx="480" cy="19" r="6" fill="#c9a24b"/><circle cx="492.36" cy="27.98" r="6" fill="#c9a24b"/><circle cx="487.64" cy="42.52" r="6" fill="#c9a24b"/><circle cx="472.36" cy="42.52" r="6" fill="#c9a24b"/><circle cx="467.64" cy="27.98" r="6" fill="#c9a24b"/><circle cx="480" cy="32" r="5" fill="#8a6e2f"/><circle cx="480" cy="32" r="2.5" fill="#e3c87e"/><circle cx="544" cy="19" r="6" fill="#c9a24b"/><circle cx="556.36" cy="27.98" r="6" fill="#c9a24b"/><circle cx="551.64" cy="42.52" r="6" fill="#c9a24b"/><circle cx="536.36" cy="42.52" r="6" fill="#c9a24b"/><circle cx="531.64" cy="27.98" r="6" fill="#c9a24b"/><circle cx="544" cy="32" r="5" fill="#8a6e2f"/><circle cx="544" cy="32" r="2.5" fill="#e3c87e"/><circle cx="0" cy="83" r="6" fill="#c9a24b"/><circle cx="12.36" cy="91.98" r="6" fill="#c9a24b"/><circle cx="7.64" cy="106.52" r="6" fill="#c9a24b"/><circle cx="-7.64" cy="106.52" r="6" fill="#c9a24b"/><circle cx="-12.36" cy="91.98" r="6" fill="#c9a24b"/><circle cx="0" cy="96" r="5" fill="#8a6e2f"/><circle cx="0" cy="96" r="2.5" fill="#e3c87e"/><circle cx="64" cy="83" r="6" fill="#c9a24b"/><circle cx="76.36" cy="91.98" r="6" fill="#c9a24b"/><circle cx="71.64" cy="106.52" r="6" fill="#c9a24b"/><circle cx="56.36" cy="106.52" r="6" fill="#c9a24b"/><circle cx="51.64" cy="91.98" r="6" fill="#c9a24b"/><circle cx="64" cy="96" r="5" fill="#8a6e2f"/><circle cx="64" cy="96" r="2.5" fill="#e3c87e"/><circle cx="128" cy="83" r="6" fill="#c9a24b"/><circle cx="140.36" cy="91.98" r="6" fill="#c9a24b"/><circle cx="135.64" cy="106.52" r="6" fill="#c9a24b"/><circle cx="120.36" cy="106.52" r="6" fill="#c9a24b"/><circle cx="115.64" cy="91.98" r="6" fill="#c9a24b"/><circle cx="128" cy="96" r="5" fill="#8a6e2f"/><circle cx="128" cy="96" r="2.5" fill="#e3c87e"/><circle cx="192" cy="83" r="6" fill="#c9a24b"/><circle cx="204.36" cy="91.98" r="6" fill="#c9a24b"/><circle cx="199.64" cy="106.52" r="6" fill="#c9a24b"/><circle cx="184.36" cy="106.52" r="6" fill="#c9a24b"/><circle cx="179.64" cy="91.98" r="6" fill="#c9a24b"/><circle cx="192" cy="96" r="5" fill="#8a6e2f"/><circle cx="192" cy="96" r="2.5" fill="#e3c87e"/><circle cx="256" cy="83" r="6" fill="#c9a24b"/><circle cx="268.36" cy="91.98" r="6" fill="#c9a24b"/><circle cx="263.64" cy="106.52" r="6" fill="#c9a24b"/><circle cx="248.36" cy="106.52" r="6" fill="#c9a24b"/><circle cx="243.64" cy="91.98" r="6" fill="#c9a24b"/><circle cx="256" cy="96" r="5" fill="#8a6e2f"/><circle cx="256" cy="96" r="2.5" fill="#e3c87e"/><circle cx="320" cy="83" r="6" fill="#c9a24b"/><circle cx="332.36" cy="91.98" r="6" fill="#c9a24b"/><circle cx="327.64" cy="106.52" r="6" fill="#c9a24b"/><circle cx="312.36" cy="106.52" r="6" fill="#c9a24b"/><circle cx="307.64" cy="91.98" r="6" fill="#c9a24b"/><circle cx="320" cy="96" r="5" fill="#8a6e2f"/><circle cx="320" cy="96" r="2.5" fill="#e3c87e"/><circle cx="384" cy="83" r="6" fill="#c9a24b"/><circle cx="396.36" cy="91.98" r="6" fill="#c9a24b"/><circle cx="391.64" cy="106.52" r="6" fill="#c9a24b"/><circle cx="376.36" cy="106.52" r="6" fill="#c9a24b"/><circle cx="371.64" cy="91.98" r="6" fill="#c9a24b"/><circle cx="384" cy="96" r="5" fill="#8a6e2f"/><circle cx="384" cy="96" r="2.5" fill="#e3c87e"/><circle cx="448" cy="83" r="6" fill="#c9a24b"/><circle cx="460.36" cy="91.98" r="6" fill="#c9a24b"/><circle cx="455.64" cy="106.52" r="6" fill="#c9a24b"/><circle cx="440.36" cy="106.52" r="6" fill="#c9a24b"/><circle cx="435.64" cy="91.98" r="6" fill="#c9a24b"/><circle cx="448" cy="96" r="5" fill="#8a6e2f"/><circle cx="448" cy="96" r="2.5" fill="#e3c87e"/><circle cx="512" cy="83" r="6" fill="#c9a24b"/><circle cx="524.36" cy="91.98" r="6" fill="#c9a24b"/><circle cx="519.64" cy="106.52" r="6" fill="#c9a24b"/><circle cx="504.36" cy="106.52" r="6" fill="#c9a24b"/><circle cx="499.64" cy="91.98" r="6" fill="#c9a24b"/><circle cx="512" cy="96" r="5" fill="#8a6e2f"/><circle cx="512" cy="96" r="2.5" fill="#e3c87e"/><circle cx="576" cy="83" r="6" fill="#c9a24b"/><circle cx="588.36" cy="91.98" r="6" fill="#c9a24b"/><circle cx="583.64" cy="106.52" r="6" fill="#c9a24b"/><circle cx="568.36" cy="106.52" r="6" fill="#c9a24b"/><circle cx="563.64" cy="91.98" r="6" fill="#c9a24b"/><circle cx="576" cy="96" r="5" fill="#8a6e2f"/><circle cx="576" cy="96" r="2.5" fill="#e3c87e"/><circle cx="-32" cy="147" r="6" fill="#c9a24b"/><circle cx="-19.64" cy="155.98" r="6" fill="#c9a24b"/><circle cx="-24.36" cy="170.52" r="6" fill="#c9a24b"/><circle cx="-39.64" cy="170.52" r="6" fill="#c9a24b"/><circle cx="-44.36" cy="155.98" r="6" fill="#c9a24b"/><circle cx="-32" cy="160" r="5" fill="#8a6e2f"/><circle cx="-32" cy="160" r="2.5" fill="#e3c87e"/><circle cx="32" cy="147" r="6" fill="#c9a24b"/><circle cx="44.36" cy="155.98" r="6" fill="#c9a24b"/><circle cx="39.64" cy="170.52" r="6" fill="#c9a24b"/><circle cx="24.36" cy="170.52" r="6" fill="#c9a24b"/><circle cx="19.64" cy="155.98" r="6" fill="#c9a24b"/><circle cx="32" cy="160" r="5" fill="#8a6e2f"/><circle cx="32" cy="160" r="2.5" fill="#e3c87e"/><circle cx="96" cy="147" r="6" fill="#c9a24b"/><circle cx="108.36" cy="155.98" r="6" fill="#c9a24b"/><circle cx="103.64" cy="170.52" r="6" fill="#c9a24b"/><circle cx="88.36" cy="170.52" r="6" fill="#c9a24b"/><circle cx="83.64" cy="155.98" r="6" fill="#c9a24b"/><circle cx="96" cy="160" r="5" fill="#8a6e2f"/><circle cx="96" cy="160" r="2.5" fill="#e3c87e"/><circle cx="160" cy="147" r="6" fill="#c9a24b"/><circle cx="172.36" cy="155.98" r="6" fill="#c9a24b"/><circle cx="167.64" cy="170.52" r="6" fill="#c9a24b"/><circle cx="152.36" cy="170.52" r="6" fill="#c9a24b"/><circle cx="147.64" cy="155.98" r="6" fill="#c9a24b"/><circle cx="160" cy="160" r="5" fill="#8a6e2f"/><circle cx="160" cy="160" r="2.5" fill="#e3c87e"/><circle cx="224" cy="147" r="6" fill="#c9a24b"/><circle cx="236.36" cy="155.98" r="6" fill="#c9a24b"/><circle cx="231.64" cy="170.52" r="6" fill="#c9a24b"/><circle cx="216.36" cy="170.52" r="6" fill="#c9a24b"/><circle cx="211.64" cy="155.98" r="6" fill="#c9a24b"/><circle cx="224" cy="160" r="5" fill="#8a6e2f"/><circle cx="224" cy="160" r="2.5" fill="#e3c87e"/><circle cx="288" cy="147" r="6" fill="#c9a24b"/><circle cx="300.36" cy="155.98" r="6" fill="#c9a24b"/><circle cx="295.64" cy="170.52" r="6" fill="#c9a24b"/><circle cx="280.36" cy="170.52" r="6" fill="#c9a24b"/><circle cx="275.64" cy="155.98" r="6" fill="#c9a24b"/><circle cx="288" cy="160" r="5" fill="#8a6e2f"/><circle cx="288" cy="160" r="2.5" fill="#e3c87e"/><circle cx="352" cy="147" r="6" fill="#c9a24b"/><circle cx="364.36" cy="155.98" r="6" fill="#c9a24b"/><circle cx="359.64" cy="170.52" r="6" fill="#c9a24b"/><circle cx="344.36" cy="170.52" r="6" fill="#c9a24b"/><circle cx="339.64" cy="155.98" r="6" fill="#c9a24b"/><circle cx="352" cy="160" r="5" fill="#8a6e2f"/><circle cx="352" cy="160" r="2.5" fill="#e3c87e"/><circle cx="416" cy="147" r="6" fill="#c9a24b"/><circle cx="428.36" cy="155.98" r="6" fill="#c9a24b"/><circle cx="423.64" cy="170.52" r="6" fill="#c9a24b"/><circle cx="408.36" cy="170.52" r="6" fill="#c9a24b"/><circle cx="403.64" cy="155.98" r="6" fill="#c9a24b"/><circle cx="416" cy="160" r="5" fill="#8a6e2f"/><circle cx="416" cy="160" r="2.5" fill="#e3c87e"/><circle cx="480" cy="147" r="6" fill="#c9a24b"/><circle cx="492.36" cy="155.98" r="6" fill="#c9a24b"/><circle cx="487.64" cy="170.52" r="6" fill="#c9a24b"/><circle cx="472.36" cy="170.52" r="6" fill="#c9a24b"/><circle cx="467.64" cy="155.98" r="6" fill="#c9a24b"/><circle cx="480" cy="160" r="5" fill="#8a6e2f"/><circle cx="480" cy="160" r="2.5" fill="#e3c87e"/><circle cx="544" cy="147" r="6" fill="#c9a24b"/><circle cx="556.36" cy="155.98" r="6" fill="#c9a24b"/><circle cx="551.64" cy="170.52" r="6" fill="#c9a24b"/><circle cx="536.36" cy="170.52" r="6" fill="#c9a24b"/><circle cx="531.64" cy="155.98" r="6" fill="#c9a24b"/><circle cx="544" cy="160" r="5" fill="#8a6e2f"/><circle cx="544" cy="160" r="2.5" fill="#e3c87e"/><circle cx="0" cy="211" r="6" fill="#c9a24b"/><circle cx="12.36" cy="219.98" r="6" fill="#c9a24b"/><circle cx="7.64" cy="234.52" r="6" fill="#c9a24b"/><circle cx="-7.64" cy="234.52" r="6" fill="#c9a24b"/><circle cx="-12.36" cy="219.98" r="6" fill="#c9a24b"/><circle cx="0" cy="224" r="5" fill="#8a6e2f"/><circle cx="0" cy="224" r="2.5" fill="#e3c87e"/><circle cx="64" cy="211" r="6" fill="#c9a24b"/><circle cx="76.36" cy="219.98" r="6" fill="#c9a24b"/><circle cx="71.64" cy="234.52" r="6" fill="#c9a24b"/><circle cx="56.36" cy="234.52" r="6" fill="#c9a24b"/><circle cx="51.64" cy="219.98" r="6" fill="#c9a24b"/><circle cx="64" cy="224" r="5" fill="#8a6e2f"/><circle cx="64" cy="224" r="2.5" fill="#e3c87e"/><circle cx="128" cy="211" r="6" fill="#c9a24b"/><circle cx="140.36" cy="219.98" r="6" fill="#c9a24b"/><circle cx="135.64" cy="234.52" r="6" fill="#c9a24b"/><circle cx="120.36" cy="234.52" r="6" fill="#c9a24b"/><circle cx="115.64" cy="219.98" r="6" fill="#c9a24b"/><circle cx="128" cy="224" r="5" fill="#8a6e2f"/><circle cx="128" cy="224" r="2.5" fill="#e3c87e"/><circle cx="192" cy="211" r="6" fill="#c9a24b"/><circle cx="204.36" cy="219.98" r="6" fill="#c9a24b"/><circle cx="199.64" cy="234.52" r="6" fill="#c9a24b"/><circle cx="184.36" cy="234.52" r="6" fill="#c9a24b"/><circle cx="179.64" cy="219.98" r="6" fill="#c9a24b"/><circle cx="192" cy="224" r="5" fill="#8a6e2f"/><circle cx="192" cy="224" r="2.5" fill="#e3c87e"/><circle cx="256" cy="211" r="6" fill="#c9a24b"/><circle cx="268.36" cy="219.98" r="6" fill="#c9a24b"/><circle cx="263.64" cy="234.52" r="6" fill="#c9a24b"/><circle cx="248.36" cy="234.52" r="6" fill="#c9a24b"/><circle cx="243.64" cy="219.98" r="6" fill="#c9a24b"/><circle cx="256" cy="224" r="5" fill="#8a6e2f"/><circle cx="256" cy="224" r="2.5" fill="#e3c87e"/><circle cx="320" cy="211" r="6" fill="#c9a24b"/><circle cx="332.36" cy="219.98" r="6" fill="#c9a24b"/><circle cx="327.64" cy="234.52" r="6" fill="#c9a24b"/><circle cx="312.36" cy="234.52" r="6" fill="#c9a24b"/><circle cx="307.64" cy="219.98" r="6" fill="#c9a24b"/><circle cx="320" cy="224" r="5" fill="#8a6e2f"/><circle cx="320" cy="224" r="2.5" fill="#e3c87e"/><circle cx="384" cy="211" r="6" fill="#c9a24b"/><circle cx="396.36" cy="219.98" r="6" fill="#c9a24b"/><circle cx="391.64" cy="234.52" r="6" fill="#c9a24b"/><circle cx="376.36" cy="234.52" r="6" fill="#c9a24b"/><circle cx="371.64" cy="219.98" r="6" fill="#c9a24b"/><circle cx="384" cy="224" r="5" fill="#8a6e2f"/><circle cx="384" cy="224" r="2.5" fill="#e3c87e"/><circle cx="448" cy="211" r="6" fill="#c9a24b"/><circle cx="460.36" cy="219.98" r="6" fill="#c9a24b"/><circle cx="455.64" cy="234.52" r="6" fill="#c9a24b"/><circle cx="440.36" cy="234.52" r="6" fill="#c9a24b"/><circle cx="435.64" cy="219.98" r="6" fill="#c9a24b"/><circle cx="448" cy="224" r="5" fill="#8a6e2f"/><circle cx="448" cy="224" r="2.5" fill="#e3c87e"/><circle cx="512" cy="211" r="6" fill="#c9a24b"/><circle cx="524.36" cy="219.98" r="6" fill="#c9a24b"/><circle cx="519.64" cy="234.52" r="6" fill="#c9a24b"/><circle cx="504.36" cy="234.52" r="6" fill="#c9a24b"/><circle cx="499.64" cy="219.98" r="6" fill="#c9a24b"/><circle cx="512" cy="224" r="5" fill="#8a6e2f"/><circle cx="512" cy="224" r="2.5" fill="#e3c87e"/><circle cx="576" cy="211" r="6" fill="#c9a24b"/><circle cx="588.36" cy="219.98" r="6" fill="#c9a24b"/><circle cx="583.64" cy="234.52" r="6" fill="#c9a24b"/><circle cx="568.36" cy="234.52" r="6" fill="#c9a24b"/><circle cx="563.64" cy="219.98" r="6" fill="#c9a24b"/><circle cx="576" cy="224" r="5" fill="#8a6e2f"/><circle cx="576" cy="224" r="2.5" fill="#e3c87e"/><circle cx="-32" cy="275" r="6" fill="#c9a24b"/><circle cx="-19.64" cy="283.98" r="6" fill="#c9a24b"/><circle cx="-24.36" cy="298.52" r="6" fill="#c9a24b"/><circle cx="-39.64" cy="298.52" r="6" fill="#c9a24b"/><circle cx="-44.36" cy="283.98" r="6" fill="#c9a24b"/><circle cx="-32" cy="288" r="5" fill="#8a6e2f"/><circle cx="-32" cy="288" r="2.5" fill="#e3c87e"/><circle cx="32" cy="275" r="6" fill="#c9a24b"/><circle cx="44.36" cy="283.98" r="6" fill="#c9a24b"/><circle cx="39.64" cy="298.52" r="6" fill="#c9a24b"/><circle cx="24.36" cy="298.52" r="6" fill="#c9a24b"/><circle cx="19.64" cy="283.98" r="6" fill="#c9a24b"/><circle cx="32" cy="288" r="5" fill="#8a6e2f"/><circle cx="32" cy="288" r="2.5" fill="#e3c87e"/><circle cx="96" cy="275" r="6" fill="#c9a24b"/><circle cx="108.36" cy="283.98" r="6" fill="#c9a24b"/><circle cx="103.64" cy="298.52" r="6" fill="#c9a24b"/><circle cx="88.36" cy="298.52" r="6" fill="#c9a24b"/><circle cx="83.64" cy="283.98" r="6" fill="#c9a24b"/><circle cx="96" cy="288" r="5" fill="#8a6e2f"/><circle cx="96" cy="288" r="2.5" fill="#e3c87e"/><circle cx="160" cy="275" r="6" fill="#c9a24b"/><circle cx="172.36" cy="283.98" r="6" fill="#c9a24b"/><circle cx="167.64" cy="298.52" r="6" fill="#c9a24b"/><circle cx="152.36" cy="298.52" r="6" fill="#c9a24b"/><circle cx="147.64" cy="283.98" r="6" fill="#c9a24b"/><circle cx="160" cy="288" r="5" fill="#8a6e2f"/><circle cx="160" cy="288" r="2.5" fill="#e3c87e"/><circle cx="224" cy="275" r="6" fill="#c9a24b"/><circle cx="236.36" cy="283.98" r="6" fill="#c9a24b"/><circle cx="231.64" cy="298.52" r="6" fill="#c9a24b"/><circle cx="216.36" cy="298.52" r="6" fill="#c9a24b"/><circle cx="211.64" cy="283.98" r="6" fill="#c9a24b"/><circle cx="224" cy="288" r="5" fill="#8a6e2f"/><circle cx="224" cy="288" r="2.5" fill="#e3c87e"/><circle cx="288" cy="275" r="6" fill="#c9a24b"/><circle cx="300.36" cy="283.98" r="6" fill="#c9a24b"/><circle cx="295.64" cy="298.52" r="6" fill="#c9a24b"/><circle cx="280.36" cy="298.52" r="6" fill="#c9a24b"/><circle cx="275.64" cy="283.98" r="6" fill="#c9a24b"/><circle cx="288" cy="288" r="5" fill="#8a6e2f"/><circle cx="288" cy="288" r="2.5" fill="#e3c87e"/><circle cx="352" cy="275" r="6" fill="#c9a24b"/><circle cx="364.36" cy="283.98" r="6" fill="#c9a24b"/><circle cx="359.64" cy="298.52" r="6" fill="#c9a24b"/><circle cx="344.36" cy="298.52" r="6" fill="#c9a24b"/><circle cx="339.64" cy="283.98" r="6" fill="#c9a24b"/><circle cx="352" cy="288" r="5" fill="#8a6e2f"/><circle cx="352" cy="288" r="2.5" fill="#e3c87e"/><circle cx="416" cy="275" r="6" fill="#c9a24b"/><circle cx="428.36" cy="283.98" r="6" fill="#c9a24b"/><circle cx="423.64" cy="298.52" r="6" fill="#c9a24b"/><circle cx="408.36" cy="298.52" r="6" fill="#c9a24b"/><circle cx="403.64" cy="283.98" r="6" fill="#c9a24b"/><circle cx="416" cy="288" r="5" fill="#8a6e2f"/><circle cx="416" cy="288" r="2.5" fill="#e3c87e"/><circle cx="480" cy="275" r="6" fill="#c9a24b"/><circle cx="492.36" cy="283.98" r="6" fill="#c9a24b"/><circle cx="487.64" cy="298.52" r="6" fill="#c9a24b"/><circle cx="472.36" cy="298.52" r="6" fill="#c9a24b"/><circle cx="467.64" cy="283.98" r="6" fill="#c9a24b"/><circle cx="480" cy="288" r="5" fill="#8a6e2f"/><circle cx="480" cy="288" r="2.5" fill="#e3c87e"/><circle cx="544" cy="275" r="6" fill="#c9a24b"/><circle cx="556.36" cy="283.98" r="6" fill="#c9a24b"/><circle cx="551.64" cy="298.52" r="6" fill="#c9a24b"/><circle cx="536.36" cy="298.52" r="6" fill="#c9a24b"/><circle cx="531.64" cy="283.98" r="6" fill="#c9a24b"/><circle cx="544" cy="288" r="5" fill="#8a6e2f"/><circle cx="544" cy="288" r="2.5" fill="#e3c87e"/><circle cx="0" cy="339" r="6" fill="#c9a24b"/><circle cx="12.36" cy="347.98" r="6" fill="#c9a24b"/><circle cx="7.64" cy="362.52" r="6" fill="#c9a24b"/><circle cx="-7.64" cy="362.52" r="6" fill="#c9a24b"/><circle cx="-12.36" cy="347.98" r="6" fill="#c9a24b"/><circle cx="0" cy="352" r="5" fill="#8a6e2f"/><circle cx="0" cy="352" r="2.5" fill="#e3c87e"/><circle cx="64" cy="339" r="6" fill="#c9a24b"/><circle cx="76.36" cy="347.98" r="6" fill="#c9a24b"/><circle cx="71.64" cy="362.52" r="6" fill="#c9a24b"/><circle cx="56.36" cy="362.52" r="6" fill="#c9a24b"/><circle cx="51.64" cy="347.98" r="6" fill="#c9a24b"/><circle cx="64" cy="352" r="5" fill="#8a6e2f"/><circle cx="64" cy="352" r="2.5" fill="#e3c87e"/><circle cx="128" cy="339" r="6" fill="#c9a24b"/><circle cx="140.36" cy="347.98" r="6" fill="#c9a24b"/><circle cx="135.64" cy="362.52" r="6" fill="#c9a24b"/><circle cx="120.36" cy="362.52" r="6" fill="#c9a24b"/><circle cx="115.64" cy="347.98" r="6" fill="#c9a24b"/><circle cx="128" cy="352" r="5" fill="#8a6e2f"/><circle cx="128" cy="352" r="2.5" fill="#e3c87e"/><circle cx="192" cy="339" r="6" fill="#c9a24b"/><circle cx="204.36" cy="347.98" r="6" fill="#c9a24b"/><circle cx="199.64" cy="362.52" r="6" fill="#c9a24b"/><circle cx="184.36" cy="362.52" r="6" fill="#c9a24b"/><circle cx="179.64" cy="347.98" r="6" fill="#c9a24b"/><circle cx="192" cy="352" r="5" fill="#8a6e2f"/><circle cx="192" cy="352" r="2.5" fill="#e3c87e"/><circle cx="256" cy="339" r="6" fill="#c9a24b"/><circle cx="268.36" cy="347.98" r="6" fill="#c9a24b"/><circle cx="263.64" cy="362.52" r="6" fill="#c9a24b"/><circle cx="248.36" cy="362.52" r="6" fill="#c9a24b"/><circle cx="243.64" cy="347.98" r="6" fill="#c9a24b"/><circle cx="256" cy="352" r="5" fill="#8a6e2f"/><circle cx="256" cy="352" r="2.5" fill="#e3c87e"/><circle cx="320" cy="339" r="6" fill="#c9a24b"/><circle cx="332.36" cy="347.98" r="6" fill="#c9a24b"/><circle cx="327.64" cy="362.52" r="6" fill="#c9a24b"/><circle cx="312.36" cy="362.52" r="6" fill="#c9a24b"/><circle cx="307.64" cy="347.98" r="6" fill="#c9a24b"/><circle cx="320" cy="352" r="5" fill="#8a6e2f"/><circle cx="320" cy="352" r="2.5" fill="#e3c87e"/><circle cx="384" cy="339" r="6" fill="#c9a24b"/><circle cx="396.36" cy="347.98" r="6" fill="#c9a24b"/><circle cx="391.64" cy="362.52" r="6" fill="#c9a24b"/><circle cx="376.36" cy="362.52" r="6" fill="#c9a24b"/><circle cx="371.64" cy="347.98" r="6" fill="#c9a24b"/><circle cx="384" cy="352" r="5" fill="#8a6e2f"/><circle cx="384" cy="352" r="2.5" fill="#e3c87e"/><circle cx="448" cy="339" r="6" fill="#c9a24b"/><circle cx="460.36" cy="347.98" r="6" fill="#c9a24b"/><circle cx="455.64" cy="362.52" r="6" fill="#c9a24b"/><circle cx="440.36" cy="362.52" r="6" fill="#c9a24b"/><circle cx="435.64" cy="347.98" r="6" fill="#c9a24b"/><circle cx="448" cy="352" r="5" fill="#8a6e2f"/><circle cx="448" cy="352" r="2.5" fill="#e3c87e"/><circle cx="512" cy="339" r="6" fill="#c9a24b"/><circle cx="524.36" cy="347.98" r="6" fill="#c9a24b"/><circle cx="519.64" cy="362.52" r="6" fill="#c9a24b"/><circle cx="504.36" cy="362.52" r="6" fill="#c9a24b"/><circle cx="499.64" cy="347.98" r="6" fill="#c9a24b"/><circle cx="512" cy="352" r="5" fill="#8a6e2f"/><circle cx="512" cy="352" r="2.5" fill="#e3c87e"/><circle cx="576" cy="339" r="6" fill="#c9a24b"/><circle cx="588.36" cy="347.98" r="6" fill="#c9a24b"/><circle cx="583.64" cy="362.52" r="6" fill="#c9a24b"/><circle cx="568.36" cy="362.52" r="6" fill="#c9a24b"/><circle cx="563.64" cy="347.98" r="6" fill="#c9a24b"/><circle cx="576" cy="352" r="5" fill="#8a6e2f"/><circle cx="576" cy="352" r="2.5" fill="#e3c87e"/><circle cx="-32" cy="403" r="6" fill="#c9a24b"/><circle cx="-19.64" cy="411.98" r="6" fill="#c9a24b"/><circle cx="-24.36" cy="426.52" r="6" fill="#c9a24b"/><circle cx="-39.64" cy="426.52" r="6" fill="#c9a24b"/><circle cx="-44.36" cy="411.98" r="6" fill="#c9a24b"/><circle cx="-32" cy="416" r="5" fill="#8a6e2f"/><circle cx="-32" cy="416" r="2.5" fill="#e3c87e"/><circle cx="32" cy="403" r="6" fill="#c9a24b"/><circle cx="44.36" cy="411.98" r="6" fill="#c9a24b"/><circle cx="39.64" cy="426.52" r="6" fill="#c9a24b"/><circle cx="24.36" cy="426.52" r="6" fill="#c9a24b"/><circle cx="19.64" cy="411.98" r="6" fill="#c9a24b"/><circle cx="32" cy="416" r="5" fill="#8a6e2f"/><circle cx="32" cy="416" r="2.5" fill="#e3c87e"/><circle cx="96" cy="403" r="6" fill="#c9a24b"/><circle cx="108.36" cy="411.98" r="6" fill="#c9a24b"/><circle cx="103.64" cy="426.52" r="6" fill="#c9a24b"/><circle cx="88.36" cy="426.52" r="6" fill="#c9a24b"/><circle cx="83.64" cy="411.98" r="6" fill="#c9a24b"/><circle cx="96" cy="416" r="5" fill="#8a6e2f"/><circle cx="96" cy="416" r="2.5" fill="#e3c87e"/><circle cx="160" cy="403" r="6" fill="#c9a24b"/><circle cx="172.36" cy="411.98" r="6" fill="#c9a24b"/><circle cx="167.64" cy="426.52" r="6" fill="#c9a24b"/><circle cx="152.36" cy="426.52" r="6" fill="#c9a24b"/><circle cx="147.64" cy="411.98" r="6" fill="#c9a24b"/><circle cx="160" cy="416" r="5" fill="#8a6e2f"/><circle cx="160" cy="416" r="2.5" fill="#e3c87e"/><circle cx="224" cy="403" r="6" fill="#c9a24b"/><circle cx="236.36" cy="411.98" r="6" fill="#c9a24b"/><circle cx="231.64" cy="426.52" r="6" fill="#c9a24b"/><circle cx="216.36" cy="426.52" r="6" fill="#c9a24b"/><circle cx="211.64" cy="411.98" r="6" fill="#c9a24b"/><circle cx="224" cy="416" r="5" fill="#8a6e2f"/><circle cx="224" cy="416" r="2.5" fill="#e3c87e"/><circle cx="288" cy="403" r="6" fill="#c9a24b"/><circle cx="300.36" cy="411.98" r="6" fill="#c9a24b"/><circle cx="295.64" cy="426.52" r="6" fill="#c9a24b"/><circle cx="280.36" cy="426.52" r="6" fill="#c9a24b"/><circle cx="275.64" cy="411.98" r="6" fill="#c9a24b"/><circle cx="288" cy="416" r="5" fill="#8a6e2f"/><circle cx="288" cy="416" r="2.5" fill="#e3c87e"/><circle cx="352" cy="403" r="6" fill="#c9a24b"/><circle cx="364.36" cy="411.98" r="6" fill="#c9a24b"/><circle cx="359.64" cy="426.52" r="6" fill="#c9a24b"/><circle cx="344.36" cy="426.52" r="6" fill="#c9a24b"/><circle cx="339.64" cy="411.98" r="6" fill="#c9a24b"/><circle cx="352" cy="416" r="5" fill="#8a6e2f"/><circle cx="352" cy="416" r="2.5" fill="#e3c87e"/><circle cx="416" cy="403" r="6" fill="#c9a24b"/><circle cx="428.36" cy="411.98" r="6" fill="#c9a24b"/><circle cx="423.64" cy="426.52" r="6" fill="#c9a24b"/><circle cx="408.36" cy="426.52" r="6" fill="#c9a24b"/><circle cx="403.64" cy="411.98" r="6" fill="#c9a24b"/><circle cx="416" cy="416" r="5" fill="#8a6e2f"/><circle cx="416" cy="416" r="2.5" fill="#e3c87e"/><circle cx="480" cy="403" r="6" fill="#c9a24b"/><circle cx="492.36" cy="411.98" r="6" fill="#c9a24b"/><circle cx="487.64" cy="426.52" r="6" fill="#c9a24b"/><circle cx="472.36" cy="426.52" r="6" fill="#c9a24b"/><circle cx="467.64" cy="411.98" r="6" fill="#c9a24b"/><circle cx="480" cy="416" r="5" fill="#8a6e2f"/><circle cx="480" cy="416" r="2.5" fill="#e3c87e"/><circle cx="544" cy="403" r="6" fill="#c9a24b"/><circle cx="556.36" cy="411.98" r="6" fill="#c9a24b"/><circle cx="551.64" cy="426.52" r="6" fill="#c9a24b"/><circle cx="536.36" cy="426.52" r="6" fill="#c9a24b"/><circle cx="531.64" cy="411.98" r="6" fill="#c9a24b"/><circle cx="544" cy="416" r="5" fill="#8a6e2f"/><circle cx="544" cy="416" r="2.5" fill="#e3c87e"/><circle cx="0" cy="467" r="6" fill="#c9a24b"/><circle cx="12.36" cy="475.98" r="6" fill="#c9a24b"/><circle cx="7.64" cy="490.52" r="6" fill="#c9a24b"/><circle cx="-7.64" cy="490.52" r="6" fill="#c9a24b"/><circle cx="-12.36" cy="475.98" r="6" fill="#c9a24b"/><circle cx="0" cy="480" r="5" fill="#8a6e2f"/><circle cx="0" cy="480" r="2.5" fill="#e3c87e"/><circle cx="64" cy="467" r="6" fill="#c9a24b"/><circle cx="76.36" cy="475.98" r="6" fill="#c9a24b"/><circle cx="71.64" cy="490.52" r="6" fill="#c9a24b"/><circle cx="56.36" cy="490.52" r="6" fill="#c9a24b"/><circle cx="51.64" cy="475.98" r="6" fill="#c9a24b"/><circle cx="64" cy="480" r="5" fill="#8a6e2f"/><circle cx="64" cy="480" r="2.5" fill="#e3c87e"/><circle cx="128" cy="467" r="6" fill="#c9a24b"/><circle cx="140.36" cy="475.98" r="6" fill="#c9a24b"/><circle cx="135.64" cy="490.52" r="6" fill="#c9a24b"/><circle cx="120.36" cy="490.52" r="6" fill="#c9a24b"/><circle cx="115.64" cy="475.98" r="6" fill="#c9a24b"/><circle cx="128" cy="480" r="5" fill="#8a6e2f"/><circle cx="128" cy="480" r="2.5" fill="#e3c87e"/><circle cx="192" cy="467" r="6" fill="#c9a24b"/><circle cx="204.36" cy="475.98" r="6" fill="#c9a24b"/><circle cx="199.64" cy="490.52" r="6" fill="#c9a24b"/><circle cx="184.36" cy="490.52" r="6" fill="#c9a24b"/><circle cx="179.64" cy="475.98" r="6" fill="#c9a24b"/><circle cx="192" cy="480" r="5" fill="#8a6e2f"/><circle cx="192" cy="480" r="2.5" fill="#e3c87e"/><circle cx="256" cy="467" r="6" fill="#c9a24b"/><circle cx="268.36" cy="475.98" r="6" fill="#c9a24b"/><circle cx="263.64" cy="490.52" r="6" fill="#c9a24b"/><circle cx="248.36" cy="490.52" r="6" fill="#c9a24b"/><circle cx="243.64" cy="475.98" r="6" fill="#c9a24b"/><circle cx="256" cy="480" r="5" fill="#8a6e2f"/><circle cx="256" cy="480" r="2.5" fill="#e3c87e"/><circle cx="320" cy="467" r="6" fill="#c9a24b"/><circle cx="332.36" cy="475.98" r="6" fill="#c9a24b"/><circle cx="327.64" cy="490.52" r="6" fill="#c9a24b"/><circle cx="312.36" cy="490.52" r="6" fill="#c9a24b"/><circle cx="307.64" cy="475.98" r="6" fill="#c9a24b"/><circle cx="320" cy="480" r="5" fill="#8a6e2f"/><circle cx="320" cy="480" r="2.5" fill="#e3c87e"/><circle cx="384" cy="467" r="6" fill="#c9a24b"/><circle cx="396.36" cy="475.98" r="6" fill="#c9a24b"/><circle cx="391.64" cy="490.52" r="6" fill="#c9a24b"/><circle cx="376.36" cy="490.52" r="6" fill="#c9a24b"/><circle cx="371.64" cy="475.98" r="6" fill="#c9a24b"/><circle cx="384" cy="480" r="5" fill="#8a6e2f"/><circle cx="384" cy="480" r="2.5" fill="#e3c87e"/><circle cx="448" cy="467" r="6" fill="#c9a24b"/><circle cx="460.36" cy="475.98" r="6" fill="#c9a24b"/><circle cx="455.64" cy="490.52" r="6" fill="#c9a24b"/><circle cx="440.36" cy="490.52" r="6" fill="#c9a24b"/><circle cx="435.64" cy="475.98" r="6" fill="#c9a24b"/><circle cx="448" cy="480" r="5" fill="#8a6e2f"/><circle cx="448" cy="480" r="2.5" fill="#e3c87e"/><circle cx="512" cy="467" r="6" fill="#c9a24b"/><circle cx="524.36" cy="475.98" r="6" fill="#c9a24b"/><circle cx="519.64" cy="490.52" r="6" fill="#c9a24b"/><circle cx="504.36" cy="490.52" r="6" fill="#c9a24b"/><circle cx="499.64" cy="475.98" r="6" fill="#c9a24b"/><circle cx="512" cy="480" r="5" fill="#8a6e2f"/><circle cx="512" cy="480" r="2.5" fill="#e3c87e"/><circle cx="576" cy="467" r="6" fill="#c9a24b"/><circle cx="588.36" cy="475.98" r="6" fill="#c9a24b"/><circle cx="583.64" cy="490.52" r="6" fill="#c9a24b"/><circle cx="568.36" cy="490.52" r="6" fill="#c9a24b"/><circle cx="563.64" cy="475.98" r="6" fill="#c9a24b"/><circle cx="576" cy="480" r="5" fill="#8a6e2f"/><circle cx="576" cy="480" r="2.5" fill="#e3c87e"/><circle cx="-32" cy="531" r="6" fill="#c9a24b"/><circle cx="-19.64" cy="539.98" r="6" fill="#c9a24b"/><circle cx="-24.36" cy="554.52" r="6" fill="#c9a24b"/><circle cx="-39.64" cy="554.52" r="6" fill="#c9a24b"/><circle cx="-44.36" cy="539.98" r="6" fill="#c9a24b"/><circle cx="-32" cy="544" r="5" fill="#8a6e2f"/><circle cx="-32" cy="544" r="2.5" fill="#e3c87e"/><circle cx="32" cy="531" r="6" fill="#c9a24b"/><circle cx="44.36" cy="539.98" r="6" fill="#c9a24b"/><circle cx="39.64" cy="554.52" r="6" fill="#c9a24b"/><circle cx="24.36" cy="554.52" r="6" fill="#c9a24b"/><circle cx="19.64" cy="539.98" r="6" fill="#c9a24b"/><circle cx="32" cy="544" r="5" fill="#8a6e2f"/><circle cx="32" cy="544" r="2.5" fill="#e3c87e"/><circle cx="96" cy="531" r="6" fill="#c9a24b"/><circle cx="108.36" cy="539.98" r="6" fill="#c9a24b"/><circle cx="103.64" cy="554.52" r="6" fill="#c9a24b"/><circle cx="88.36" cy="554.52" r="6" fill="#c9a24b"/><circle cx="83.64" cy="539.98" r="6" fill="#c9a24b"/><circle cx="96" cy="544" r="5" fill="#8a6e2f"/><circle cx="96" cy="544" r="2.5" fill="#e3c87e"/><circle cx="160" cy="531" r="6" fill="#c9a24b"/><circle cx="172.36" cy="539.98" r="6" fill="#c9a24b"/><circle cx="167.64" cy="554.52" r="6" fill="#c9a24b"/><circle cx="152.36" cy="554.52" r="6" fill="#c9a24b"/><circle cx="147.64" cy="539.98" r="6" fill="#c9a24b"/><circle cx="160" cy="544" r="5" fill="#8a6e2f"/><circle cx="160" cy="544" r="2.5" fill="#e3c87e"/><circle cx="224" cy="531" r="6" fill="#c9a24b"/><circle cx="236.36" cy="539.98" r="6" fill="#c9a24b"/><circle cx="231.64" cy="554.52" r="6" fill="#c9a24b"/><circle cx="216.36" cy="554.52" r="6" fill="#c9a24b"/><circle cx="211.64" cy="539.98" r="6" fill="#c9a24b"/><circle cx="224" cy="544" r="5" fill="#8a6e2f"/><circle cx="224" cy="544" r="2.5" fill="#e3c87e"/><circle cx="288" cy="531" r="6" fill="#c9a24b"/><circle cx="300.36" cy="539.98" r="6" fill="#c9a24b"/><circle cx="295.64" cy="554.52" r="6" fill="#c9a24b"/><circle cx="280.36" cy="554.52" r="6" fill="#c9a24b"/><circle cx="275.64" cy="539.98" r="6" fill="#c9a24b"/><circle cx="288" cy="544" r="5" fill="#8a6e2f"/><circle cx="288" cy="544" r="2.5" fill="#e3c87e"/><circle cx="352" cy="531" r="6" fill="#c9a24b"/><circle cx="364.36" cy="539.98" r="6" fill="#c9a24b"/><circle cx="359.64" cy="554.52" r="6" fill="#c9a24b"/><circle cx="344.36" cy="554.52" r="6" fill="#c9a24b"/><circle cx="339.64" cy="539.98" r="6" fill="#c9a24b"/><circle cx="352" cy="544" r="5" fill="#8a6e2f"/><circle cx="352" cy="544" r="2.5" fill="#e3c87e"/><circle cx="416" cy="531" r="6" fill="#c9a24b"/><circle cx="428.36" cy="539.98" r="6" fill="#c9a24b"/><circle cx="423.64" cy="554.52" r="6" fill="#c9a24b"/><circle cx="408.36" cy="554.52" r="6" fill="#c9a24b"/><circle cx="403.64" cy="539.98" r="6" fill="#c9a24b"/><circle cx="416" cy="544" r="5" fill="#8a6e2f"/><circle cx="416" cy="544" r="2.5" fill="#e3c87e"/><circle cx="480" cy="531" r="6" fill="#c9a24b"/><circle cx="492.36" cy="539.98" r="6" fill="#c9a24b"/><circle cx="487.64" cy="554.52" r="6" fill="#c9a24b"/><circle cx="472.36" cy="554.52" r="6" fill="#c9a24b"/><circle cx="467.64" cy="539.98" r="6" fill="#c9a24b"/><circle cx="480" cy="544" r="5" fill="#8a6e2f"/><circle cx="480" cy="544" r="2.5" fill="#e3c87e"/><circle cx="544" cy="531" r="6" fill="#c9a24b"/><circle cx="556.36" cy="539.98" r="6" fill="#c9a24b"/><circle cx="551.64" cy="554.52" r="6" fill="#c9a24b"/><circle cx="536.36" cy="554.52" r="6" fill="#c9a24b"/><circle cx="531.64" cy="539.98" r="6" fill="#c9a24b"/><circle cx="544" cy="544" r="5" fill="#8a6e2f"/><circle cx="544" cy="544" r="2.5" fill="#e3c87e"/><rect width="512" height="512" fill="url(#wv)"/></svg>