<svg xmlns="http://www.w3.org/2000/svg" width="512" height="512" viewBox="0 0 512 512"><defs><pattern id="wv" width="6" height="6" patternUnits="userSpaceOnUse"><line x1="0" y1="3" x2="6" y2="3" stroke="#000" stroke-opacity="0.05" stroke-width="1"/><line x1="3" y1="0" x2="3" y2="6" stroke="#fff" stroke-opacity="0.04" stroke-width="1"/></pattern></defs><rect width="512" height="512" fill="#22365a"/><circle cx="0" cy="0" r="28" fill="none" stroke="#c9a24b" stroke-width="3"/><circle cx="0" cy="128" r="28" fill="none" stroke="#c9a24b" stroke-width="3"/><circle cx="0" cy="256" r="28" fill="none" stroke="#c9a24b" stroke-width="3"/><circle cx="0" cy="384" r="28" fill="none" stroke="#c9a24b" stroke-width="3"/><circle cx="0" cy="512" r="28" fill="none" stroke="#c9a24b" stroke-width="3"/><circle cx="128" cy="0" r="28" fill="none" stroke="#c9a24b" stroke-width="3"/><circle cx="128" cy="128" r="28" fill="none" stroke="#c9a24b" stroke-width="3"/><circle cx="128" cy="256" r="28" fill="none" stroke="#c9a24b" stroke-width="3"/><circle cx="128" cy="384" r="28" fill="none" stroke="#c9a24b" stroke-width="3"/><circle cx="128" cy="512" r="28" fill="none" stroke="#c9a24b" stroke-width="3"/><circle cx="256" cy="0" r="28" fill="none" stroke="#c9a24b" stroke-width="3"/><circle cx="256" cy="128" r="28" fill="none" stroke="#c9a24b" stroke-width="3"/><circle cx="256" cy="256" r="28" fill="none" stroke="#c9a24b" stroke-width="3"/><circle cx="256" cy="384" r="28" fill="none" stroke="#c9a24b" stroke-width="3"/><circle cx="256" cy="512" r="28" fill="none" stroke="#c9a24b" stroke-width="3"/><circle cx="384" cy="0" r="28" fill="none" stroke="#c9a24b" stroke-width="3"/><circle cx="384" cy="128" r="28" fill="none" stroke="#c9a24b" stroke-width="3"/><circle cx="384" cy="256" r="28" fill="none" stroke="#c9a24b" stroke-width="3"/><circle cx="384" cy="384" r="28" fill="none" stroke="#c9a24b" stroke-width="3"/><circle cx="384" cy="512" r="28" fill="none" stroke="#c9a24b" stroke-width="3"/><circle cx="512" cy="0" r="28" fill="none" stroke="#c9a24b" stroke-width="3"/><circle cx="512" cy="128" r="28" fill="none" stroke="#c9a24b" stroke-width="3"/><circle cx="512" cy="256" r="28" fill="none" stroke="#c9a24b" stroke-width="3"/><circle cx="512" cy="384" r="28" fill="none" stroke="#c9a24b" stroke-width="3"/><circle cx="512" cy="512" r="28" fill="none" stroke="#c9a24b" stroke-width="3"/><ellipse cx="64" cy="45" rx="7" ry="16" fill="#c9a24b" stroke="#8a6e2f" stroke-width="1" transform="rotate(0 64 64)"/><ellipse cx="64" cy="45" rx="7" ry="16" fill="#c9a24b" stroke="#8a6e2f" stroke-width="1" transform="rotate(45 64 64)"/><ellipse cx="64" cy="45" rx="7" ry="16" fill="#c9a24b" stroke="#8a6e2f" stroke-width="1" transform="rotate(90 64 64)"/><ellipse cx="64" cy="45" rx="7" ry="16" fill="#c9a24b" stroke="#8a6e2f" stroke-width="1" transform="rotate(135 64 64)"/><ellipse cx="64" cy="45" rx="7" ry="16" fill="#c9a24b" stroke="#8a6e2f" stroke-width="1" transform="rotate(180 64 64)"/><ellipse cx="64" cy="45" rx="7" ry="16" fill="#c9a24b" stroke="#8a6e2f" stroke-width="1" transform="rotate(225 64 64)"/><ellipse cx="64" cy="45" rx="7" ry="16" fill="#c9a24b" stroke="#8a6e2f" stroke-width="1" transform="rotate(270 64 64)"/><ellipse cx="64" cy="45" rx="7" ry="16" fill="#c9a24b" stroke="#8a6e2f" stroke-width="1" transform="rotate(315 64 64)"/><circle cx="64" cy="64" r="8" fill="#8a6e2f"/><circle cx="64" cy="64" r="4" fill="#e3c87e"/><path d="M 40 192 A 24 24 0 0 1 88 192 A 16 16 0 0 1 56 192 A 8 8 0 0 1 72 192" fill="none" stroke="#c9a24b" stroke-width="3" stroke-linecap="round"/><ellipse cx="38" cy="166" rx="10" ry="5" fill="#c9a24b" transform="rotate(-45 38 166)"/><ellipse cx="90" cy="218" rx="10" ry="5" fill="#c9a24b" transform="rotate(-45 90 218)"/><ellipse cx="64" cy="301" rx="7" ry="16" fill="#c9a24b" stroke="#8a6e2f" stroke-width="1" transform="rotate(0 64 320)"/><ellipse cx="64" cy="301" rx="7" ry="16" fill="#c9a24b" stroke="#8a6e2f" stroke-width="1" transform="rotate(45 64 320)"/><ellipse cx="64" cy="301" rx="7" ry="16" fill="#c9a24b" stroke="#8a6e2f" stroke-width="1" transform="rotate(90 64 320)"/><ellipse cx="64" cy="301" rx="7" ry="16" fill="#c9a24b" stroke="#8a6e2f" stroke-width="1" transform="rotate(135 64 320)"/><ellipse cx="64" cy="301" rx="7" ry="16" fill="#c9a24b" stroke="#8a6e2f" stroke-width="1" transform="rotate(180 64 320)"/><ellipse cx="64" cy="301" rx="7" ry="16" fill="#c9a24b" stroke="#8a6e2f" stroke-width="1" transform="rotate(225 64 320)"/><ellipse cx="64" cy="301" rx="7" ry="16" fill="#c9a24b" stroke="#8a6e2f" stroke-width="1" transform="rotate(270 64 320)"/><ellipse cx="64" cy="301" rx="7" ry="16" fill="#c9a24b" stroke="#8a6e2f" stroke-width="1" transform="rotate(315 64 320)"/><circle cx="64" cy="320" r="8" fill="#8a6e2f"/><circle cx="64" cy="320" r="4" fill="#e3c87e"/><path d="M 40 448 A 24 24 0 0 1 88 448 A 16 16 0 0 1 56 448 A 8 8 0 0 1 72 448" fill="none" stroke="#c9a24b" stroke-width="3" stroke-linecap="round"/><ellipse cx="38" cy="422" rx="10" ry="5" fill="#c9a24b" transform="rotate(-45 38 422)"/><ellipse cx="90" cy="474" rx="10" ry="5" fill="#c9a24b" transform="rotate(-45 90 474)"/><path d="M 168 64 A 24 24 0 0 1 216 64 A 16 16 0 0 1 184 64 A 8 8 0 0 1 200 64" fill="none" stroke="#c9a24b" stroke-width="3" stroke-linecap="round"/><ellipse cx="166" cy="38" rx="10" ry="5" fill="#c9a24b" transform="rotate(-45 166 38)"/><ellipse cx="218" cy="90" rx="10" ry="5" fill="#c9a24b" transform="rotate(-45 218 90)"/><ellipse cx="192" cy="173" rx="7" ry="16" fill="#c9a24b" stroke="#8a6e2f" stroke-width="1" transform="rotate(0 192 192)"/><ellipse cx="192" cy="173" rx="7" ry="16" fill="#c9a24b" stroke="#8a6e2f" stroke-width="1" transform="rotate(45 192 192)"/><ellipse cx="192" cy="173" rx="7" ry="16" fill="#c9a24b" stroke="#8a6e2f" stroke-width="1" transform="rotate(90 192 192)"/><ellipse cx="192" cy="173" rx="7" ry="16" fill="#c9a24b" stroke="#8a6e2f" stroke-width="1" transform="rotate(135 192 192)"/><ellipse cx="192" cy="173" rx="7" ry="16" fill="#c9a24b" stroke="#8a6e2f" stroke-width="1" transform="rotate(180 192 192)"/><ellipse cx="192" cy="173" rx="7" ry="16" fill="#c9a24b" stroke="#8a6e2f" stroke-width="1" transform="rotate(225 192 192)"/><ellipse cx="192" cy="173" rx="7" ry="16" fill="#c9a24b" stroke="#8a6e2f" stroke-width="1" transform="rotate(270 192 192)"/><ellipse cx="192" cy="173" rx="7" ry="16" fill="#c9a24b" stroke="#8a6e2f" stroke-width="1" transform="rotate(315 192 192)"/><circle cx="192" cy="192" r="8" fill="#8a6e2f"/><circle cx="192" cy="192" r="4" fill="#e3c87e"/><path d="M 168 320 A 24 24 0 0 1 216 320 A 16 16 0 0 1 184 320 A 8 8 0 0 1 200 320" fill="none" stroke="#c9a24b" stroke-width="3" stroke-linecap="round"/><ellipse cx="166" cy="294" rx="10" ry="5" fill="#c9a24b" transform="rotate(-45 166 294)"/><ellipse cx="218" cy="346" rx="10" ry="5" fill="#c9a24b" transform="rotate(-45 218 346)"/><ellipse cx="192" cy="429" rx="7" ry="16" fill="#c9a24b" stroke="#8a6e2f" stroke-width="1" transform="rotate(0 192 448)"/><ellipse cx="192" cy="429" rx="7" ry="16" fill="#c9a24b" stroke="#8a6e2f" stroke-width="1" transform="rotate(45 192 448)"/><ellipse cx="192" cy="429" rx="7" ry="16" fill="#c9a24b" stroke="#8a6e2f" stroke-width="1" transform="rotate(90 192 448)"/><ellipse cx="192" cy="429" rx="7" ry="16" fill="#c9a24b" stroke="#8a6e2f" stroke-width="1" transform="rotate(135 192 448)"/><ellipse cx="192" cy="429" rx="7" ry="16" fill="#c9a24b" stroke="#8a6e2f" stroke-width="1" transform="rotate(180 192 448)"/><ellipse cx="192" cy="429" rx="7" ry="16" fill="#c9a24b" stroke="#8a6e2f" stroke-width="1" transform="rotate(225 192 448)"/><ellipse cx="192" cy="429" rx="7" ry="16" fill="#c9a24b" stroke="#8a6e2f" stroke-width="1" transform="rotate(270 192 448)"/><ellipse cx="192" cy="429" rx="7" ry="16" fill="#c9a24b" stroke="#8a6e2f" stroke-width="1" transform="rotate(315 192 448)"/><circle cx="192" cy="448" r="8" fill="#8a6e2f"/><circle cx="192" cy="448" r="4" fill="#e3c87e"/><ellipse cx="320" cy="45" rx="7" ry="16" fill="#c9a24b" stroke="#8a6e2f" stroke-width="1" transform="rotate(0 320 64)"/><ellipse cx="320" cy="45" rx="7" ry="16" fill="#c9a24b" stroke="#8a6e2f" stroke-width="1" transform="rotate(45 320 64)"/><ellipse cx="320" cy="45" rx="7" ry="16" fill="#c9a24b" stroke="#8a6e2f" stroke-width="1" transform="rotate(90 320 64)"/><ellipse cx="320" cy="45" rx="7" ry="16" fill="#c9a24b" stroke="#8a6e2f" stroke-width="1" transform="rotate(135 320 64)"/><ellipse cx="320" cy="45" rx="7" ry="16" fill="#c9a24b" stroke="#8a6e2f" stroke-width="1" transform="rotate(180 320 64)"/><ellipse cx="320" cy="45" rx="7" ry="16" fill="#c9a24b" stroke="#8a6e2f" stroke-width="1" transform="rotate(225 320 64)"/><ellipse cx="320" cy="45" rx="7" ry="16" fill="#c9a24b" stroke="#8a6e2f" stroke-width="1" transform="rotate(270 320 64)"/><ellipse cx="320" cy="45" rx="7" ry="16" fill="#c9a24b" stroke="#8a6e2f" stroke-width="1" transform="rotate(315 320 64)"/><circle cx="320" cy="64" r="8" fill="#8a6e2f"/><circle cx="320" cy="64" r="4" fill="#e3c87e"/><path d="M 296 192 A 24 24 0 0 1 344 192 A 16 16 0 0 1 312 192 A 8 8 0 0 1 328 192" fill="none" stroke="#c9a24b" stroke-width="3" stroke-linecap="round"/><ellipse cx="294" cy="166" rx="10" ry="5" fill="#c9a24b" transform="rotate(-45 294 166)"/><ellipse cx="346" cy="218" rx="10" ry="5" fill="#c9a24b" transform="rotate(-45 346 218)"/><ellipse cx="320" cy="301" rx="7" ry="16" fill="#c9a24b" stroke="#8a6e2f" stroke-width="1" transform="rotate(0 320 320)"/><ellipse cx="320" cy="301" rx="7" ry="16" fill="#c9a24b" stroke="#8a6e2f" stroke-width="1" transform="rotate(45 320 320)"/><ellipse cx="320" cy="301" rx="7" ry="16" fill="#c9a24b" stroke="#8a6e2f" stroke-width="1" transform="rotate(90 320 320)"/><ellipse cx="320" cy="301" rx="7" ry="16" fill="#c9a24b" stroke="#8a6e2f" stroke-width="1" transform="rotate(135 320 320)"/><ellipse cx="320" cy="301" rx="7" ry="16" fill="#c9a24b" stroke="#8a6e2f" stroke-width="1" transform="rotate(180 320 320)"/><ellipse cx="320" cy="301" rx="7" ry="16" fill="#c9a24b" stroke="#8a6e2f" stroke-width="1" transform="rotate(225 320 320)"/><ellipse cx="320" cy="301" rx="7" ry="16" fill="#c9a24b" stroke="#8a6e2f" stroke-width="1" transform="rotate(270 320 320)"/><ellipse cx="320" cy="301" rx="7" ry="16" fill="#c9a24b" stroke="#8a6e2f" stroke-width="1" transform="rotate(315 320 320)"/><circle cx="320" cy="320" r="8" fill="#8a6e2f"/><circle cx="320" cy="320" r="4" fill="#e3c87e"/><path d="M 296 448 A 24 24 0 0 1 344 448 A 16 16 0 0 1 312 448 A 8 8 0 0 1 328 448" fill="none" stroke="#c9a24b" stroke-width="3" stroke-linecap="round"/><ellipse cx="294" cy="422" rx="10" ry="5" fill="#c9a24b" transform="rotate(-45 294 422)"/><ellipse cx="346" cy="474" rx="10" ry="5" fill="#c9a24b" transform="rotate(-45 346 474)"/><path d="M 424 64 A 24 24 0 0 1 472 64 A 16 16 0 0 1 440 64 A 8 8 0 0 1 456 64" fill="none" stroke="#c9a24b" stroke-width="3" stroke-linecap="round"/><ellipse cx="422" cy="38" rx="10" ry="5" fill="#c9a24b" transform="rotate(-45 422 38)"/><ellipse cx="474" cy="90" rx="10" ry="5" fill="#c9a24b" transform="rotate(-45 474 90)"/><ellipse cx="448" cy="173" rx="7" ry="16" fill="#c9a24b" stroke="#8a6e2f" stroke-width="1" transform="rotate(0 448 192)"/><ellipse cx="448" cy="173" rx="7" ry="16" fill="#c9a24b" stroke="#8a6e2f" stroke-width="1" transform="rotate(45 448 192)"/><ellipse cx="448" cy="173" rx="7" ry="16" fill="#c9a24b" stroke="#8a6e2f" stroke-width="1" transform="rotate(90 448 192)"/><ellipse cx="448" cy="173" rx="7" ry="16" fill="#c9a24b" stroke="#8a6e2f" stroke-width="1" transform="rotate(135 448 192)"/><ellipse cx="448" cy="173" rx="7" ry="16" fill="#c9a24b" stroke="#8a6e2f" stroke-width="1" transform="rotate(180 448 192)"/><ellipse cx="448" cy="173" rx="7" ry="16" fill="#c9a24b" stroke="#8a6e2f" stroke-width="1" transform="rotate(225 448 192)"/><ellipse cx="448" cy="173" rx="7" ry="16" fill="#c9a24b" stroke="#8a6e2f" stroke-width="1" transform="rotate(270 448 192)"/><ellipse cx="448" cy="173" rx="7" ry="16" fill="#c9a24b" stroke="#8a6e2f" stroke-width="1" transform="rotate(315 448 192)"/><circle cx="448" cy="192" r="8" fill="#8a6e2f"/><circle cx="448" cy="192" r="4" fill="#e3c87e"/><path d="M 424 320 A 24 24 0 0 1 472 320 A 16 16 0 0 1 440 320 A 8 8 0 0 1 456 320" fill="none" stroke="#c9a24b" stroke-width="3" stroke-linecap="round"/><ellipse cx="422" cy="294" rx="10" ry="5" fill="#c9a24b" transform="rotate(-45 422 294)"/><ellipse cx="474" cy="346" rx="10" ry="5" fill="#c9a24b" transform="rotate(-45 474 346)"/><ellipse cx="448" cy="429" rx="7" ry="16" fill="#c9a24b" stroke="#8a6e2f" stroke-width="1" transform="rotate(0 448 448)"/><ellipse cx="448" cy="429" rx="7" ry="16" fill="#c9a24b" stroke="#8a6e2f" stroke-width="1" transform="rotate(45 448 448)"/><ellipse cx="448" cy="429" rx="7" ry="16" fill="#c9a24b" stroke="#8a6e2f" stroke-width="1" transform="rotate(90 448 448)"/><ellipse cx="448" cy="429" rx="7" ry="16" fill="#c9a24b" stroke="#8a6e2f" stroke-width="1" transform="rotate(135 448 448)"/><ellipse cx="448" cy="429" rx="7" ry="16" fill="#c9a24b" stroke="#8a6e2f" stroke-width="1" transform="rotate(180 448 448)"/><ellipse cx="448" cy="429" rx="7" ry="16" fill="#c9a24b" stroke="#8a6e2f" stroke-width="1" transform="rotate(225 448 448)"/><ellipse cx="448" cy="429" rx="7" ry="16" fill="#c9a24b" stroke="#8a6e2f" stroke-width="1" transform="rotate(270 448 448)"/><ellipse cx="448" cy="429" rx="7" ry="16" fill="#c9a24b" stroke="#8a6e2f" stroke-width="1" transform="rotate(315 448 448)"/><circle cx="448" cy="448" r="8" fill="#8a6e2f"/><circle cx="448" cy="448" r="4" fill="#e3c87e"/><rect width="512" height="512" fill="url(#wv)"/></svg>