<svg xmlns="http://www.w3.org/2000/svg" width="512" height="512" viewBox="0 0 512 512"><defs><pattern id="wv" width="6" height="6" patternUnits="userSpaceOnUse"><line x1="0" y1="3" x2="6" y2="3" stroke="#000" stroke-opacity="0.05" stroke-width="1"/><line x1="3" y1="0" x2="3" y2="6" stroke="#fff" stroke-opacity="0.04" stroke-width="1"/></pattern></defs><rect width="512" height="512" fill="#2c3548"/><rect x="69" y="13" width="50" height="2" rx="1" fill="#232b3b" opacity="0.5"/><rect x="122" y="14" width="76" height="2" rx="1" fill="#3a4459" opacity="0.5"/><rect x="40" y="44" width="38" height="2" rx="1" fill="#232b3b" opacity="0.5"/><rect x="93" y="45" width="64" height="2" rx="1" fill="#3a4459" opacity="0.5"/><rect x="146" y="46" width="34" height="2" rx="1" fill="#232b3b" opacity="0.5"/><rect x="411" y="63" width="26" height="2" rx="1" fill="#232b3b" opacity="0.5"/><rect x="64" y="64" width="52" height="2" rx="1" fill="#3a4459" opacity="0.5"/><rect x="117" y="65" width="78" height="2" rx="1" fill="#232b3b" opacity="0.5"/><rect x="35" y="95" width="40" height="2" rx="1" fill="#3a4459" opacity="0.5"/><rect x="88" y="96" width="66" height="2" rx="1" fill="#232b3b" opacity="0.5"/><rect x="141" y="122" width="36" height="2" rx="1" fill="#3a4459" opacity="0.5"/><rect x="406" y="114" width="28" height="2" rx="1" fill="#3a4459" opacity="0.5"/><rect x="59" y="140" width="54" height="2" rx="1" fill="#232b3b" opacity="0.5"/><rect x="112" y="141" width="24" height="2" rx="1" fill="#3a4459" opacity="0.5"/><rect x="30" y="171" width="42" height="2" rx="1" fill="#232b3b" opacity="0.5"/><rect x="83" y="172" width="68" height="2" rx="1" fill="#3a4459" opacity="0.5"/><rect x="136" y="173" width="38" height="2" rx="1" fill="#232b3b" opacity="0.5"/><rect x="401" y="190" width="30" height="2" rx="1" fill="#232b3b" opacity="0.5"/><rect x="54" y="191" width="56" height="2" rx="1" fill="#3a4459" opacity="0.5"/><rect x="107" y="192" width="26" height="2" rx="1" fill="#232b3b" opacity="0.5"/><rect x="25" y="222" width="44" height="2" rx="1" fill="#3a4459" opacity="0.5"/><rect x="78" y="223" width="70" height="2" rx="1" fill="#232b3b" opacity="0.5"/><rect x="131" y="237" width="40" height="2" rx="1" fill="#3a4459" opacity="0.5"/><rect x="396" y="241" width="32" height="2" rx="1" fill="#3a4459" opacity="0.5"/><rect x="49" y="267" width="58" height="2" rx="1" fill="#232b3b" opacity="0.5"/><rect x="102" y="268" width="28" height="2" rx="1" fill="#3a4459" opacity="0.5"/><rect x="20" y="298" width="46" height="2" rx="1" fill="#232b3b" opacity="0.5"/><rect x="73" y="287" width="72" height="2" rx="1" fill="#3a4459" opacity="0.5"/><rect x="126" y="288" width="42" height="2" rx="1" fill="#232b3b" opacity="0.5"/><rect x="391" y="317" width="34" height="2" rx="1" fill="#232b3b" opacity="0.5"/><rect x="44" y="318" width="60" height="2" rx="1" fill="#3a4459" opacity="0.5"/><rect x="97" y="319" width="30" height="2" rx="1" fill="#232b3b" opacity="0.5"/><rect x="415" y="337" width="48" height="2" rx="1" fill="#3a4459" opacity="0.5"/><rect x="68" y="338" width="74" height="2" rx="1" fill="#232b3b" opacity="0.5"/><rect x="386" y="368" width="36" height="2" rx="1" fill="#3a4459" opacity="0.5"/><rect x="39" y="394" width="62" height="2" rx="1" fill="#232b3b" opacity="0.5"/><rect x="92" y="395" width="32" height="2" rx="1" fill="#3a4459" opacity="0.5"/><rect x="357" y="412" width="24" height="2" rx="1" fill="#3a4459" opacity="0.5"/><rect x="410" y="413" width="50" height="2" rx="1" fill="#232b3b" opacity="0.5"/><rect x="63" y="414" width="76" height="2" rx="1" fill="#3a4459" opacity="0.5"/><rect x="381" y="444" width="38" height="2" rx="1" fill="#232b3b" opacity="0.5"/><rect x="34" y="445" width="64" height="2" rx="1" fill="#3a4459" opacity="0.5"/><rect x="87" y="446" width="34" height="2" rx="1" fill="#232b3b" opacity="0.5"/><rect x="352" y="463" width="26" height="2" rx="1" fill="#232b3b" opacity="0.5"/><rect x="405" y="464" width="52" height="2" rx="1" fill="#3a4459" opacity="0.5"/><rect x="58" y="465" width="78" height="2" rx="1" fill="#232b3b" opacity="0.5"/><rect x="376" y="495" width="40" height="2" rx="1" fill="#3a4459" opacity="0.5"/><rect width="512" height="512" fill="url(#wv)"/></svg>