<svg xmlns="http://www.w3.org/2000/svg" width="512" height="512" viewBox="0 0 512 512"><defs><pattern id="wv" width="6" height="6" patternUnits="userSpaceOnUse"><line x1="0" y1="3" x2="6" y2="3" stroke="#000" stroke-opacity="0.05" stroke-width="1"/><line x1="3" y1="0" x2="3" y2="6" stroke="#fff" stroke-opacity="0.04" stroke-width="1"/></pattern></defs><rect width="512" height="512" fill="#e7decb"/><rect x="69" y="19" width="38" height="2" rx="1" fill="#c8b994" opacity="0.5"/><rect x="122" y="14" width="52" height="2" rx="1" fill="#d9cdb2" opacity="0.5"/><rect x="175" y="21" width="66" height="2" rx="1" fill="#c8b994" opacity="0.5"/><rect x="228" y="16" width="24" height="2" rx="1" fill="#d9cdb2" opacity="0.5"/><rect x="281" y="23" width="38" height="2" rx="1" fill="#c8b994" opacity="0.5"/><rect x="358" y="63" width="26" height="2" rx="1" fill="#c8b994" opacity="0.5"/><rect x="411" y="70" width="40" height="2" rx="1" fill="#d9cdb2" opacity="0.5"/><rect x="64" y="65" width="54" height="2" rx="1" fill="#c8b994" opacity="0.5"/><rect x="117" y="72" width="68" height="2" rx="1" fill="#d9cdb2" opacity="0.5"/><rect x="170" y="67" width="26" height="2" rx="1" fill="#c8b994" opacity="0.5"/><rect x="223" y="87" width="40" height="2" rx="1" fill="#d9cdb2" opacity="0.5"/><rect x="300" y="114" width="28" height="2" rx="1" fill="#d9cdb2" opacity="0.5"/><rect x="353" y="121" width="42" height="2" rx="1" fill="#c8b994" opacity="0.5"/><rect x="406" y="116" width="56" height="2" rx="1" fill="#d9cdb2" opacity="0.5"/><rect x="59" y="148" width="70" height="2" rx="1" fill="#c8b994" opacity="0.5"/><rect x="112" y="143" width="28" height="2" rx="1" fill="#d9cdb2" opacity="0.5"/><rect x="165" y="138" width="42" height="2" rx="1" fill="#c8b994" opacity="0.5"/><rect x="242" y="165" width="30" height="2" rx="1" fill="#c8b994" opacity="0.5"/><rect x="295" y="197" width="44" height="2" rx="1" fill="#d9cdb2" opacity="0.5"/><rect x="348" y="192" width="58" height="2" rx="1" fill="#c8b994" opacity="0.5"/><rect x="401" y="187" width="72" height="2" rx="1" fill="#d9cdb2" opacity="0.5"/><rect x="54" y="194" width="30" height="2" rx="1" fill="#c8b994" opacity="0.5"/><rect x="184" y="241" width="32" height="2" rx="1" fill="#d9cdb2" opacity="0.5"/><rect x="237" y="248" width="46" height="2" rx="1" fill="#c8b994" opacity="0.5"/><rect x="290" y="243" width="60" height="2" rx="1" fill="#d9cdb2" opacity="0.5"/><rect x="343" y="238" width="74" height="2" rx="1" fill="#c8b994" opacity="0.5"/><rect x="396" y="245" width="32" height="2" rx="1" fill="#d9cdb2" opacity="0.5"/><rect x="126" y="292" width="34" height="2" rx="1" fill="#c8b994" opacity="0.5"/><rect x="179" y="287" width="48" height="2" rx="1" fill="#d9cdb2" opacity="0.5"/><rect x="232" y="294" width="62" height="2" rx="1" fill="#c8b994" opacity="0.5"/><rect x="285" y="314" width="76" height="2" rx="1" fill="#d9cdb2" opacity="0.5"/><rect x="338" y="321" width="34" height="2" rx="1" fill="#c8b994" opacity="0.5"/><rect x="68" y="343" width="36" height="2" rx="1" fill="#d9cdb2" opacity="0.5"/><rect x="121" y="363" width="50" height="2" rx="1" fill="#c8b994" opacity="0.5"/><rect x="174" y="370" width="64" height="2" rx="1" fill="#d9cdb2" opacity="0.5"/><rect x="227" y="365" width="78" height="2" rx="1" fill="#c8b994" opacity="0.5"/><rect x="280" y="372" width="36" height="2" rx="1" fill="#d9cdb2" opacity="0.5"/><rect x="357" y="412" width="24" height="2" rx="1" fill="#d9cdb2" opacity="0.5"/><rect x="410" y="419" width="38" height="2" rx="1" fill="#c8b994" opacity="0.5"/><rect x="63" y="414" width="52" height="2" rx="1" fill="#d9cdb2" opacity="0.5"/><rect x="116" y="421" width="66" height="2" rx="1" fill="#c8b994" opacity="0.5"/><rect x="169" y="416" width="24" height="2" rx="1" fill="#d9cdb2" opacity="0.5"/><rect x="222" y="423" width="38" height="2" rx="1" fill="#c8b994" opacity="0.5"/><rect x="299" y="463" width="26" height="2" rx="1" fill="#c8b994" opacity="0.5"/><rect x="352" y="470" width="40" height="2" rx="1" fill="#d9cdb2" opacity="0.5"/><rect x="405" y="465" width="54" height="2" rx="1" fill="#c8b994" opacity="0.5"/><rect x="58" y="472" width="68" height="2" rx="1" fill="#d9cdb2" opacity="0.5"/><rect x="111" y="492" width="26" height="2" rx="1" fill="#c8b994" opacity="0.5"/><rect x="164" y="487" width="40" height="2" rx="1" fill="#d9cdb2" opacity="0.5"/><rect width="512" height="512" fill="url(#wv)"/></svg>