<svg xmlns="http://www.w3.org/2000/svg" width="512" height="512" viewBox="0 0 512 512"><defs><pattern id="wv" width="6" height="6" patternUnits="userSpaceOnUse"><line x1="0" y1="3" x2="6" y2="3" stroke="#000" stroke-opacity="0.05" stroke-width="1"/><line x1="3" y1="0" x2="3" y2="6" stroke="#fff" stroke-opacity="0.04" stroke-width="1"/></pattern></defs><rect width="512" height="512" fill="#4b362a"/><rect x="69" y="23" width="46" height="2" rx="1" fill="#3e2c21" opacity="0.5"/><rect x="122" y="22" width="68" height="2" rx="1" fill="#5a4334" opacity="0.5"/><rect x="175" y="21" width="34" height="2" rx="1" fill="#3e2c21" opacity="0.5"/><rect x="93" y="39" width="28" height="2" rx="1" fill="#5a4334" opacity="0.5"/><rect x="146" y="38" width="50" height="2" rx="1" fill="#3e2c21" opacity="0.5"/><rect x="199" y="37" width="72" height="2" rx="1" fill="#5a4334" opacity="0.5"/><rect x="252" y="48" width="38" height="2" rx="1" fill="#3e2c21" opacity="0.5"/><rect x="170" y="66" width="32" height="2" rx="1" fill="#5a4334" opacity="0.5"/><rect x="223" y="90" width="54" height="2" rx="1" fill="#3e2c21" opacity="0.5"/><rect x="276" y="89" width="76" height="2" rx="1" fill="#5a4334" opacity="0.5"/><rect x="329" y="88" width="42" height="2" rx="1" fill="#3e2c21" opacity="0.5"/><rect x="247" y="118" width="36" height="2" rx="1" fill="#5a4334" opacity="0.5"/><rect x="300" y="117" width="58" height="2" rx="1" fill="#3e2c21" opacity="0.5"/><rect x="353" y="116" width="24" height="2" rx="1" fill="#5a4334" opacity="0.5"/><rect x="324" y="145" width="40" height="2" rx="1" fill="#5a4334" opacity="0.5"/><rect x="377" y="169" width="62" height="2" rx="1" fill="#3e2c21" opacity="0.5"/><rect x="30" y="168" width="28" height="2" rx="1" fill="#5a4334" opacity="0.5"/><rect x="401" y="197" width="44" height="2" rx="1" fill="#5a4334" opacity="0.5"/><rect x="54" y="196" width="66" height="2" rx="1" fill="#3e2c21" opacity="0.5"/><rect x="107" y="195" width="32" height="2" rx="1" fill="#5a4334" opacity="0.5"/><rect x="25" y="213" width="26" height="2" rx="1" fill="#3e2c21" opacity="0.5"/><rect x="78" y="212" width="48" height="2" rx="1" fill="#5a4334" opacity="0.5"/><rect x="131" y="248" width="70" height="2" rx="1" fill="#3e2c21" opacity="0.5"/><rect x="184" y="247" width="36" height="2" rx="1" fill="#5a4334" opacity="0.5"/><rect x="102" y="265" width="30" height="2" rx="1" fill="#3e2c21" opacity="0.5"/><rect x="155" y="264" width="52" height="2" rx="1" fill="#5a4334" opacity="0.5"/><rect x="208" y="263" width="74" height="2" rx="1" fill="#3e2c21" opacity="0.5"/><rect x="261" y="262" width="40" height="2" rx="1" fill="#5a4334" opacity="0.5"/><rect x="179" y="292" width="34" height="2" rx="1" fill="#3e2c21" opacity="0.5"/><rect x="232" y="291" width="56" height="2" rx="1" fill="#5a4334" opacity="0.5"/><rect x="285" y="315" width="78" height="2" rx="1" fill="#3e2c21" opacity="0.5"/><rect x="256" y="344" width="38" height="2" rx="1" fill="#3e2c21" opacity="0.5"/><rect x="309" y="343" width="60" height="2" rx="1" fill="#5a4334" opacity="0.5"/><rect x="362" y="342" width="26" height="2" rx="1" fill="#3e2c21" opacity="0.5"/><rect x="333" y="371" width="42" height="2" rx="1" fill="#3e2c21" opacity="0.5"/><rect x="386" y="370" width="64" height="2" rx="1" fill="#5a4334" opacity="0.5"/><rect x="39" y="394" width="30" height="2" rx="1" fill="#3e2c21" opacity="0.5"/><rect x="357" y="412" width="24" height="2" rx="1" fill="#5a4334" opacity="0.5"/><rect x="410" y="423" width="46" height="2" rx="1" fill="#3e2c21" opacity="0.5"/><rect x="63" y="422" width="68" height="2" rx="1" fill="#5a4334" opacity="0.5"/><rect x="116" y="421" width="34" height="2" rx="1" fill="#3e2c21" opacity="0.5"/><rect x="34" y="439" width="28" height="2" rx="1" fill="#5a4334" opacity="0.5"/><rect x="87" y="438" width="50" height="2" rx="1" fill="#3e2c21" opacity="0.5"/><rect x="140" y="437" width="72" height="2" rx="1" fill="#5a4334" opacity="0.5"/><rect x="193" y="473" width="38" height="2" rx="1" fill="#3e2c21" opacity="0.5"/><rect x="111" y="491" width="32" height="2" rx="1" fill="#5a4334" opacity="0.5"/><rect x="164" y="490" width="54" height="2" rx="1" fill="#3e2c21" opacity="0.5"/><rect x="217" y="489" width="76" height="2" rx="1" fill="#5a4334" opacity="0.5"/><rect x="270" y="488" width="42" height="2" rx="1" fill="#3e2c21" opacity="0.5"/><rect width="512" height="512" fill="url(#wv)"/></svg>