<svg xmlns="http://www.w3.org/2000/svg" width="512" height="512" viewBox="0 0 512 512"><defs><pattern id="wv" width="6" height="6" patternUnits="userSpaceOnUse"><line x1="0" y1="3" x2="6" y2="3" stroke="#000" stroke-opacity="0.05" stroke-width="1"/><line x1="3" y1="0" x2="3" y2="6" stroke="#fff" stroke-opacity="0.04" stroke-width="1"/></pattern></defs><rect width="512" height="512" fill="#2c3a52"/><polygon points="-32,-64 -64,0 0,0" fill="#c4ccd6"/><polygon points="32,-64 0,0 64,0" fill="#c4ccd6"/><polygon points="96,-64 64,0 128,0" fill="#c4ccd6"/><polygon points="160,-64 128,0 192,0" fill="#c4ccd6"/><polygon points="224,-64 192,0 256,0" fill="#c4ccd6"/><polygon points="288,-64 256,0 320,0" fill="#c4ccd6"/><polygon points="352,-64 320,0 384,0" fill="#c4ccd6"/><polygon points="416,-64 384,0 448,0" fill="#c4ccd6"/><polygon points="480,-64 448,0 512,0" fill="#c4ccd6"/><polygon points="544,-64 512,0 576,0" fill="#c4ccd6"/><polygon points="608,-64 576,0 640,0" fill="#c4ccd6"/><polygon points="-64,0 -96,64 -32,64" fill="#c4ccd6"/><polygon points="0,0 -32,64 32,64" fill="#c4ccd6"/><polygon points="64,0 32,64 96,64" fill="#c4ccd6"/><polygon points="128,0 96,64 160,64" fill="#c4ccd6"/><polygon points="192,0 160,64 224,64" fill="#c4ccd6"/><polygon points="256,0 224,64 288,64" fill="#c4ccd6"/><polygon points="320,0 288,64 352,64" fill="#c4ccd6"/><polygon points="384,0 352,64 416,64" fill="#c4ccd6"/><polygon points="448,0 416,64 480,64" fill="#c4ccd6"/><polygon points="512,0 480,64 544,64" fill="#c4ccd6"/><polygon points="576,0 544,64 608,64" fill="#c4ccd6"/><polygon points="-32,64 -64,128 0,128" fill="#c4ccd6"/><polygon points="32,64 0,128 64,128" fill="#c4ccd6"/><polygon points="96,64 64,128 128,128" fill="#c4ccd6"/><polygon points="160,64 128,128 192,128" fill="#c4ccd6"/><polygon points="224,64 192,128 256,128" fill="#c4ccd6"/><polygon points="288,64 256,128 320,128" fill="#c4ccd6"/><polygon points="352,64 320,128 384,128" fill="#c4ccd6"/><polygon points="416,64 384,128 448,128" fill="#c4ccd6"/><polygon points="480,64 448,128 512,128" fill="#c4ccd6"/><polygon points="544,64 512,128 576,128" fill="#c4ccd6"/><polygon points="608,64 576,128 640,128" fill="#c4ccd6"/><polygon points="-64,128 -96,192 -32,192" fill="#c4ccd6"/><polygon points="0,128 -32,192 32,192" fill="#c4ccd6"/><polygon points="64,128 32,192 96,192" fill="#c4ccd6"/><polygon points="128,128 96,192 160,192" fill="#c4ccd6"/><polygon points="192,128 160,192 224,192" fill="#c4ccd6"/><polygon points="256,128 224,192 288,192" fill="#c4ccd6"/><polygon points="320,128 288,192 352,192" fill="#c4ccd6"/><polygon points="384,128 352,192 416,192" fill="#c4ccd6"/><polygon points="448,128 416,192 480,192" fill="#c4ccd6"/><polygon points="512,128 480,192 544,192" fill="#c4ccd6"/><polygon points="576,128 544,192 608,192" fill="#c4ccd6"/><polygon points="-32,192 -64,256 0,256" fill="#c4ccd6"/><polygon points="32,192 0,256 64,256" fill="#c4ccd6"/><polygon points="96,192 64,256 128,256" fill="#c4ccd6"/><polygon points="160,192 128,256 192,256" fill="#c4ccd6"/><polygon points="224,192 192,256 256,256" fill="#c4ccd6"/><polygon points="288,192 256,256 320,256" fill="#c4ccd6"/><polygon points="352,192 320,256 384,256" fill="#c4ccd6"/><polygon points="416,192 384,256 448,256" fill="#c4ccd6"/><polygon points="480,192 448,256 512,256" fill="#c4ccd6"/><polygon points="544,192 512,256 576,256" fill="#c4ccd6"/><polygon points="608,192 576,256 640,256" fill="#c4ccd6"/><polygon points="-64,256 -96,320 -32,320" fill="#c4ccd6"/><polygon points="0,256 -32,320 32,320" fill="#c4ccd6"/><polygon points="64,256 32,320 96,320" fill="#c4ccd6"/><polygon points="128,256 96,320 160,320" fill="#c4ccd6"/><polygon points="192,256 160,320 224,320" fill="#c4ccd6"/><polygon points="256,256 224,320 288,320" fill="#c4ccd6"/><polygon points="320,256 288,320 352,320" fill="#c4ccd6"/><polygon points="384,256 352,320 416,320" fill="#c4ccd6"/><polygon points="448,256 416,320 480,320" fill="#c4ccd6"/><polygon points="512,256 480,320 544,320" fill="#c4ccd6"/><polygon points="576,256 544,320 608,320" fill="#c4ccd6"/><polygon points="-32,320 -64,384 0,384" fill="#c4ccd6"/><polygon points="32,320 0,384 64,384" fill="#c4ccd6"/><polygon points="96,320 64,384 128,384" fill="#c4ccd6"/><polygon points="160,320 128,384 192,384" fill="#c4ccd6"/><polygon points="224,320 192,384 256,384" fill="#c4ccd6"/><polygon points="288,320 256,384 320,384" fill="#c4ccd6"/><polygon points="352,320 320,384 384,384" fill="#c4ccd6"/><polygon points="416,320 384,384 448,384" fill="#c4ccd6"/><polygon points="480,320 448,384 512,384" fill="#c4ccd6"/><polygon points="544,320 512,384 576,384" fill="#c4ccd6"/><polygon points="608,320 576,384 640,384" fill="#c4ccd6"/><polygon points="-64,384 -96,448 -32,448" fill="#c4ccd6"/><polygon points="0,384 -32,448 32,448" fill="#c4ccd6"/><polygon points="64,384 32,448 96,448" fill="#c4ccd6"/><polygon points="128,384 96,448 160,448" fill="#c4ccd6"/><polygon points="192,384 160,448 224,448" fill="#c4ccd6"/><polygon points="256,384 224,448 288,448" fill="#c4ccd6"/><polygon points="320,384 288,448 352,448" fill="#c4ccd6"/><polygon points="384,384 352,448 416,448" fill="#c4ccd6"/><polygon points="448,384 416,448 480,448" fill="#c4ccd6"/><polygon points="512,384 480,448 544,448" fill="#c4ccd6"/><polygon points="576,384 544,448 608,448" fill="#c4ccd6"/><polygon points="-32,448 -64,512 0,512" fill="#c4ccd6"/><polygon points="32,448 0,512 64,512" fill="#c4ccd6"/><polygon points="96,448 64,512 128,512" fill="#c4ccd6"/><polygon points="160,448 128,512 192,512" fill="#c4ccd6"/><polygon points="224,448 192,512 256,512" fill="#c4ccd6"/><polygon points="288,448 256,512 320,512" fill="#c4ccd6"/><polygon points="352,448 320,512 384,512" fill="#c4ccd6"/><polygon points="416,448 384,512 448,512" fill="#c4ccd6"/><polygon points="480,448 448,512 512,512" fill="#c4ccd6"/><polygon points="544,448 512,512 576,512" fill="#c4ccd6"/><polygon points="608,448 576,512 640,512" fill="#c4ccd6"/><polygon points="-64,512 -96,576 -32,576" fill="#c4ccd6"/><polygon points="0,512 -32,576 32,576" fill="#c4ccd6"/><polygon points="64,512 32,576 96,576" fill="#c4ccd6"/><polygon points="128,512 96,576 160,576" fill="#c4ccd6"/><polygon points="192,512 160,576 224,576" fill="#c4ccd6"/><polygon points="256,512 224,576 288,576" fill="#c4ccd6"/><polygon points="320,512 288,576 352,576" fill="#c4ccd6"/><polygon points="384,512 352,576 416,576" fill="#c4ccd6"/><polygon points="448,512 416,576 480,576" fill="#c4ccd6"/><polygon points="512,512 480,576 544,576" fill="#c4ccd6"/><polygon points="576,512 544,576 608,576" fill="#c4ccd6"/><rect width="512" height="512" fill="url(#wv)"/></svg>